<svg width="229" height="85" viewBox="0 0 229 85" fill="none" xmlns="http://www.w3.org/2000/svg">
<path d="M13.9 81.2C12.6833 81.2 11.6167 80.9167 10.7 80.35C9.8 79.7667 9.1 78.9833 8.6 78C8.1 77.0167 7.85 75.9333 7.85 74.75C7.85 73.55 8.1 72.4667 8.6 71.5C9.1 70.5167 9.8 69.7417 10.7 69.175C11.6167 68.5917 12.6833 68.3 13.9 68.3C14.9333 68.3 15.8167 68.5 16.55 68.9C17.3 69.3 17.9083 69.8417 18.375 70.525V68.5H20.25V81H18.375V79C17.9083 79.6667 17.3 80.2 16.55 80.6C15.8167 81 14.9333 81.2 13.9 81.2ZM14.15 79.5C15.0833 79.5 15.8667 79.2833 16.5 78.85C17.15 78.4167 17.6417 77.8417 17.975 77.125C18.3083 76.3917 18.475 75.6 18.475 74.75C18.475 73.8833 18.3083 73.0917 17.975 72.375C17.6417 71.6583 17.15 71.0833 16.5 70.65C15.8667 70.2167 15.0833 70 14.15 70C13.2333 70 12.4417 70.2167 11.775 70.65C11.1083 71.0833 10.6 71.6583 10.25 72.375C9.9 73.0917 9.725 73.8833 9.725 74.75C9.725 75.6 9.9 76.3917 10.25 77.125C10.6 77.8417 11.1083 78.4167 11.775 78.85C12.4417 79.2833 13.2333 79.5 14.15 79.5ZM23.4932 81V63.5H25.3682V81H23.4932ZM34.9701 81.2C33.9368 81.2 33.0451 81 32.2951 80.6C31.5618 80.2 30.9618 79.6667 30.4951 79V81H28.6201V63.5H30.4951V70.525C30.9618 69.8417 31.5618 69.3 32.2951 68.9C33.0451 68.5 33.9368 68.3 34.9701 68.3C36.1868 68.3 37.2451 68.5917 38.1451 69.175C39.0618 69.7417 39.7701 70.5167 40.2701 71.5C40.7701 72.4667 41.0201 73.55 41.0201 74.75C41.0201 75.9333 40.7701 77.0167 40.2701 78C39.7701 78.9833 39.0618 79.7667 38.1451 80.35C37.2451 80.9167 36.1868 81.2 34.9701 81.2ZM34.7201 79.5C35.6535 79.5 36.4451 79.2833 37.0951 78.85C37.7618 78.4167 38.2701 77.8417 38.6201 77.125C38.9701 76.3917 39.1451 75.6 39.1451 74.75C39.1451 73.8833 38.9701 73.0917 38.6201 72.375C38.2701 71.6583 37.7618 71.0833 37.0951 70.65C36.4451 70.2167 35.6535 70 34.7201 70C33.8035 70 33.0201 70.2167 32.3701 70.65C31.7201 71.0833 31.2285 71.6583 30.8951 72.375C30.5618 73.0917 30.3951 73.8833 30.3951 74.75C30.3951 75.6 30.5618 76.3917 30.8951 77.125C31.2285 77.8417 31.7201 78.4167 32.3701 78.85C33.0201 79.2833 33.8035 79.5 34.7201 79.5ZM48.3633 81.2C47.5133 81.2 46.7049 81 45.9383 80.6C45.1716 80.1833 44.5466 79.575 44.0633 78.775C43.5966 77.9583 43.3633 76.9583 43.3633 75.775V68.5H45.2383V75.725C45.2383 76.8583 45.5633 77.775 46.2133 78.475C46.8799 79.1583 47.7216 79.5 48.7383 79.5C49.4383 79.5 50.0716 79.3417 50.6383 79.025C51.2049 78.6917 51.6549 78.2417 51.9883 77.675C52.3383 77.1083 52.5133 76.45 52.5133 75.7V68.5H54.3883V81H52.5133V79.05C52.0633 79.65 51.5133 80.1583 50.8633 80.575C50.2133 80.9917 49.3799 81.2 48.3633 81.2ZM57.6484 81V68.5H59.5234V70.4C59.8068 69.9 60.2568 69.425 60.8734 68.975C61.4901 68.525 62.3068 68.3 63.3234 68.3C64.1568 68.3 64.9234 68.525 65.6234 68.975C66.3401 69.4083 66.8984 70.025 67.2984 70.825C67.4651 70.5417 67.7234 70.2 68.0734 69.8C68.4401 69.4 68.9151 69.05 69.4984 68.75C70.0818 68.45 70.7818 68.3 71.5984 68.3C72.3984 68.3 73.1484 68.5083 73.8484 68.925C74.5484 69.3417 75.1151 69.9417 75.5484 70.725C75.9984 71.4917 76.2234 72.4 76.2234 73.45V81H74.3484V73.5C74.3484 72.45 74.0484 71.6083 73.4484 70.975C72.8651 70.325 72.1318 70 71.2484 70C70.3318 70 69.5401 70.3083 68.8734 70.925C68.2068 71.5417 67.8734 72.4083 67.8734 73.525V81H65.9984V73.5C65.9984 72.45 65.6984 71.6083 65.0984 70.975C64.5151 70.325 63.7818 70 62.8984 70C61.9818 70 61.1901 70.3083 60.5234 70.925C59.8568 71.5417 59.5234 72.4083 59.5234 73.525V81H57.6484Z" fill="#FF8C09"/>
<mask id="path-2-outside-1_285_1063" maskUnits="userSpaceOnUse" x="2" y="9" width="199" height="50" fill="black">
<rect fill="white" x="2" y="9" width="199" height="50"/>
<path d="M8.96 55.25L10.36 45.24H3.15V40.69H10.99L12.39 30.61H5.25V26.06H13.02L14.49 16.05H19.04L17.57 26.06H25.69L27.16 16.05H31.71L30.24 26.06H37.52V30.61H29.61L28.21 40.69H35.42V45.24H27.58L26.18 55.25H21.63L23.03 45.24H14.91L13.51 55.25H8.96ZM15.54 40.69H23.66L25.06 30.61H16.94L15.54 40.69ZM57.8238 57V15.63H41.6538V10.66H79.2438V15.63H63.0738V57H57.8238ZM104.521 57.56C101.021 57.56 97.8248 56.9533 94.9315 55.74C92.0382 54.5267 89.5415 52.8233 87.4415 50.63C85.3882 48.4367 83.8015 45.9167 82.6815 43.07C81.5615 40.1767 81.0015 37.0967 81.0015 33.83C81.0015 30.5167 81.5615 27.4367 82.6815 24.59C83.8015 21.7433 85.3882 19.2233 87.4415 17.03C89.5415 14.8367 92.0382 13.1333 94.9315 11.92C97.8248 10.7067 101.021 10.1 104.521 10.1C108.021 10.1 111.218 10.7067 114.111 11.92C117.005 13.1333 119.478 14.8367 121.531 17.03C123.631 19.2233 125.241 21.7433 126.361 24.59C127.481 27.4367 128.041 30.5167 128.041 33.83C128.041 37.0967 127.481 40.1767 126.361 43.07C125.241 45.9167 123.631 48.4367 121.531 50.63C119.478 52.8233 117.005 54.5267 114.111 55.74C111.218 56.9533 108.021 57.56 104.521 57.56ZM104.521 52.45C108.301 52.45 111.545 51.6333 114.251 50C117.005 48.32 119.105 46.08 120.551 43.28C122.045 40.4333 122.791 37.2833 122.791 33.83C122.791 30.33 122.045 27.18 120.551 24.38C119.105 21.58 117.005 19.3633 114.251 17.73C111.545 16.05 108.301 15.21 104.521 15.21C100.788 15.21 97.5448 16.05 94.7915 17.73C92.0382 19.3633 89.9148 21.58 88.4215 24.38C86.9748 27.18 86.2515 30.33 86.2515 33.83C86.2515 37.2833 86.9748 40.4333 88.4215 43.28C89.9148 46.08 92.0382 48.32 94.7915 50C97.5448 51.6333 100.788 52.45 104.521 52.45ZM136.441 57V10.66H157.301C162.248 10.66 166.145 12.0133 168.991 14.72C171.838 17.38 173.261 20.9967 173.261 25.57C173.261 30.1433 171.838 33.7833 168.991 36.49C166.145 39.15 162.248 40.48 157.301 40.48H141.691V57H136.441ZM141.691 35.58H156.951C160.591 35.58 163.345 34.6933 165.211 32.92C167.078 31.1467 168.011 28.6967 168.011 25.57C168.011 22.49 167.078 20.0633 165.211 18.29C163.345 16.5167 160.591 15.63 156.951 15.63H141.691V35.58ZM193.977 57V15.7H184.177V10.66H199.227V57H193.977Z"/>
</mask>
<path d="M8.96 55.25L10.36 45.24H3.15V40.69H10.99L12.39 30.61H5.25V26.06H13.02L14.49 16.05H19.04L17.57 26.06H25.69L27.16 16.05H31.71L30.24 26.06H37.52V30.61H29.61L28.21 40.69H35.42V45.24H27.58L26.18 55.25H21.63L23.03 45.24H14.91L13.51 55.25H8.96ZM15.54 40.69H23.66L25.06 30.61H16.94L15.54 40.69ZM57.8238 57V15.63H41.6538V10.66H79.2438V15.63H63.0738V57H57.8238ZM104.521 57.56C101.021 57.56 97.8248 56.9533 94.9315 55.74C92.0382 54.5267 89.5415 52.8233 87.4415 50.63C85.3882 48.4367 83.8015 45.9167 82.6815 43.07C81.5615 40.1767 81.0015 37.0967 81.0015 33.83C81.0015 30.5167 81.5615 27.4367 82.6815 24.59C83.8015 21.7433 85.3882 19.2233 87.4415 17.03C89.5415 14.8367 92.0382 13.1333 94.9315 11.92C97.8248 10.7067 101.021 10.1 104.521 10.1C108.021 10.1 111.218 10.7067 114.111 11.92C117.005 13.1333 119.478 14.8367 121.531 17.03C123.631 19.2233 125.241 21.7433 126.361 24.59C127.481 27.4367 128.041 30.5167 128.041 33.83C128.041 37.0967 127.481 40.1767 126.361 43.07C125.241 45.9167 123.631 48.4367 121.531 50.63C119.478 52.8233 117.005 54.5267 114.111 55.74C111.218 56.9533 108.021 57.56 104.521 57.56ZM104.521 52.45C108.301 52.45 111.545 51.6333 114.251 50C117.005 48.32 119.105 46.08 120.551 43.28C122.045 40.4333 122.791 37.2833 122.791 33.83C122.791 30.33 122.045 27.18 120.551 24.38C119.105 21.58 117.005 19.3633 114.251 17.73C111.545 16.05 108.301 15.21 104.521 15.21C100.788 15.21 97.5448 16.05 94.7915 17.73C92.0382 19.3633 89.9148 21.58 88.4215 24.38C86.9748 27.18 86.2515 30.33 86.2515 33.83C86.2515 37.2833 86.9748 40.4333 88.4215 43.28C89.9148 46.08 92.0382 48.32 94.7915 50C97.5448 51.6333 100.788 52.45 104.521 52.45ZM136.441 57V10.66H157.301C162.248 10.66 166.145 12.0133 168.991 14.72C171.838 17.38 173.261 20.9967 173.261 25.57C173.261 30.1433 171.838 33.7833 168.991 36.49C166.145 39.15 162.248 40.48 157.301 40.48H141.691V57H136.441ZM141.691 35.58H156.951C160.591 35.58 163.345 34.6933 165.211 32.92C167.078 31.1467 168.011 28.6967 168.011 25.57C168.011 22.49 167.078 20.0633 165.211 18.29C163.345 16.5167 160.591 15.63 156.951 15.63H141.691V35.58ZM193.977 57V15.7H184.177V10.66H199.227V57H193.977Z" fill="#5EBD9A"/>
<path d="M8.96 55.25L7.96964 55.1115L7.81041 56.25H8.96V55.25ZM10.36 45.24L11.3504 45.3785L11.5096 44.24H10.36V45.24ZM3.15 45.24H2.15V46.24H3.15V45.24ZM3.15 40.69V39.69H2.15V40.69H3.15ZM10.99 40.69V41.69H11.8607L11.9805 40.8276L10.99 40.69ZM12.39 30.61L13.3805 30.7476L13.5385 29.61H12.39V30.61ZM5.25 30.61H4.25V31.61H5.25V30.61ZM5.25 26.06V25.06H4.25V26.06H5.25ZM13.02 26.06V27.06H13.8839L14.0094 26.2053L13.02 26.06ZM14.49 16.05V15.05H13.6261L13.5006 15.9047L14.49 16.05ZM19.04 16.05L20.0294 16.1953L20.1976 15.05H19.04V16.05ZM17.57 26.06L16.5806 25.9147L16.4124 27.06H17.57V26.06ZM25.69 26.06V27.06H26.5539L26.6794 26.2053L25.69 26.06ZM27.16 16.05V15.05H26.2961L26.1706 15.9047L27.16 16.05ZM31.71 16.05L32.6994 16.1953L32.8676 15.05H31.71V16.05ZM30.24 26.06L29.2506 25.9147L29.0824 27.06H30.24V26.06ZM37.52 26.06H38.52V25.06H37.52V26.06ZM37.52 30.61V31.61H38.52V30.61H37.52ZM29.61 30.61V29.61H28.7393L28.6195 30.4724L29.61 30.61ZM28.21 40.69L27.2195 40.5524L27.0615 41.69H28.21V40.69ZM35.42 40.69H36.42V39.69H35.42V40.69ZM35.42 45.24V46.24H36.42V45.24H35.42ZM27.58 45.24V44.24H26.7101L26.5896 45.1015L27.58 45.24ZM26.18 55.25V56.25H27.0499L27.1704 55.3885L26.18 55.25ZM21.63 55.25L20.6396 55.1115L20.4804 56.25H21.63V55.25ZM23.03 45.24L24.0204 45.3785L24.1796 44.24H23.03V45.24ZM14.91 45.24V44.24H14.0401L13.9196 45.1015L14.91 45.24ZM13.51 55.25V56.25H14.3799L14.5004 55.3885L13.51 55.25ZM15.54 40.69L14.5495 40.5524L14.3915 41.69H15.54V40.69ZM23.66 40.69V41.69H24.5307L24.6505 40.8276L23.66 40.69ZM25.06 30.61L26.0505 30.7476L26.2085 29.61H25.06V30.61ZM16.94 30.61V29.61H16.0693L15.9495 30.4724L16.94 30.61ZM8.96 55.25L9.95036 55.3885L11.3504 45.3785L10.36 45.24L9.36964 45.1015L7.96964 55.1115L8.96 55.25ZM10.36 45.24V44.24H3.15V45.24V46.24H10.36V45.24ZM3.15 45.24H4.15V40.69H3.15H2.15V45.24H3.15ZM3.15 40.69V41.69H10.99V40.69V39.69H3.15V40.69ZM10.99 40.69L11.9805 40.8276L13.3805 30.7476L12.39 30.61L11.3995 30.4724L9.99951 40.5524L10.99 40.69ZM12.39 30.61V29.61H5.25V30.61V31.61H12.39V30.61ZM5.25 30.61H6.25V26.06H5.25H4.25V30.61H5.25ZM5.25 26.06V27.06H13.02V26.06V25.06H5.25V26.06ZM13.02 26.06L14.0094 26.2053L15.4794 16.1953L14.49 16.05L13.5006 15.9047L12.0306 25.9147L13.02 26.06ZM14.49 16.05V17.05H19.04V16.05V15.05H14.49V16.05ZM19.04 16.05L18.0506 15.9047L16.5806 25.9147L17.57 26.06L18.5594 26.2053L20.0294 16.1953L19.04 16.05ZM17.57 26.06V27.06H25.69V26.06V25.06H17.57V26.06ZM25.69 26.06L26.6794 26.2053L28.1494 16.1953L27.16 16.05L26.1706 15.9047L24.7006 25.9147L25.69 26.06ZM27.16 16.05V17.05H31.71V16.05V15.05H27.16V16.05ZM31.71 16.05L30.7206 15.9047L29.2506 25.9147L30.24 26.06L31.2294 26.2053L32.6994 16.1953L31.71 16.05ZM30.24 26.06V27.06H37.52V26.06V25.06H30.24V26.06ZM37.52 26.06H36.52V30.61H37.52H38.52V26.06H37.52ZM37.52 30.61V29.61H29.61V30.61V31.61H37.52V30.61ZM29.61 30.61L28.6195 30.4724L27.2195 40.5524L28.21 40.69L29.2005 40.8276L30.6005 30.7476L29.61 30.61ZM28.21 40.69V41.69H35.42V40.69V39.69H28.21V40.69ZM35.42 40.69H34.42V45.24H35.42H36.42V40.69H35.42ZM35.42 45.24V44.24H27.58V45.24V46.24H35.42V45.24ZM27.58 45.24L26.5896 45.1015L25.1896 55.1115L26.18 55.25L27.1704 55.3885L28.5704 45.3785L27.58 45.24ZM26.18 55.25V54.25H21.63V55.25V56.25H26.18V55.25ZM21.63 55.25L22.6204 55.3885L24.0204 45.3785L23.03 45.24L22.0396 45.1015L20.6396 55.1115L21.63 55.25ZM23.03 45.24V44.24H14.91V45.24V46.24H23.03V45.24ZM14.91 45.24L13.9196 45.1015L12.5196 55.1115L13.51 55.25L14.5004 55.3885L15.9004 45.3785L14.91 45.24ZM13.51 55.25V54.25H8.96V55.25V56.25H13.51V55.25ZM15.54 40.69V41.69H23.66V40.69V39.69H15.54V40.69ZM23.66 40.69L24.6505 40.8276L26.0505 30.7476L25.06 30.61L24.0695 30.4724L22.6695 40.5524L23.66 40.69ZM25.06 30.61V29.61H16.94V30.61V31.61H25.06V30.61ZM16.94 30.61L15.9495 30.4724L14.5495 40.5524L15.54 40.69L16.5305 40.8276L17.9305 30.7476L16.94 30.61ZM57.8238 57H56.8238V58H57.8238V57ZM57.8238 15.63H58.8238V14.63H57.8238V15.63ZM41.6538 15.63H40.6538V16.63H41.6538V15.63ZM41.6538 10.66V9.66H40.6538V10.66H41.6538ZM79.2438 10.66H80.2438V9.66H79.2438V10.66ZM79.2438 15.63V16.63H80.2438V15.63H79.2438ZM63.0738 15.63V14.63H62.0738V15.63H63.0738ZM63.0738 57V58H64.0738V57H63.0738ZM57.8238 57H58.8238V15.63H57.8238H56.8238V57H57.8238ZM57.8238 15.63V14.63H41.6538V15.63V16.63H57.8238V15.63ZM41.6538 15.63H42.6538V10.66H41.6538H40.6538V15.63H41.6538ZM41.6538 10.66V11.66H79.2438V10.66V9.66H41.6538V10.66ZM79.2438 10.66H78.2438V15.63H79.2438H80.2438V10.66H79.2438ZM79.2438 15.63V14.63H63.0738V15.63V16.63H79.2438V15.63ZM63.0738 15.63H62.0738V57H63.0738H64.0738V15.63H63.0738ZM63.0738 57V56H57.8238V57V58H63.0738V57ZM94.9315 55.74L94.5448 56.6622L94.9315 55.74ZM87.4415 50.63L86.7114 51.3135L86.7192 51.3216L87.4415 50.63ZM82.6815 43.07L81.7489 43.431L81.7509 43.4361L82.6815 43.07ZM82.6815 24.59L81.7509 24.2239L82.6815 24.59ZM87.4415 17.03L86.7191 16.3384L86.7115 16.3466L87.4415 17.03ZM94.9315 11.92L94.5448 10.9978H94.5448L94.9315 11.92ZM114.111 11.92L114.498 10.9978L114.111 11.92ZM121.531 17.03L120.801 17.7135L120.809 17.7216L121.531 17.03ZM126.361 43.07L127.292 43.4361L127.294 43.431L126.361 43.07ZM121.531 50.63L120.809 49.9384L120.801 49.9466L121.531 50.63ZM114.111 55.74L114.498 56.6622L114.111 55.74ZM114.251 50L114.768 50.8562L114.772 50.8536L114.251 50ZM120.551 43.28L119.666 42.8154L119.663 42.821L120.551 43.28ZM120.551 24.38L119.663 24.8391L119.669 24.8506L120.551 24.38ZM114.251 17.73L113.724 18.5796L113.733 18.5849L113.741 18.5901L114.251 17.73ZM94.7915 17.73L95.3017 18.5901L95.3123 18.5836L94.7915 17.73ZM88.4215 24.38L87.5391 23.9094L87.5331 23.921L88.4215 24.38ZM88.4215 43.28L87.53 43.733L87.5345 43.7419L87.5391 43.7506L88.4215 43.28ZM94.7915 50L94.2706 50.8537L94.2813 50.8601L94.7915 50ZM104.521 57.56V56.56C101.139 56.56 98.0757 55.9742 95.3182 54.8178L94.9315 55.74L94.5448 56.6622C97.574 57.9325 100.904 58.56 104.521 58.56V57.56ZM94.9315 55.74L95.3182 54.8178C92.5471 53.6557 90.1658 52.0294 88.1638 49.9384L87.4415 50.63L86.7192 51.3216C88.9172 53.6173 91.5292 55.3976 94.5448 56.6622L94.9315 55.74ZM87.4415 50.63L88.1715 49.9466C86.206 47.8471 84.6867 45.4352 83.6121 42.7039L82.6815 43.07L81.7509 43.4361C82.9163 46.3981 84.5703 49.0262 86.7115 51.3134L87.4415 50.63ZM82.6815 43.07L83.6141 42.709C82.5409 39.9368 82.0015 36.9798 82.0015 33.83H81.0015H80.0015C80.0015 37.2135 80.582 40.4165 81.7489 43.431L82.6815 43.07ZM81.0015 33.83H82.0015C82.0015 30.6315 82.5416 27.6768 83.6121 24.9561L82.6815 24.59L81.7509 24.2239C80.5814 27.1965 80.0015 30.4018 80.0015 33.83H81.0015ZM82.6815 24.59L83.6121 24.9561C84.6867 22.2247 86.206 19.8129 88.1715 17.7134L87.4415 17.03L86.7115 16.3466C84.5703 18.6338 82.9163 21.2619 81.7509 24.2239L82.6815 24.59ZM87.4415 17.03L88.1638 17.7216C90.1658 15.6306 92.5471 14.0043 95.3182 12.8422L94.9315 11.92L94.5448 10.9978C91.5292 12.2624 88.9172 14.0427 86.7192 16.3384L87.4415 17.03ZM94.9315 11.92L95.3182 12.8422C98.0757 11.6858 101.139 11.1 104.521 11.1V10.1V9.1C100.904 9.1 97.574 9.72749 94.5448 10.9978L94.9315 11.92ZM104.521 10.1V11.1C107.904 11.1 110.967 11.6858 113.725 12.8422L114.111 11.92L114.498 10.9978C111.469 9.72749 108.139 9.1 104.521 9.1V10.1ZM114.111 11.92L113.725 12.8422C116.494 14.0035 118.849 15.6275 120.801 17.7134L121.531 17.03L122.262 16.3466C120.108 14.0458 117.516 12.2632 114.498 10.9978L114.111 11.92ZM121.531 17.03L120.809 17.7216C122.819 19.8203 124.358 22.2295 125.431 24.9561L126.361 24.59L127.292 24.2239C126.125 21.2571 124.444 18.6264 122.254 16.3384L121.531 17.03ZM126.361 24.59L125.431 24.9561C126.501 27.6768 127.041 30.6315 127.041 33.83H128.041H129.041C129.041 30.4018 128.462 27.1965 127.292 24.2239L126.361 24.59ZM128.041 33.83H127.041C127.041 36.9798 126.502 39.9368 125.429 42.709L126.361 43.07L127.294 43.431C128.461 40.4165 129.041 37.2135 129.041 33.83H128.041ZM126.361 43.07L125.431 42.7039C124.358 45.4305 122.819 47.8397 120.809 49.9384L121.531 50.63L122.254 51.3216C124.444 49.0336 126.125 46.4029 127.292 43.4361L126.361 43.07ZM121.531 50.63L120.801 49.9466C118.849 52.0325 116.494 53.6565 113.725 54.8178L114.111 55.74L114.498 56.6622C117.516 55.3968 120.108 53.6142 122.262 51.3134L121.531 50.63ZM114.111 55.74L113.725 54.8178C110.967 55.9742 107.904 56.56 104.521 56.56V57.56V58.56C108.139 58.56 111.469 57.9325 114.498 56.6622L114.111 55.74ZM104.521 52.45V53.45C108.448 53.45 111.877 52.6006 114.768 50.8562L114.251 50L113.735 49.1438C111.212 50.6661 108.155 51.45 104.521 51.45V52.45ZM114.251 50L114.772 50.8536C117.678 49.0806 119.907 46.7057 121.44 43.739L120.551 43.28L119.663 42.821C118.303 45.4543 116.331 47.5594 113.731 49.1464L114.251 50ZM120.551 43.28L121.437 43.7445C123.011 40.744 123.791 37.4328 123.791 33.83H122.791H121.791C121.791 37.1338 121.079 40.1226 119.666 42.8154L120.551 43.28ZM122.791 33.83H123.791C123.791 30.1831 123.012 26.8687 121.434 23.9094L120.551 24.38L119.669 24.8506C121.078 27.4913 121.791 30.4769 121.791 33.83H122.791ZM120.551 24.38L121.44 23.921C119.906 20.9517 117.673 18.5973 114.762 16.8699L114.251 17.73L113.741 18.5901C116.336 20.1294 118.304 22.2082 119.663 24.839L120.551 24.38ZM114.251 17.73L114.779 16.8804C111.886 15.0851 108.453 14.21 104.521 14.21V15.21V16.21C108.15 16.21 111.203 17.0149 113.724 18.5796L114.251 17.73ZM104.521 15.21V14.21C100.634 14.21 97.2042 15.0864 94.2706 16.8764L94.7915 17.73L95.3123 18.5836C97.8855 17.0136 100.942 16.21 104.521 16.21V15.21ZM94.7915 17.73L94.2813 16.8699C91.3721 18.5957 89.1194 20.9465 87.5391 23.9094L88.4215 24.38L89.3038 24.8506C90.7103 22.2135 92.7042 20.1309 95.3017 18.5901L94.7915 17.73ZM88.4215 24.38L87.5331 23.921C86.0053 26.878 85.2515 30.1882 85.2515 33.83H86.2515H87.2515C87.2515 30.4718 87.9444 27.482 89.3099 24.839L88.4215 24.38ZM86.2515 33.83H85.2515C85.2515 37.4277 86.0063 40.7348 87.53 43.733L88.4215 43.28L89.313 42.827C87.9433 40.1319 87.2515 37.139 87.2515 33.83H86.2515ZM88.4215 43.28L87.5391 43.7506C89.118 46.711 91.3674 49.0822 94.2706 50.8536L94.7915 50L95.3123 49.1464C92.7089 47.5578 90.7116 45.449 89.3038 42.8094L88.4215 43.28ZM94.7915 50L94.2813 50.8601C97.2131 52.5993 100.639 53.45 104.521 53.45V52.45V51.45C100.938 51.45 97.8765 50.6674 95.3017 49.1399L94.7915 50ZM136.441 57H135.441V58H136.441V57ZM136.441 10.66V9.66H135.441V10.66H136.441ZM168.991 14.72L168.302 15.4447L168.309 15.4507L168.991 14.72ZM168.991 36.49L169.674 37.2207L169.681 37.2147L168.991 36.49ZM141.691 40.48V39.48H140.691V40.48H141.691ZM141.691 57V58H142.691V57H141.691ZM141.691 35.58H140.691V36.58H141.691V35.58ZM165.211 32.92L165.9 33.645V33.645L165.211 32.92ZM165.211 18.29L164.523 19.015L165.211 18.29ZM141.691 15.63V14.63H140.691V15.63H141.691ZM136.441 57H137.441V10.66H136.441H135.441V57H136.441ZM136.441 10.66V11.66H157.301V10.66V9.66H136.441V10.66ZM157.301 10.66V11.66C162.061 11.66 165.687 12.9575 168.302 15.4447L168.991 14.72L169.681 13.9953C166.603 11.0692 162.435 9.66 157.301 9.66V10.66ZM168.991 14.72L168.309 15.4507C170.918 17.8885 172.261 21.2212 172.261 25.57H173.261H174.261C174.261 20.7721 172.759 16.8715 169.674 13.9893L168.991 14.72ZM173.261 25.57H172.261C172.261 29.9184 170.918 33.2787 168.302 35.7653L168.991 36.49L169.681 37.2147C172.759 34.288 174.261 30.3683 174.261 25.57H173.261ZM168.991 36.49L168.309 35.7593C165.693 38.2032 162.066 39.48 157.301 39.48V40.48V41.48C162.431 41.48 166.596 40.0968 169.674 37.2207L168.991 36.49ZM157.301 40.48V39.48H141.691V40.48V41.48H157.301V40.48ZM141.691 40.48H140.691V57H141.691H142.691V40.48H141.691ZM141.691 57V56H136.441V57V58H141.691V57ZM141.691 35.58V36.58H156.951V35.58V34.58H141.691V35.58ZM156.951 35.58V36.58C160.741 36.58 163.783 35.6566 165.9 33.645L165.211 32.92L164.523 32.195C162.907 33.73 160.442 34.58 156.951 34.58V35.58ZM165.211 32.92L165.9 33.645C168.007 31.6434 169.011 28.9076 169.011 25.57H168.011H167.011C167.011 28.4857 166.149 30.65 164.523 32.195L165.211 32.92ZM168.011 25.57H169.011C169.011 22.274 168.004 19.5637 165.9 17.565L165.211 18.29L164.523 19.015C166.152 20.5629 167.011 22.706 167.011 25.57H168.011ZM165.211 18.29L165.9 17.565C163.783 15.5534 160.741 14.63 156.951 14.63V15.63V16.63C160.442 16.63 162.907 17.48 164.523 19.015L165.211 18.29ZM156.951 15.63V14.63H141.691V15.63V16.63H156.951V15.63ZM141.691 15.63H140.691V35.58H141.691H142.691V15.63H141.691ZM193.977 57H192.977V58H193.977V57ZM193.977 15.7H194.977V14.7H193.977V15.7ZM184.177 15.7H183.177V16.7H184.177V15.7ZM184.177 10.66V9.66H183.177V10.66H184.177ZM199.227 10.66H200.227V9.66H199.227V10.66ZM199.227 57V58H200.227V57H199.227ZM193.977 57H194.977V15.7H193.977H192.977V57H193.977ZM193.977 15.7V14.7H184.177V15.7V16.7H193.977V15.7ZM184.177 15.7H185.177V10.66H184.177H183.177V15.7H184.177ZM184.177 10.66V11.66H199.227V10.66V9.66H184.177V10.66ZM199.227 10.66H198.227V57H199.227H200.227V10.66H199.227ZM199.227 57V56H193.977V57V58H199.227V57Z" fill="#5EBD9A" mask="url(#path-2-outside-1_285_1063)"/>
</svg>
