<svg width="274" height="40" viewBox="0 0 274 40" fill="none" xmlns="http://www.w3.org/2000/svg">
<path d="M261.683 35C260.579 35 259.642 34.6139 258.872 33.8417C258.103 33.0683 257.718 32.1294 257.718 31.025C257.718 30.8583 257.792 30.4378 257.938 29.7633L245.943 22.6417C245.583 23.0572 245.143 23.3833 244.622 23.62C244.101 23.8567 243.541 23.975 242.943 23.975C241.848 23.975 240.917 23.585 240.15 22.805C239.383 22.025 239 21.09 239 20C239 18.91 239.383 17.975 240.15 17.195C240.917 16.415 241.848 16.025 242.943 16.025C243.54 16.025 244.099 16.1433 244.622 16.38C245.144 16.6167 245.584 16.9433 245.943 17.36L257.94 10.2683C257.862 10.0528 257.806 9.83889 257.772 9.62667C257.736 9.41333 257.718 9.19556 257.718 8.97333C257.718 7.87 258.106 6.93167 258.88 6.15833C259.654 5.38611 260.594 5 261.7 5C262.806 5 263.743 5.38722 264.513 6.16167C265.283 6.93611 265.668 7.87611 265.667 8.98167C265.666 10.0872 265.279 11.025 264.508 11.795C263.737 12.565 262.798 12.9494 261.692 12.9483C261.089 12.9483 260.534 12.825 260.025 12.5783C259.516 12.3317 259.083 12 258.725 11.5833L246.727 18.705C246.804 18.9206 246.861 19.135 246.895 19.3483C246.931 19.5606 246.948 19.7778 246.948 20C246.948 20.2222 246.931 20.4394 246.895 20.6517C246.859 20.8639 246.804 21.0783 246.728 21.295L258.725 28.4167C259.084 28 259.517 27.6683 260.025 27.4217C260.534 27.175 261.089 27.0517 261.692 27.0517C262.796 27.0517 263.735 27.4383 264.508 28.2117C265.281 28.9872 265.667 29.9278 265.667 31.0333C265.667 32.1389 265.279 33.0767 264.505 33.8467C263.731 34.6167 262.789 35.0011 261.683 35ZM261.692 33.3333C262.346 33.3333 262.894 33.1122 263.337 32.67C263.779 32.2278 264 31.68 264 31.0267C264 30.3733 263.779 29.825 263.337 29.3817C262.894 28.9383 262.347 28.7172 261.693 28.7183C261.04 28.7194 260.492 28.9406 260.048 29.3817C259.605 29.8228 259.384 30.3706 259.385 31.025C259.386 31.6794 259.607 32.2278 260.048 32.67C260.489 33.1122 261.036 33.3333 261.692 33.3333ZM242.943 22.3067C243.606 22.3067 244.161 22.0856 244.61 21.6433C245.058 21.2011 245.282 20.6533 245.282 20C245.282 19.3467 245.058 18.7989 244.61 18.3567C244.162 17.9144 243.607 17.6933 242.943 17.6933C242.298 17.6933 241.757 17.9144 241.322 18.3567C240.886 18.7989 240.668 19.3467 240.667 20C240.666 20.6533 240.884 21.2017 241.322 21.645C241.759 22.0883 242.3 22.3089 242.943 22.3067ZM261.693 11.2817C262.347 11.2817 262.894 11.0606 263.337 10.6183C263.779 10.1761 264 9.62778 264 8.97333C264 8.31889 263.779 7.77111 263.337 7.33C262.894 6.88889 262.347 6.66778 261.693 6.66667C261.04 6.66556 260.492 6.88667 260.048 7.33C259.605 7.77333 259.384 8.32167 259.385 8.975C259.386 9.62833 259.607 10.1761 260.048 10.6183C260.489 11.0606 261.038 11.2817 261.693 11.2817Z" fill="white"/>
<path d="M139.833 23.3333H138.517L138.05 22.8833C139.74 20.9235 140.669 18.4212 140.667 15.8333C140.667 13.6907 140.031 11.5962 138.841 9.81466C137.651 8.03313 135.959 6.64459 133.979 5.82464C132 5.00469 129.821 4.79016 127.72 5.20816C125.618 5.62617 123.688 6.65795 122.173 8.17301C120.658 9.68808 119.626 11.6184 119.208 13.7199C118.79 15.8213 119.005 17.9995 119.825 19.9791C120.645 21.9586 122.033 23.6505 123.815 24.8409C125.596 26.0313 127.691 26.6667 129.833 26.6667C132.517 26.6667 134.983 25.6833 136.883 24.05L137.333 24.5167V25.8333L145.667 34.15L148.15 31.6667L139.833 23.3333ZM129.833 23.3333C125.683 23.3333 122.333 19.9833 122.333 15.8333C122.333 11.6833 125.683 8.33334 129.833 8.33334C133.983 8.33334 137.333 11.6833 137.333 15.8333C137.333 19.9833 133.983 23.3333 129.833 23.3333Z" fill="white"/>
<path d="M16.6667 33.3333V23.3333H23.3334V33.3333H31.6667V20H36.6667L20 5L3.33337 20H8.33337V33.3333H16.6667Z" fill="white"/>
</svg>
