<svg width="144" height="31" viewBox="0 0 144 31" fill="none" xmlns="http://www.w3.org/2000/svg">
<path d="M31.725 26.165C30.905 26.165 30.145 26.02 29.445 25.73C28.745 25.43 28.07 24.98 27.42 24.38L28.125 23.54C28.755 24.13 29.345 24.55 29.895 24.8C30.455 25.05 31.075 25.175 31.755 25.175C32.295 25.175 32.775 25.085 33.195 24.905C33.625 24.715 33.96 24.46 34.2 24.14C34.44 23.82 34.56 23.455 34.56 23.045C34.56 22.515 34.385 22.115 34.035 21.845C33.685 21.565 33.08 21.35 32.22 21.2L30.525 20.915C29.565 20.745 28.86 20.455 28.41 20.045C27.97 19.625 27.75 19.065 27.75 18.365C27.75 17.775 27.9 17.255 28.2 16.805C28.51 16.345 28.935 15.985 29.475 15.725C30.015 15.465 30.64 15.335 31.35 15.335C32.13 15.335 32.855 15.445 33.525 15.665C34.195 15.875 34.855 16.21 35.505 16.67L34.905 17.57C34.365 17.16 33.795 16.85 33.195 16.64C32.595 16.42 31.985 16.31 31.365 16.31C30.875 16.31 30.44 16.395 30.06 16.565C29.69 16.735 29.395 16.965 29.175 17.255C28.965 17.545 28.86 17.875 28.86 18.245C28.86 18.705 29.015 19.065 29.325 19.325C29.635 19.585 30.14 19.77 30.84 19.88L32.52 20.165C33.64 20.365 34.45 20.69 34.95 21.14C35.46 21.58 35.715 22.195 35.715 22.985C35.715 23.595 35.54 24.14 35.19 24.62C34.85 25.1 34.38 25.48 33.78 25.76C33.18 26.03 32.495 26.165 31.725 26.165ZM37.6807 26V15.5H42.0157C42.6957 15.5 43.2857 15.63 43.7857 15.89C44.2857 16.14 44.6707 16.5 44.9407 16.97C45.2207 17.43 45.3607 17.975 45.3607 18.605C45.3607 19.225 45.2207 19.77 44.9407 20.24C44.6707 20.71 44.2857 21.075 43.7857 21.335C43.2857 21.585 42.6957 21.71 42.0157 21.71H38.8357V26H37.6807ZM38.8357 20.72H41.8807C42.6107 20.72 43.1807 20.53 43.5907 20.15C44.0007 19.77 44.2057 19.255 44.2057 18.605C44.2057 17.955 44.0007 17.445 43.5907 17.075C43.1807 16.705 42.6107 16.52 41.8807 16.52H38.8357V20.72ZM52.2352 26.165C51.5052 26.165 50.8252 26.03 50.1952 25.76C49.5652 25.48 49.0102 25.095 48.5302 24.605C48.0602 24.105 47.6902 23.53 47.4202 22.88C47.1502 22.22 47.0152 21.51 47.0152 20.75C47.0152 19.99 47.1502 19.285 47.4202 18.635C47.6902 17.975 48.0602 17.4 48.5302 16.91C49.0102 16.41 49.5652 16.025 50.1952 15.755C50.8252 15.475 51.5052 15.335 52.2352 15.335C52.9652 15.335 53.6452 15.475 54.2752 15.755C54.9052 16.025 55.4552 16.41 55.9252 16.91C56.4052 17.4 56.7802 17.975 57.0502 18.635C57.3202 19.285 57.4552 19.99 57.4552 20.75C57.4552 21.51 57.3202 22.22 57.0502 22.88C56.7802 23.53 56.4052 24.105 55.9252 24.605C55.4552 25.095 54.9052 25.48 54.2752 25.76C53.6452 26.03 52.9652 26.165 52.2352 26.165ZM52.2352 25.115C52.8052 25.115 53.3352 25.005 53.8252 24.785C54.3152 24.565 54.7452 24.255 55.1152 23.855C55.4852 23.455 55.7702 22.99 55.9702 22.46C56.1802 21.93 56.2852 21.36 56.2852 20.75C56.2852 20.13 56.1802 19.56 55.9702 19.04C55.7702 18.51 55.4852 18.045 55.1152 17.645C54.7452 17.245 54.3152 16.935 53.8252 16.715C53.3352 16.495 52.8052 16.385 52.2352 16.385C51.6652 16.385 51.1352 16.495 50.6452 16.715C50.1552 16.935 49.7252 17.245 49.3552 17.645C48.9852 18.045 48.6952 18.51 48.4852 19.04C48.2852 19.56 48.1852 20.125 48.1852 20.735C48.1852 21.355 48.2852 21.93 48.4852 22.46C48.6952 22.99 48.9852 23.455 49.3552 23.855C49.7252 24.255 50.1552 24.565 50.6452 24.785C51.1352 25.005 51.6652 25.115 52.2352 25.115ZM61.6799 26V16.52H58.0499V15.5H66.4649V16.52H62.8349V26H61.6799ZM68.2077 26V15.5H69.3627V26H68.2077ZM73.1716 24.965H75.5716C76.3316 24.965 77.0116 24.78 77.6116 24.41C78.2116 24.04 78.6866 23.54 79.0366 22.91C79.3966 22.27 79.5766 21.55 79.5766 20.75C79.5766 19.95 79.3966 19.235 79.0366 18.605C78.6866 17.965 78.2116 17.46 77.6116 17.09C77.0116 16.72 76.3316 16.535 75.5716 16.535H73.1716V24.965ZM72.0166 26V15.5H75.4966C76.2666 15.5 76.9716 15.635 77.6116 15.905C78.2616 16.165 78.8166 16.535 79.2766 17.015C79.7466 17.485 80.1066 18.04 80.3566 18.68C80.6166 19.31 80.7466 20 80.7466 20.75C80.7466 21.5 80.6166 22.195 80.3566 22.835C80.1066 23.465 79.7466 24.02 79.2766 24.5C78.8166 24.97 78.2616 25.34 77.6116 25.61C76.9716 25.87 76.2666 26 75.4966 26H72.0166ZM81.2756 26L85.4306 15.5H86.8106L90.9056 26H89.6606L88.4156 22.7H83.7356L82.4906 26H81.2756ZM84.0956 21.785H88.0706L86.0756 16.55L84.0956 21.785ZM93.533 24.965H95.933C96.693 24.965 97.373 24.78 97.973 24.41C98.573 24.04 99.048 23.54 99.398 22.91C99.758 22.27 99.938 21.55 99.938 20.75C99.938 19.95 99.758 19.235 99.398 18.605C99.048 17.965 98.573 17.46 97.973 17.09C97.373 16.72 96.693 16.535 95.933 16.535H93.533V24.965ZM92.378 26V15.5H95.858C96.628 15.5 97.333 15.635 97.973 15.905C98.623 16.165 99.178 16.535 99.638 17.015C100.108 17.485 100.468 18.04 100.718 18.68C100.978 19.31 101.108 20 101.108 20.75C101.108 21.5 100.978 22.195 100.718 22.835C100.468 23.465 100.108 24.02 99.638 24.5C99.178 24.97 98.623 25.34 97.973 25.61C97.333 25.87 96.628 26 95.858 26H92.378ZM108.031 26.165C107.301 26.165 106.621 26.03 105.991 25.76C105.361 25.48 104.806 25.095 104.326 24.605C103.856 24.105 103.486 23.53 103.216 22.88C102.946 22.22 102.811 21.51 102.811 20.75C102.811 19.99 102.946 19.285 103.216 18.635C103.486 17.975 103.856 17.4 104.326 16.91C104.806 16.41 105.361 16.025 105.991 15.755C106.621 15.475 107.301 15.335 108.031 15.335C108.761 15.335 109.441 15.475 110.071 15.755C110.701 16.025 111.251 16.41 111.721 16.91C112.201 17.4 112.576 17.975 112.846 18.635C113.116 19.285 113.251 19.99 113.251 20.75C113.251 21.51 113.116 22.22 112.846 22.88C112.576 23.53 112.201 24.105 111.721 24.605C111.251 25.095 110.701 25.48 110.071 25.76C109.441 26.03 108.761 26.165 108.031 26.165ZM108.031 25.115C108.601 25.115 109.131 25.005 109.621 24.785C110.111 24.565 110.541 24.255 110.911 23.855C111.281 23.455 111.566 22.99 111.766 22.46C111.976 21.93 112.081 21.36 112.081 20.75C112.081 20.13 111.976 19.56 111.766 19.04C111.566 18.51 111.281 18.045 110.911 17.645C110.541 17.245 110.111 16.935 109.621 16.715C109.131 16.495 108.601 16.385 108.031 16.385C107.461 16.385 106.931 16.495 106.441 16.715C105.951 16.935 105.521 17.245 105.151 17.645C104.781 18.045 104.491 18.51 104.281 19.04C104.081 19.56 103.981 20.125 103.981 20.735C103.981 21.355 104.081 21.93 104.281 22.46C104.491 22.99 104.781 23.455 105.151 23.855C105.521 24.255 105.951 24.565 106.441 24.785C106.931 25.005 107.461 25.115 108.031 25.115ZM118.825 26.165C118.005 26.165 117.245 26.02 116.545 25.73C115.845 25.43 115.17 24.98 114.52 24.38L115.225 23.54C115.855 24.13 116.445 24.55 116.995 24.8C117.555 25.05 118.175 25.175 118.855 25.175C119.395 25.175 119.875 25.085 120.295 24.905C120.725 24.715 121.06 24.46 121.3 24.14C121.54 23.82 121.66 23.455 121.66 23.045C121.66 22.515 121.485 22.115 121.135 21.845C120.785 21.565 120.18 21.35 119.32 21.2L117.625 20.915C116.665 20.745 115.96 20.455 115.51 20.045C115.07 19.625 114.85 19.065 114.85 18.365C114.85 17.775 115 17.255 115.3 16.805C115.61 16.345 116.035 15.985 116.575 15.725C117.115 15.465 117.74 15.335 118.45 15.335C119.23 15.335 119.955 15.445 120.625 15.665C121.295 15.875 121.955 16.21 122.605 16.67L122.005 17.57C121.465 17.16 120.895 16.85 120.295 16.64C119.695 16.42 119.085 16.31 118.465 16.31C117.975 16.31 117.54 16.395 117.16 16.565C116.79 16.735 116.495 16.965 116.275 17.255C116.065 17.545 115.96 17.875 115.96 18.245C115.96 18.705 116.115 19.065 116.425 19.325C116.735 19.585 117.24 19.77 117.94 19.88L119.62 20.165C120.74 20.365 121.55 20.69 122.05 21.14C122.56 21.58 122.815 22.195 122.815 22.985C122.815 23.595 122.64 24.14 122.29 24.62C121.95 25.1 121.48 25.48 120.88 25.76C120.28 26.03 119.595 26.165 118.825 26.165Z" fill="white"/>
<path d="M18 3L24 9V27H6V3H18ZM18 9H22.5L18 4.5V9ZM19.5 19.89V12.135C19.5009 12.0541 19.4854 11.9739 19.4544 11.8991C19.4235 11.8244 19.3778 11.7566 19.32 11.7C19.2705 11.643 19.2074 11.5995 19.1367 11.5732C19.0659 11.547 18.9897 11.539 18.915 11.55C18.915 11.55 12.96 12.615 12.54 12.72C12.105 12.81 12 13.2 12 13.5V18.555C11.7 18.42 11.37 18.45 11.1 18.45C10.53 18.45 10.05 18.645 9.66 19.035C9.27 19.44 9.06 19.905 9.06 20.475C9.06 21.03 9.27 21.51 9.66 21.9C10.05 22.305 10.53 22.5 11.1 22.5C11.61 22.5 12.15 22.44 12.54 22.11C12.93 21.765 13.5 21.135 13.5 20.43V15.45L18 14.55V18C16.995 17.7 16.245 18.06 15.84 18.465C15.45 18.855 15.255 19.335 15.255 19.89C15.255 20.46 15.45 20.925 15.84 21.33C16.245 21.72 16.905 21.915 17.46 21.915C18.03 21.915 18.51 21.72 18.9 21.33C19.29 20.925 19.5 20.46 19.5 19.89Z" fill="#5EBD9A" fill-opacity="0.7"/>
</svg>
