<svg width="199" height="30" viewBox="0 0 199 30" fill="none" xmlns="http://www.w3.org/2000/svg">
<mask id="path-1-outside-1_182_942" maskUnits="userSpaceOnUse" x="0" y="0" width="199" height="30" fill="black">
<rect fill="white" width="199" height="30"/>
<path d="M5.12 27L5.92 21.28H1.8V18.68H6.28L7.08 12.92H3V10.32H7.44L8.28 4.6H10.88L10.04 10.32H14.68L15.52 4.6H18.12L17.28 10.32H21.44V12.92H16.92L16.12 18.68H20.24V21.28H15.76L14.96 27H12.36L13.16 21.28H8.52L7.72 27H5.12ZM8.88 18.68H13.52L14.32 12.92H9.68L8.88 18.68ZM26.4822 28V1.52H39.1622C41.8822 1.52 44.0422 2.26666 45.6422 3.76C47.2689 5.25333 48.0822 7.26667 48.0822 9.8C48.0822 11.5067 47.7489 12.8667 47.0822 13.88C46.4422 14.8933 45.6289 15.6667 44.6422 16.2C43.6555 16.7067 42.6689 17.08 41.6822 17.32L48.6422 28H45.0822L38.6822 17.84H29.4822V28H26.4822ZM29.4822 15H38.6422C39.6022 15 40.5755 14.8533 41.5622 14.56C42.5489 14.2667 43.3755 13.7467 44.0422 13C44.7355 12.2267 45.0822 11.16 45.0822 9.8C45.0822 8.12 44.5089 6.8 43.3622 5.84C42.2155 4.85333 40.6955 4.36 38.8022 4.36H29.4822V15ZM50.12 28L61.36 1.52H65.12L76.36 28H73.04L69.8 20.32H56.68L53.44 28H50.12ZM57.84 17.56H68.64L63.24 4.64L57.84 17.56ZM79.7244 28V1.52H83.2044L99.5644 23.8V1.52H102.564V28H99.0844L82.7244 5.64V28H79.7244ZM109.06 28V1.52H112.06V15.32L126.78 1.52H131.02L119.74 12.16L131.66 28H127.9L117.54 14.2L112.06 19.32V28H109.06ZM134.685 28V1.52H137.685V28H134.685ZM144.178 28V1.52H147.658L164.018 23.8V1.52H167.018V28H163.537L147.178 5.64V28H144.178ZM184.793 28.32C182.1 28.32 179.78 27.72 177.833 26.52C175.913 25.2933 174.433 23.6533 173.393 21.6C172.353 19.5467 171.833 17.2667 171.833 14.76C171.833 12.2533 172.367 9.97333 173.433 7.92C174.5 5.86666 176.007 4.24 177.953 3.04C179.927 1.81333 182.233 1.2 184.873 1.2C187.727 1.2 190.193 1.90667 192.273 3.32C194.38 4.70667 195.927 6.50667 196.913 8.72H193.633C192.833 7.30667 191.713 6.18667 190.273 5.36C188.86 4.53333 187.14 4.12 185.113 4.12C182.98 4.12 181.14 4.6 179.593 5.56C178.047 6.49333 176.86 7.76 176.033 9.36C175.233 10.96 174.833 12.76 174.833 14.76C174.833 16.7333 175.233 18.5333 176.033 20.16C176.833 21.76 177.993 23.04 179.513 24C181.06 24.9333 182.9 25.4 185.033 25.4C186.633 25.4 188.14 25.0533 189.553 24.36C190.993 23.6667 192.153 22.6667 193.033 21.36C193.94 20.0533 194.393 18.48 194.393 16.64H184.713V13.92H197.153V28H194.393V23.32C193.833 24.1733 193.113 24.9867 192.233 25.76C191.353 26.5067 190.287 27.12 189.033 27.6C187.807 28.08 186.393 28.32 184.793 28.32Z"/>
</mask>
<path d="M5.12 27L5.92 21.28H1.8V18.68H6.28L7.08 12.92H3V10.32H7.44L8.28 4.6H10.88L10.04 10.32H14.68L15.52 4.6H18.12L17.28 10.32H21.44V12.92H16.92L16.12 18.68H20.24V21.28H15.76L14.96 27H12.36L13.16 21.28H8.52L7.72 27H5.12ZM8.88 18.68H13.52L14.32 12.92H9.68L8.88 18.68ZM26.4822 28V1.52H39.1622C41.8822 1.52 44.0422 2.26666 45.6422 3.76C47.2689 5.25333 48.0822 7.26667 48.0822 9.8C48.0822 11.5067 47.7489 12.8667 47.0822 13.88C46.4422 14.8933 45.6289 15.6667 44.6422 16.2C43.6555 16.7067 42.6689 17.08 41.6822 17.32L48.6422 28H45.0822L38.6822 17.84H29.4822V28H26.4822ZM29.4822 15H38.6422C39.6022 15 40.5755 14.8533 41.5622 14.56C42.5489 14.2667 43.3755 13.7467 44.0422 13C44.7355 12.2267 45.0822 11.16 45.0822 9.8C45.0822 8.12 44.5089 6.8 43.3622 5.84C42.2155 4.85333 40.6955 4.36 38.8022 4.36H29.4822V15ZM50.12 28L61.36 1.52H65.12L76.36 28H73.04L69.8 20.32H56.68L53.44 28H50.12ZM57.84 17.56H68.64L63.24 4.64L57.84 17.56ZM79.7244 28V1.52H83.2044L99.5644 23.8V1.52H102.564V28H99.0844L82.7244 5.64V28H79.7244ZM109.06 28V1.52H112.06V15.32L126.78 1.52H131.02L119.74 12.16L131.66 28H127.9L117.54 14.2L112.06 19.32V28H109.06ZM134.685 28V1.52H137.685V28H134.685ZM144.178 28V1.52H147.658L164.018 23.8V1.52H167.018V28H163.537L147.178 5.64V28H144.178ZM184.793 28.32C182.1 28.32 179.78 27.72 177.833 26.52C175.913 25.2933 174.433 23.6533 173.393 21.6C172.353 19.5467 171.833 17.2667 171.833 14.76C171.833 12.2533 172.367 9.97333 173.433 7.92C174.5 5.86666 176.007 4.24 177.953 3.04C179.927 1.81333 182.233 1.2 184.873 1.2C187.727 1.2 190.193 1.90667 192.273 3.32C194.38 4.70667 195.927 6.50667 196.913 8.72H193.633C192.833 7.30667 191.713 6.18667 190.273 5.36C188.86 4.53333 187.14 4.12 185.113 4.12C182.98 4.12 181.14 4.6 179.593 5.56C178.047 6.49333 176.86 7.76 176.033 9.36C175.233 10.96 174.833 12.76 174.833 14.76C174.833 16.7333 175.233 18.5333 176.033 20.16C176.833 21.76 177.993 23.04 179.513 24C181.06 24.9333 182.9 25.4 185.033 25.4C186.633 25.4 188.14 25.0533 189.553 24.36C190.993 23.6667 192.153 22.6667 193.033 21.36C193.94 20.0533 194.393 18.48 194.393 16.64H184.713V13.92H197.153V28H194.393V23.32C193.833 24.1733 193.113 24.9867 192.233 25.76C191.353 26.5067 190.287 27.12 189.033 27.6C187.807 28.08 186.393 28.32 184.793 28.32Z" fill="white"/>
<path d="M5.12 27L4.12964 26.8615L3.97041 28H5.12V27ZM5.92 21.28L6.91036 21.4185L7.06959 20.28H5.92V21.28ZM1.8 21.28H0.8V22.28H1.8V21.28ZM1.8 18.68V17.68H0.8V18.68H1.8ZM6.28 18.68V19.68H7.15071L7.27049 18.8176L6.28 18.68ZM7.08 12.92L8.07049 13.0576L8.22849 11.92H7.08V12.92ZM3 12.92H2V13.92H3V12.92ZM3 10.32V9.32H2V10.32H3ZM7.44 10.32V11.32H8.30387L8.42939 10.4653L7.44 10.32ZM8.28 4.6V3.6H7.41613L7.29061 4.4547L8.28 4.6ZM10.88 4.6L11.8694 4.74529L12.0376 3.6H10.88V4.6ZM10.04 10.32L9.05061 10.1747L8.88242 11.32H10.04V10.32ZM14.68 10.32V11.32H15.5439L15.6694 10.4653L14.68 10.32ZM15.52 4.6V3.6H14.6561L14.5306 4.4547L15.52 4.6ZM18.12 4.6L19.1094 4.74529L19.2776 3.6H18.12V4.6ZM17.28 10.32L16.2906 10.1747L16.1224 11.32H17.28V10.32ZM21.44 10.32H22.44V9.32H21.44V10.32ZM21.44 12.92V13.92H22.44V12.92H21.44ZM16.92 12.92V11.92H16.0493L15.9295 12.7824L16.92 12.92ZM16.12 18.68L15.1295 18.5424L14.9715 19.68H16.12V18.68ZM20.24 18.68H21.24V17.68H20.24V18.68ZM20.24 21.28V22.28H21.24V21.28H20.24ZM15.76 21.28V20.28H14.8901L14.7696 21.1415L15.76 21.28ZM14.96 27V28H15.8299L15.9504 27.1385L14.96 27ZM12.36 27L11.3696 26.8615L11.2104 28H12.36V27ZM13.16 21.28L14.1504 21.4185L14.3096 20.28H13.16V21.28ZM8.52 21.28V20.28H7.65013L7.52964 21.1415L8.52 21.28ZM7.72 27V28H8.58987L8.71036 27.1385L7.72 27ZM8.88 18.68L7.88951 18.5424L7.73151 19.68H8.88V18.68ZM13.52 18.68V19.68H14.3907L14.5105 18.8176L13.52 18.68ZM14.32 12.92L15.3105 13.0576L15.4685 11.92H14.32V12.92ZM9.68 12.92V11.92H8.80929L8.68951 12.7824L9.68 12.92ZM5.12 27L6.11036 27.1385L6.91036 21.4185L5.92 21.28L4.92964 21.1415L4.12964 26.8615L5.12 27ZM5.92 21.28V20.28H1.8V21.28V22.28H5.92V21.28ZM1.8 21.28H2.8V18.68H1.8H0.8V21.28H1.8ZM1.8 18.68V19.68H6.28V18.68V17.68H1.8V18.68ZM6.28 18.68L7.27049 18.8176L8.07049 13.0576L7.08 12.92L6.08951 12.7824L5.28951 18.5424L6.28 18.68ZM7.08 12.92V11.92H3V12.92V13.92H7.08V12.92ZM3 12.92H4V10.32H3H2V12.92H3ZM3 10.32V11.32H7.44V10.32V9.32H3V10.32ZM7.44 10.32L8.42939 10.4653L9.26939 4.74529L8.28 4.6L7.29061 4.4547L6.45061 10.1747L7.44 10.32ZM8.28 4.6V5.6H10.88V4.6V3.6H8.28V4.6ZM10.88 4.6L9.89061 4.4547L9.05061 10.1747L10.04 10.32L11.0294 10.4653L11.8694 4.74529L10.88 4.6ZM10.04 10.32V11.32H14.68V10.32V9.32H10.04V10.32ZM14.68 10.32L15.6694 10.4653L16.5094 4.74529L15.52 4.6L14.5306 4.4547L13.6906 10.1747L14.68 10.32ZM15.52 4.6V5.6H18.12V4.6V3.6H15.52V4.6ZM18.12 4.6L17.1306 4.4547L16.2906 10.1747L17.28 10.32L18.2694 10.4653L19.1094 4.74529L18.12 4.6ZM17.28 10.32V11.32H21.44V10.32V9.32H17.28V10.32ZM21.44 10.32H20.44V12.92H21.44H22.44V10.32H21.44ZM21.44 12.92V11.92H16.92V12.92V13.92H21.44V12.92ZM16.92 12.92L15.9295 12.7824L15.1295 18.5424L16.12 18.68L17.1105 18.8176L17.9105 13.0576L16.92 12.92ZM16.12 18.68V19.68H20.24V18.68V17.68H16.12V18.68ZM20.24 18.68H19.24V21.28H20.24H21.24V18.68H20.24ZM20.24 21.28V20.28H15.76V21.28V22.28H20.24V21.28ZM15.76 21.28L14.7696 21.1415L13.9696 26.8615L14.96 27L15.9504 27.1385L16.7504 21.4185L15.76 21.28ZM14.96 27V26H12.36V27V28H14.96V27ZM12.36 27L13.3504 27.1385L14.1504 21.4185L13.16 21.28L12.1696 21.1415L11.3696 26.8615L12.36 27ZM13.16 21.28V20.28H8.52V21.28V22.28H13.16V21.28ZM8.52 21.28L7.52964 21.1415L6.72964 26.8615L7.72 27L8.71036 27.1385L9.51036 21.4185L8.52 21.28ZM7.72 27V26H5.12V27V28H7.72V27ZM8.88 18.68V19.68H13.52V18.68V17.68H8.88V18.68ZM13.52 18.68L14.5105 18.8176L15.3105 13.0576L14.32 12.92L13.3295 12.7824L12.5295 18.5424L13.52 18.68ZM14.32 12.92V11.92H9.68V12.92V13.92H14.32V12.92ZM9.68 12.92L8.68951 12.7824L7.88951 18.5424L8.88 18.68L9.87049 18.8176L10.6705 13.0576L9.68 12.92ZM26.4822 28H25.4822V29H26.4822V28ZM26.4822 1.52V0.519998H25.4822V1.52H26.4822ZM45.6422 3.76L44.9598 4.49108L44.9659 4.49665L45.6422 3.76ZM47.0822 13.88L46.2468 13.3304L46.2417 13.3381L46.2367 13.346L47.0822 13.88ZM44.6422 16.2L45.099 17.0896L45.1084 17.0847L45.1177 17.0797L44.6422 16.2ZM41.6822 17.32L41.4458 16.3483L40.073 16.6823L40.8444 17.866L41.6822 17.32ZM48.6422 28V29H50.4875L49.48 27.454L48.6422 28ZM45.0822 28L44.2361 28.533L44.5302 29H45.0822V28ZM38.6822 17.84L39.5283 17.307L39.2341 16.84H38.6822V17.84ZM29.4822 17.84V16.84H28.4822V17.84H29.4822ZM29.4822 28V29H30.4822V28H29.4822ZM29.4822 15H28.4822V16H29.4822V15ZM41.5622 14.56L41.2772 13.6015L41.5622 14.56ZM44.0422 13L43.2976 12.3325L43.2962 12.334L44.0422 13ZM43.3622 5.84L42.7099 6.59808L42.7203 6.60676L43.3622 5.84ZM29.4822 4.36V3.36H28.4822V4.36H29.4822ZM26.4822 28H27.4822V1.52H26.4822H25.4822V28H26.4822ZM26.4822 1.52V2.52H39.1622V1.52V0.519998H26.4822V1.52ZM39.1622 1.52V2.52C41.6933 2.52 43.5873 3.20998 44.9599 4.49105L45.6422 3.76L46.3245 3.02894C44.4971 1.32335 42.0711 0.519998 39.1622 0.519998V1.52ZM45.6422 3.76L44.9659 4.49665C46.3551 5.77195 47.0822 7.50134 47.0822 9.8H48.0822H49.0822C49.0822 7.03199 48.1826 4.73472 46.3185 3.02335L45.6422 3.76ZM48.0822 9.8H47.0822C47.0822 11.3877 46.7707 12.5341 46.2468 13.3304L47.0822 13.88L47.9176 14.4296C48.7271 13.1993 49.0822 11.6257 49.0822 9.8H48.0822ZM47.0822 13.88L46.2367 13.346C45.6818 14.2245 44.9921 14.8741 44.1667 15.3203L44.6422 16.2L45.1177 17.0797C46.2657 16.4592 47.2025 15.5621 47.9277 14.414L47.0822 13.88ZM44.6422 16.2L44.1854 15.3104C43.2623 15.7844 42.3494 16.1286 41.4458 16.3483L41.6822 17.32L41.9185 18.2917C42.9883 18.0314 44.0487 17.6289 45.099 17.0896L44.6422 16.2ZM41.6822 17.32L40.8444 17.866L47.8044 28.546L48.6422 28L49.48 27.454L42.52 16.774L41.6822 17.32ZM48.6422 28V27H45.0822V28V29H48.6422V28ZM45.0822 28L45.9283 27.467L39.5283 17.307L38.6822 17.84L37.8361 18.373L44.2361 28.533L45.0822 28ZM38.6822 17.84V16.84H29.4822V17.84V18.84H38.6822V17.84ZM29.4822 17.84H28.4822V28H29.4822H30.4822V17.84H29.4822ZM29.4822 28V27H26.4822V28V29H29.4822V28ZM29.4822 15V16H38.6422V15V14H29.4822V15ZM38.6422 15V16C39.7054 16 40.7747 15.8374 41.8472 15.5185L41.5622 14.56L41.2772 13.6015C40.3764 13.8693 39.499 14 38.6422 14V15ZM41.5622 14.56L41.8472 15.5185C43.0063 15.1739 43.9943 14.5551 44.7881 13.666L44.0422 13L43.2962 12.334C42.7568 12.9382 42.0914 13.3594 41.2772 13.6015L41.5622 14.56ZM44.0422 13L44.7868 13.6675C45.6901 12.66 46.0822 11.3284 46.0822 9.8H45.0822H44.0822C44.0822 10.9916 43.781 11.7934 43.2976 12.3325L44.0422 13ZM45.0822 9.8H46.0822C46.0822 7.8651 45.4075 6.24812 44.0041 5.07324L43.3622 5.84L42.7203 6.60676C43.6103 7.35188 44.0822 8.3749 44.0822 9.8H45.0822ZM43.3622 5.84L44.0144 5.08199C42.6442 3.90292 40.8727 3.36 38.8022 3.36V4.36V5.36C40.5183 5.36 41.7869 5.80375 42.7099 6.59801L43.3622 5.84ZM38.8022 4.36V3.36H29.4822V4.36V5.36H38.8022V4.36ZM29.4822 4.36H28.4822V15H29.4822H30.4822V4.36H29.4822ZM50.12 28L49.1995 27.6093L48.6092 29H50.12V28ZM61.36 1.52V0.519998H60.6981L60.4395 1.12927L61.36 1.52ZM65.12 1.52L66.0405 1.12927L65.7819 0.519998H65.12V1.52ZM76.36 28V29H77.8708L77.2805 27.6093L76.36 28ZM73.04 28L72.1186 28.3887L72.3765 29H73.04V28ZM69.8 20.32L70.7214 19.9313L70.4635 19.32H69.8V20.32ZM56.68 20.32V19.32H56.0165L55.7586 19.9313L56.68 20.32ZM53.44 28V29H54.1035L54.3614 28.3887L53.44 28ZM57.84 17.56L56.9173 17.1744L56.3382 18.56H57.84V17.56ZM68.64 17.56V18.56H70.1418L69.5627 17.1744L68.64 17.56ZM63.24 4.64L64.1627 4.25437L63.24 2.04683L62.3173 4.25437L63.24 4.64ZM50.12 28L51.0405 28.3907L62.2805 1.91073L61.36 1.52L60.4395 1.12927L49.1995 27.6093L50.12 28ZM61.36 1.52V2.52H65.12V1.52V0.519998H61.36V1.52ZM65.12 1.52L64.1995 1.91073L75.4395 28.3907L76.36 28L77.2805 27.6093L66.0405 1.12927L65.12 1.52ZM76.36 28V27H73.04V28V29H76.36V28ZM73.04 28L73.9614 27.6113L70.7214 19.9313L69.8 20.32L68.8786 20.7087L72.1186 28.3887L73.04 28ZM69.8 20.32V19.32H56.68V20.32V21.32H69.8V20.32ZM56.68 20.32L55.7586 19.9313L52.5186 27.6113L53.44 28L54.3614 28.3887L57.6014 20.7087L56.68 20.32ZM53.44 28V27H50.12V28V29H53.44V28ZM57.84 17.56V18.56H68.64V17.56V16.56H57.84V17.56ZM68.64 17.56L69.5627 17.1744L64.1627 4.25437L63.24 4.64L62.3173 5.02563L67.7173 17.9456L68.64 17.56ZM63.24 4.64L62.3173 4.25437L56.9173 17.1744L57.84 17.56L58.7627 17.9456L64.1627 5.02563L63.24 4.64ZM79.7244 28H78.7244V29H79.7244V28ZM79.7244 1.52V0.519998H78.7244V1.52H79.7244ZM83.2044 1.52L84.0104 0.928132L83.7107 0.519998H83.2044V1.52ZM99.5644 23.8L98.7583 24.3919L100.564 26.8514V23.8H99.5644ZM99.5644 1.52V0.519998H98.5644V1.52H99.5644ZM102.564 1.52H103.564V0.519998H102.564V1.52ZM102.564 28V29H103.564V28H102.564ZM99.0844 28L98.2773 28.5905L98.577 29H99.0844V28ZM82.7244 5.64L83.5314 5.04951L81.7244 2.57973V5.64H82.7244ZM82.7244 28V29H83.7244V28H82.7244ZM79.7244 28H80.7244V1.52H79.7244H78.7244V28H79.7244ZM79.7244 1.52V2.52H83.2044V1.52V0.519998H79.7244V1.52ZM83.2044 1.52L82.3983 2.11186L98.7583 24.3919L99.5644 23.8L100.37 23.2081L84.0104 0.928132L83.2044 1.52ZM99.5644 23.8H100.564V1.52H99.5644H98.5644V23.8H99.5644ZM99.5644 1.52V2.52H102.564V1.52V0.519998H99.5644V1.52ZM102.564 1.52H101.564V28H102.564H103.564V1.52H102.564ZM102.564 28V27H99.0844V28V29H102.564V28ZM99.0844 28L99.8914 27.4095L83.5314 5.04951L82.7244 5.64L81.9173 6.23049L98.2773 28.5905L99.0844 28ZM82.7244 5.64H81.7244V28H82.7244H83.7244V5.64H82.7244ZM82.7244 28V27H79.7244V28V29H82.7244V28ZM109.06 28H108.06V29H109.06V28ZM109.06 1.52V0.519998H108.06V1.52H109.06ZM112.06 1.52H113.06V0.519998H112.06V1.52ZM112.06 15.32H111.06V17.6282L112.744 16.0495L112.06 15.32ZM126.78 1.52V0.519998H126.385L126.096 0.790461L126.78 1.52ZM131.02 1.52L131.706 2.24744L133.538 0.519998H131.02V1.52ZM119.74 12.16L119.054 11.4326L118.403 12.0464L118.941 12.7613L119.74 12.16ZM131.66 28V29H133.664L132.459 27.3987L131.66 28ZM127.9 28L127.101 28.6004L127.401 29H127.9V28ZM117.54 14.2L118.34 13.5996L117.671 12.709L116.858 13.4693L117.54 14.2ZM112.06 19.32L111.378 18.5893L111.06 18.8858V19.32H112.06ZM112.06 28V29H113.06V28H112.06ZM109.06 28H110.06V1.52H109.06H108.06V28H109.06ZM109.06 1.52V2.52H112.06V1.52V0.519998H109.06V1.52ZM112.06 1.52H111.06V15.32H112.06H113.06V1.52H112.06ZM112.06 15.32L112.744 16.0495L127.464 2.24953L126.78 1.52L126.096 0.790461L111.376 14.5905L112.06 15.32ZM126.78 1.52V2.52H131.02V1.52V0.519998H126.78V1.52ZM131.02 1.52L130.334 0.792555L119.054 11.4326L119.74 12.16L120.426 12.8874L131.706 2.24744L131.02 1.52ZM119.74 12.16L118.941 12.7613L130.861 28.6013L131.66 28L132.459 27.3987L120.539 11.5587L119.74 12.16ZM131.66 28V27H127.9V28V29H131.66V28ZM127.9 28L128.7 27.3996L118.34 13.5996L117.54 14.2L116.741 14.8004L127.101 28.6004L127.9 28ZM117.54 14.2L116.858 13.4693L111.378 18.5893L112.06 19.32L112.743 20.0507L118.223 14.9307L117.54 14.2ZM112.06 19.32H111.06V28H112.06H113.06V19.32H112.06ZM112.06 28V27H109.06V28V29H112.06V28ZM134.685 28H133.685V29H134.685V28ZM134.685 1.52V0.519998H133.685V1.52H134.685ZM137.685 1.52H138.685V0.519998H137.685V1.52ZM137.685 28V29H138.685V28H137.685ZM134.685 28H135.685V1.52H134.685H133.685V28H134.685ZM134.685 1.52V2.52H137.685V1.52V0.519998H134.685V1.52ZM137.685 1.52H136.685V28H137.685H138.685V1.52H137.685ZM137.685 28V27H134.685V28V29H137.685V28ZM144.178 28H143.178V29H144.178V28ZM144.178 1.52V0.519998H143.178V1.52H144.178ZM147.658 1.52L148.464 0.928132L148.164 0.519998H147.658V1.52ZM164.018 23.8L163.211 24.3919L165.018 26.8514V23.8H164.018ZM164.018 1.52V0.519998H163.018V1.52H164.018ZM167.018 1.52H168.018V0.519998H167.018V1.52ZM167.018 28V29H168.018V28H167.018ZM163.538 28L162.73 28.5905L163.03 29H163.538V28ZM147.178 5.64L147.985 5.04951L146.178 2.57973V5.64H147.178ZM147.178 28V29H148.178V28H147.178ZM144.178 28H145.178V1.52H144.178H143.178V28H144.178ZM144.178 1.52V2.52H147.658V1.52V0.519998H144.178V1.52ZM147.658 1.52L146.851 2.11186L163.211 24.3919L164.018 23.8L164.824 23.2081L148.464 0.928132L147.658 1.52ZM164.018 23.8H165.018V1.52H164.018H163.018V23.8H164.018ZM164.018 1.52V2.52H167.018V1.52V0.519998H164.018V1.52ZM167.018 1.52H166.018V28H167.018H168.018V1.52H167.018ZM167.018 28V27H163.538V28V29H167.018V28ZM163.538 28L164.345 27.4095L147.985 5.04951L147.178 5.64L146.37 6.23049L162.73 28.5905L163.538 28ZM147.178 5.64H146.178V28H147.178H148.178V5.64H147.178ZM147.178 28V27H144.178V28V29H147.178V28ZM177.833 26.52L177.295 27.3627L177.302 27.367L177.309 27.3713L177.833 26.52ZM173.393 21.6L172.501 22.0518L173.393 21.6ZM173.433 7.92L174.321 8.38099L173.433 7.92ZM177.953 3.04L178.478 3.89126L178.481 3.88929L177.953 3.04ZM192.273 3.32L191.711 4.14712L191.717 4.15125L191.724 4.15529L192.273 3.32ZM196.913 8.72V9.72H198.454L197.827 8.31284L196.913 8.72ZM193.633 8.72L192.763 9.2126L193.05 9.72H193.633V8.72ZM190.273 5.36L189.769 6.22321L189.776 6.22725L190.273 5.36ZM179.593 5.56L180.11 6.41625L180.121 6.40964L179.593 5.56ZM176.033 9.36L175.145 8.90094L175.139 8.91279L176.033 9.36ZM176.033 20.16L175.136 20.6013L175.139 20.6072L176.033 20.16ZM179.513 24L178.979 24.8455L178.988 24.8509L178.997 24.8562L179.513 24ZM189.553 24.36L189.12 23.459L189.113 23.4622L189.553 24.36ZM193.033 21.36L192.212 20.7899L192.204 20.8014L193.033 21.36ZM194.393 16.64H195.393V15.64H194.393V16.64ZM184.713 16.64H183.713V17.64H184.713V16.64ZM184.713 13.92V12.92H183.713V13.92H184.713ZM197.153 13.92H198.153V12.92H197.153V13.92ZM197.153 28V29H198.153V28H197.153ZM194.393 28H193.393V29H194.393V28ZM194.393 23.32H195.393V19.9736L193.557 22.7713L194.393 23.32ZM192.233 25.76L192.88 26.5225L192.887 26.5169L192.894 26.5112L192.233 25.76ZM189.033 27.6L188.676 26.6661L188.669 26.6688L189.033 27.6ZM184.793 28.32V27.32C182.252 27.32 180.121 26.7554 178.358 25.6687L177.833 26.52L177.309 27.3713C179.439 28.6846 181.948 29.32 184.793 29.32V28.32ZM177.833 26.52L178.372 25.6773C176.604 24.548 175.246 23.0436 174.286 21.1482L173.393 21.6L172.501 22.0518C173.621 24.263 175.223 26.0387 177.295 27.3627L177.833 26.52ZM173.393 21.6L174.286 21.1482C173.323 19.2471 172.833 17.1239 172.833 14.76H171.833H170.833C170.833 17.4094 171.384 19.8463 172.501 22.0518L173.393 21.6ZM171.833 14.76H172.833C172.833 12.4001 173.334 10.2803 174.321 8.38099L173.433 7.92L172.546 7.45901C171.399 9.66641 170.833 12.1065 170.833 14.76H171.833ZM173.433 7.92L174.321 8.38099C175.305 6.48614 176.687 4.99518 178.478 3.89126L177.953 3.04L177.429 2.18874C175.326 3.48482 173.695 5.24719 172.546 7.45901L173.433 7.92ZM177.953 3.04L178.481 3.88929C180.275 2.77402 182.394 2.2 184.873 2.2V1.2V0.199999C182.073 0.199999 179.578 0.852641 177.426 2.19071L177.953 3.04ZM184.873 1.2V2.2C187.554 2.2 189.819 2.86116 191.711 4.14712L192.273 3.32L192.835 2.49287C190.568 0.952167 187.899 0.199999 184.873 0.199999V1.2ZM192.273 3.32L191.724 4.15529C193.678 5.44141 195.094 7.09568 196 9.12716L196.913 8.72L197.827 8.31284C196.759 5.91765 195.083 3.97192 192.823 2.48471L192.273 3.32ZM196.913 8.72V7.72H193.633V8.72V9.72H196.913V8.72ZM193.633 8.72L194.504 8.2274C193.613 6.65443 192.363 5.40656 190.771 4.49275L190.273 5.36L189.776 6.22725C191.064 6.96677 192.054 7.9589 192.763 9.2126L193.633 8.72ZM190.273 5.36L190.778 4.49681C189.179 3.56154 187.276 3.12 185.113 3.12V4.12V5.12C187.005 5.12 188.541 5.50512 189.769 6.22319L190.273 5.36ZM185.113 4.12V3.12C182.826 3.12 180.797 3.63623 179.066 4.71036L179.593 5.56L180.121 6.40964C181.484 5.56377 183.134 5.12 185.113 5.12V4.12ZM179.593 5.56L179.077 4.70381C177.372 5.73233 176.057 7.13625 175.145 8.90098L176.033 9.36L176.922 9.81902C177.663 8.38375 178.721 7.25434 180.11 6.41619L179.593 5.56ZM176.033 9.36L175.139 8.91279C174.262 10.6673 173.833 12.6233 173.833 14.76H174.833H175.833C175.833 12.8967 176.205 11.2527 176.928 9.80721L176.033 9.36ZM174.833 14.76H173.833C173.833 16.8726 174.263 18.8255 175.136 20.6013L176.033 20.16L176.931 19.7187C176.204 18.2412 175.833 16.5941 175.833 14.76H174.833ZM176.033 20.16L175.139 20.6072C176.021 22.3712 177.306 23.7886 178.979 24.8455L179.513 24L180.047 23.1545C178.681 22.2914 177.646 21.1488 176.928 19.7128L176.033 20.16ZM179.513 24L178.997 24.8562C180.726 25.8994 182.751 26.4 185.033 26.4V25.4V24.4C183.049 24.4 181.395 23.9672 180.03 23.1438L179.513 24ZM185.033 25.4V26.4C186.784 26.4 188.441 26.0195 189.994 25.2578L189.553 24.36L189.113 23.4622C187.839 24.0872 186.483 24.4 185.033 24.4V25.4ZM189.553 24.36L189.987 25.261C191.585 24.4918 192.882 23.3747 193.863 21.9186L193.033 21.36L192.204 20.8014C191.425 21.9586 190.402 22.8415 189.12 23.459L189.553 24.36ZM193.033 21.36L193.855 21.9301C194.895 20.4308 195.393 18.6508 195.393 16.64H194.393H193.393C193.393 18.3092 192.985 19.6758 192.212 20.7899L193.033 21.36ZM194.393 16.64V15.64H184.713V16.64V17.64H194.393V16.64ZM184.713 16.64H185.713V13.92H184.713H183.713V16.64H184.713ZM184.713 13.92V14.92H197.153V13.92V12.92H184.713V13.92ZM197.153 13.92H196.153V28H197.153H198.153V13.92H197.153ZM197.153 28V27H194.393V28V29H197.153V28ZM194.393 28H195.393V23.32H194.393H193.393V28H194.393ZM194.393 23.32L193.557 22.7713C193.053 23.5395 192.396 24.2862 191.573 25.0088L192.233 25.76L192.894 26.5112C193.831 25.6871 194.614 24.8072 195.229 23.8687L194.393 23.32ZM192.233 25.76L191.586 24.9975C190.805 25.6603 189.841 26.2201 188.676 26.6661L189.033 27.6L189.391 28.5339C190.733 28.0199 191.902 27.353 192.88 26.5225L192.233 25.76ZM189.033 27.6L188.669 26.6688C187.58 27.0947 186.295 27.32 184.793 27.32V28.32V29.32C186.492 29.32 188.033 29.0653 189.398 28.5312L189.033 27.6Z" fill="#DB8CFD" mask="url(#path-1-outside-1_182_942)"/>
</svg>
