<svg width="264" height="71" viewBox="0 0 264 71" fill="none" xmlns="http://www.w3.org/2000/svg">
<mask id="path-1-outside-1_180_93" maskUnits="userSpaceOnUse" x="0" y="0" width="264" height="71" fill="black">
<rect fill="white" width="264" height="71"/>
<path d="M5.12 27L5.92 21.28H1.8V18.68H6.28L7.08 12.92H3V10.32H7.44L8.28 4.6H10.88L10.04 10.32H14.68L15.52 4.6H18.12L17.28 10.32H21.44V12.92H16.92L16.12 18.68H20.24V21.28H15.76L14.96 27H12.36L13.16 21.28H8.52L7.72 27H5.12ZM8.88 18.68H13.52L14.32 12.92H9.68L8.88 18.68ZM33.0422 28V4.36H23.8022V1.52H45.2822V4.36H36.0422V28H33.0422ZM60.0194 28.32C57.8327 28.32 55.886 27.84 54.1794 26.88C52.4994 25.8933 51.1794 24.52 50.2194 22.76C49.2594 21 48.7794 18.9467 48.7794 16.6V1.52H51.7794V16.68C51.7794 18.7333 52.166 20.4 52.9394 21.68C53.7394 22.96 54.766 23.9067 56.0194 24.52C57.2994 25.1067 58.6327 25.4 60.0194 25.4C61.4327 25.4 62.766 25.1067 64.0194 24.52C65.2727 23.9067 66.2994 22.96 67.0994 21.68C67.8994 20.4 68.2994 18.7333 68.2994 16.68V1.52H71.2994V16.6C71.2994 18.92 70.8194 20.96 69.8594 22.72C68.8994 24.48 67.566 25.8533 65.8594 26.84C64.1794 27.8267 62.2327 28.32 60.0194 28.32ZM77.4588 28V1.52H88.6188C90.1921 1.52 91.6988 1.82666 93.1388 2.44C94.6054 3.02666 95.9121 3.89333 97.0588 5.04C98.2054 6.18667 99.1121 7.57333 99.7788 9.2C100.445 10.8267 100.779 12.68 100.779 14.76C100.779 16.84 100.445 18.6933 99.7788 20.32C99.1121 21.9467 98.2054 23.3333 97.0588 24.48C95.9121 25.6267 94.6054 26.5067 93.1388 27.12C91.6988 27.7067 90.1921 28 88.6188 28H77.4588ZM80.4588 25.16H88.4988C90.3921 25.16 92.0321 24.68 93.4188 23.72C94.8054 22.76 95.8721 21.4933 96.6188 19.92C97.3921 18.3467 97.7788 16.6267 97.7788 14.76C97.7788 12.8667 97.3921 11.1333 96.6188 9.56C95.8721 7.98667 94.8054 6.73333 93.4188 5.8C92.0321 4.84 90.3921 4.36 88.4988 4.36H80.4588V25.16ZM117.344 28.32C115.344 28.32 113.517 27.9733 111.864 27.28C110.21 26.5867 108.784 25.6133 107.584 24.36C106.41 23.1067 105.504 21.6667 104.864 20.04C104.224 18.3867 103.904 16.6267 103.904 14.76C103.904 12.8667 104.224 11.1067 104.864 9.48C105.504 7.85333 106.41 6.41333 107.584 5.16C108.784 3.90667 110.21 2.93333 111.864 2.24C113.517 1.54667 115.344 1.2 117.344 1.2C119.344 1.2 121.17 1.54667 122.824 2.24C124.477 2.93333 125.89 3.90667 127.064 5.16C128.264 6.41333 129.184 7.85333 129.824 9.48C130.464 11.1067 130.784 12.8667 130.784 14.76C130.784 16.6267 130.464 18.3867 129.824 20.04C129.184 21.6667 128.264 23.1067 127.064 24.36C125.89 25.6133 124.477 26.5867 122.824 27.28C121.17 27.9733 119.344 28.32 117.344 28.32ZM117.344 25.4C119.504 25.4 121.357 24.9333 122.904 24C124.477 23.04 125.677 21.76 126.504 20.16C127.357 18.5333 127.784 16.7333 127.784 14.76C127.784 12.76 127.357 10.96 126.504 9.36C125.677 7.76 124.477 6.49333 122.904 5.56C121.357 4.6 119.504 4.12 117.344 4.12C115.21 4.12 113.357 4.6 111.784 5.56C110.21 6.49333 108.997 7.76 108.144 9.36C107.317 10.96 106.904 12.76 106.904 14.76C106.904 16.7333 107.317 18.5333 108.144 20.16C108.997 21.76 110.21 23.04 111.784 24C113.357 24.9333 115.21 25.4 117.344 25.4ZM145.064 28.32C142.45 28.32 140.33 27.9733 138.704 27.28C137.077 26.56 135.85 25.5733 135.024 24.32C134.224 23.0667 133.757 21.6533 133.624 20.08H136.744C136.824 21.36 137.25 22.4 138.024 23.2C138.797 23.9733 139.81 24.5467 141.064 24.92C142.344 25.2933 143.744 25.48 145.264 25.48C147.504 25.48 149.277 25.0933 150.584 24.32C151.89 23.52 152.544 22.3467 152.544 20.8C152.544 19.8667 152.21 19.12 151.544 18.56C150.904 17.9733 150.037 17.4933 148.944 17.12C147.877 16.7467 146.704 16.4133 145.424 16.12C144.144 15.8 142.85 15.4667 141.544 15.12C140.264 14.7733 139.077 14.3333 137.984 13.8C136.917 13.2667 136.05 12.5867 135.384 11.76C134.744 10.9067 134.424 9.82667 134.424 8.52C134.424 6.36 135.25 4.6 136.904 3.24C138.584 1.88 141.077 1.2 144.384 1.2C146.73 1.2 148.664 1.56 150.184 2.28C151.704 2.97333 152.837 3.89333 153.584 5.04C154.357 6.18667 154.784 7.42667 154.864 8.76H151.784C151.624 7.42667 150.957 6.30667 149.784 5.4C148.61 4.46667 146.81 4 144.384 4C142.89 4 141.677 4.14667 140.744 4.44C139.81 4.73333 139.09 5.12 138.584 5.6C138.104 6.05333 137.77 6.53333 137.584 7.04C137.424 7.54667 137.344 8.02667 137.344 8.48C137.344 9.36 137.664 10.08 138.304 10.64C138.97 11.1733 139.837 11.6267 140.904 12C141.997 12.3467 143.197 12.6667 144.504 12.96C145.81 13.2533 147.104 13.5867 148.384 13.96C149.69 14.3067 150.877 14.76 151.944 15.32C153.037 15.8533 153.904 16.5467 154.544 17.4C155.21 18.2533 155.544 19.3467 155.544 20.68C155.544 23.1333 154.61 25.0267 152.744 26.36C150.877 27.6667 148.317 28.32 145.064 28.32ZM171.953 28.32C169.953 28.32 168.126 27.9733 166.473 27.28C164.82 26.5867 163.393 25.6133 162.193 24.36C161.02 23.1067 160.113 21.6667 159.473 20.04C158.833 18.3867 158.513 16.6267 158.513 14.76C158.513 12.8667 158.833 11.1067 159.473 9.48C160.113 7.85333 161.02 6.41333 162.193 5.16C163.393 3.90667 164.82 2.93333 166.473 2.24C168.126 1.54667 169.953 1.2 171.953 1.2C173.953 1.2 175.78 1.54667 177.433 2.24C179.086 2.93333 180.5 3.90667 181.673 5.16C182.873 6.41333 183.793 7.85333 184.433 9.48C185.073 11.1067 185.393 12.8667 185.393 14.76C185.393 16.6267 185.073 18.3867 184.433 20.04C183.793 21.6667 182.873 23.1067 181.673 24.36C180.5 25.6133 179.086 26.5867 177.433 27.28C175.78 27.9733 173.953 28.32 171.953 28.32ZM171.953 25.4C174.113 25.4 175.966 24.9333 177.513 24C179.086 23.04 180.286 21.76 181.113 20.16C181.966 18.5333 182.393 16.7333 182.393 14.76C182.393 12.76 181.966 10.96 181.113 9.36C180.286 7.76 179.086 6.49333 177.513 5.56C175.966 4.6 174.113 4.12 171.953 4.12C169.82 4.12 167.966 4.6 166.393 5.56C164.82 6.49333 163.606 7.76 162.753 9.36C161.926 10.96 161.513 12.76 161.513 14.76C161.513 16.7333 161.926 18.5333 162.753 20.16C163.606 21.76 164.82 23.04 166.393 24C167.966 24.9333 169.82 25.4 171.953 25.4ZM190.193 28V1.52H202.073C204.153 1.52 205.793 1.88 206.993 2.6C208.22 3.32 209.1 4.22667 209.633 5.32C210.166 6.38667 210.433 7.45333 210.433 8.52C210.433 10.2267 210.073 11.5467 209.353 12.48C208.633 13.3867 207.806 14.0533 206.873 14.48C207.62 14.72 208.366 15.1067 209.113 15.64C209.886 16.1467 210.526 16.84 211.033 17.72C211.54 18.6 211.793 19.7067 211.793 21.04C211.793 23.0133 211.033 24.6667 209.513 26C208.02 27.3333 205.766 28 202.753 28H190.193ZM193.193 13.36H202.073C203.006 13.36 203.873 13.2 204.673 12.88C205.5 12.56 206.166 12.0667 206.673 11.4C207.18 10.7067 207.433 9.82667 207.433 8.76C207.433 8.01333 207.26 7.30667 206.913 6.64C206.593 5.97333 206.06 5.42667 205.313 5C204.593 4.57333 203.62 4.36 202.393 4.36H193.193V13.36ZM193.193 25.16H203.073C204.886 25.16 206.286 24.7867 207.273 24.04C208.286 23.2667 208.793 22.1867 208.793 20.8C208.793 19.5467 208.313 18.4533 207.353 17.52C206.393 16.56 204.86 16.08 202.753 16.08H193.193V25.16ZM216.678 28V1.52H229.358C232.078 1.52 234.238 2.26666 235.838 3.76C237.464 5.25333 238.278 7.26667 238.278 9.8C238.278 11.5067 237.944 12.8667 237.278 13.88C236.638 14.8933 235.824 15.6667 234.838 16.2C233.851 16.7067 232.864 17.08 231.878 17.32L238.838 28H235.278L228.878 17.84H219.678V28H216.678ZM219.678 15H228.838C229.798 15 230.771 14.8533 231.758 14.56C232.744 14.2667 233.571 13.7467 234.238 13C234.931 12.2267 235.278 11.16 235.278 9.8C235.278 8.12 234.704 6.8 233.558 5.84C232.411 4.85333 230.891 4.36 228.998 4.36H219.678V15ZM243.435 28V1.52H262.915V4.4H246.435V13.28H261.155V16.2H246.435V25.12H262.915V28H243.435ZM12.72 69.32C10.1067 69.32 7.98667 68.9733 6.36 68.28C4.73333 67.56 3.50667 66.5733 2.68 65.32C1.88 64.0667 1.41333 62.6533 1.28 61.08H4.4C4.48 62.36 4.90667 63.4 5.68 64.2C6.45333 64.9733 7.46667 65.5467 8.72 65.92C10 66.2933 11.4 66.48 12.92 66.48C15.16 66.48 16.9333 66.0933 18.24 65.32C19.5467 64.52 20.2 63.3467 20.2 61.8C20.2 60.8667 19.8667 60.12 19.2 59.56C18.56 58.9733 17.6933 58.4933 16.6 58.12C15.5333 57.7467 14.36 57.4133 13.08 57.12C11.8 56.8 10.5067 56.4667 9.2 56.12C7.92 55.7733 6.73333 55.3333 5.64 54.8C4.57333 54.2667 3.70667 53.5867 3.04 52.76C2.4 51.9067 2.08 50.8267 2.08 49.52C2.08 47.36 2.90667 45.6 4.56 44.24C6.24 42.88 8.73333 42.2 12.04 42.2C14.3867 42.2 16.32 42.56 17.84 43.28C19.36 43.9733 20.4933 44.8933 21.24 46.04C22.0133 47.1867 22.44 48.4267 22.52 49.76H19.44C19.28 48.4267 18.6133 47.3067 17.44 46.4C16.2667 45.4667 14.4667 45 12.04 45C10.5467 45 9.33333 45.1467 8.4 45.44C7.46667 45.7333 6.74667 46.12 6.24 46.6C5.76 47.0533 5.42667 47.5333 5.24 48.04C5.08 48.5467 5 49.0267 5 49.48C5 50.36 5.32 51.08 5.96 51.64C6.62667 52.1733 7.49333 52.6267 8.56 53C9.65333 53.3467 10.8533 53.6667 12.16 53.96C13.4667 54.2533 14.76 54.5867 16.04 54.96C17.3467 55.3067 18.5333 55.76 19.6 56.32C20.6933 56.8533 21.56 57.5467 22.2 58.4C22.8667 59.2533 23.2 60.3467 23.2 61.68C23.2 64.1333 22.2667 66.0267 20.4 67.36C18.5333 68.6667 15.9733 69.32 12.72 69.32ZM27.8494 69V42.52H47.3294V45.4H30.8494V54.28H45.5694V57.2H30.8494V66.12H47.3294V69H27.8494ZM63.1053 69.32C60.9186 69.32 58.972 68.84 57.2653 67.88C55.5853 66.8933 54.2653 65.52 53.3053 63.76C52.3453 62 51.8653 59.9467 51.8653 57.6V42.52H54.8653V57.68C54.8653 59.7333 55.252 61.4 56.0253 62.68C56.8253 63.96 57.852 64.9067 59.1053 65.52C60.3853 66.1067 61.7186 66.4 63.1053 66.4C64.5186 66.4 65.852 66.1067 67.1053 65.52C68.3586 64.9067 69.3853 63.96 70.1853 62.68C70.9853 61.4 71.3853 59.7333 71.3853 57.68V42.52H74.3853V57.6C74.3853 59.92 73.9053 61.96 72.9453 63.72C71.9853 65.48 70.652 66.8533 68.9453 67.84C67.2653 68.8267 65.3186 69.32 63.1053 69.32ZM90.0247 69.32C87.4114 69.32 85.2914 68.9733 83.6647 68.28C82.038 67.56 80.8114 66.5733 79.9847 65.32C79.1847 64.0667 78.718 62.6533 78.5847 61.08H81.7047C81.7847 62.36 82.2114 63.4 82.9847 64.2C83.758 64.9733 84.7714 65.5467 86.0247 65.92C87.3047 66.2933 88.7047 66.48 90.2247 66.48C92.4647 66.48 94.238 66.0933 95.5447 65.32C96.8514 64.52 97.5047 63.3467 97.5047 61.8C97.5047 60.8667 97.1714 60.12 96.5047 59.56C95.8647 58.9733 94.998 58.4933 93.9047 58.12C92.838 57.7467 91.6647 57.4133 90.3847 57.12C89.1047 56.8 87.8114 56.4667 86.5047 56.12C85.2247 55.7733 84.038 55.3333 82.9447 54.8C81.878 54.2667 81.0114 53.5867 80.3447 52.76C79.7047 51.9067 79.3847 50.8267 79.3847 49.52C79.3847 47.36 80.2114 45.6 81.8647 44.24C83.5447 42.88 86.038 42.2 89.3447 42.2C91.6914 42.2 93.6247 42.56 95.1447 43.28C96.6647 43.9733 97.798 44.8933 98.5447 46.04C99.318 47.1867 99.7447 48.4267 99.8247 49.76H96.7447C96.5847 48.4267 95.918 47.3067 94.7447 46.4C93.5714 45.4667 91.7714 45 89.3447 45C87.8514 45 86.638 45.1467 85.7047 45.44C84.7714 45.7333 84.0514 46.12 83.5447 46.6C83.0647 47.0533 82.7314 47.5333 82.5447 48.04C82.3847 48.5467 82.3047 49.0267 82.3047 49.48C82.3047 50.36 82.6247 51.08 83.2647 51.64C83.9314 52.1733 84.798 52.6267 85.8647 53C86.958 53.3467 88.158 53.6667 89.4647 53.96C90.7714 54.2533 92.0647 54.5867 93.3447 54.96C94.6514 55.3067 95.838 55.76 96.9047 56.32C97.998 56.8533 98.8647 57.5467 99.5047 58.4C100.171 59.2533 100.505 60.3467 100.505 61.68C100.505 64.1333 99.5714 66.0267 97.7047 67.36C95.838 68.6667 93.278 69.32 90.0247 69.32ZM113.67 69V42.52H125.59C128.416 42.52 130.643 43.2933 132.27 44.84C133.896 46.36 134.71 48.4267 134.71 51.04C134.71 53.6533 133.896 55.7333 132.27 57.28C130.643 58.8 128.416 59.56 125.59 59.56H116.67V69H113.67ZM116.67 56.76H125.39C127.47 56.76 129.043 56.2533 130.11 55.24C131.176 54.2267 131.71 52.8267 131.71 51.04C131.71 49.28 131.176 47.8933 130.11 46.88C129.043 45.8667 127.47 45.36 125.39 45.36H116.67V56.76ZM138.787 69V42.52H141.787V66.12H156.227V69H138.787ZM156.995 69L168.235 42.52H171.995L183.235 69H179.915L176.675 61.32H163.555L160.315 69H156.995ZM164.715 58.56H175.515L170.115 45.64L164.715 58.56ZM191.787 69V58.52L180.667 42.52H184.307L193.267 55.4L202.227 42.52H205.867L194.787 58.52V69H191.787ZM218.267 69.32C215.654 69.32 213.534 68.9733 211.907 68.28C210.28 67.56 209.054 66.5733 208.227 65.32C207.427 64.0667 206.96 62.6533 206.827 61.08H209.947C210.027 62.36 210.454 63.4 211.227 64.2C212 64.9733 213.014 65.5467 214.267 65.92C215.547 66.2933 216.947 66.48 218.467 66.48C220.707 66.48 222.48 66.0933 223.787 65.32C225.094 64.52 225.747 63.3467 225.747 61.8C225.747 60.8667 225.414 60.12 224.747 59.56C224.107 58.9733 223.24 58.4933 222.147 58.12C221.08 57.7467 219.907 57.4133 218.627 57.12C217.347 56.8 216.054 56.4667 214.747 56.12C213.467 55.7733 212.28 55.3333 211.187 54.8C210.12 54.2667 209.254 53.5867 208.587 52.76C207.947 51.9067 207.627 50.8267 207.627 49.52C207.627 47.36 208.454 45.6 210.107 44.24C211.787 42.88 214.28 42.2 217.587 42.2C219.934 42.2 221.867 42.56 223.387 43.28C224.907 43.9733 226.04 44.8933 226.787 46.04C227.56 47.1867 227.987 48.4267 228.067 49.76H224.987C224.827 48.4267 224.16 47.3067 222.987 46.4C221.814 45.4667 220.014 45 217.587 45C216.094 45 214.88 45.1467 213.947 45.44C213.014 45.7333 212.294 46.12 211.787 46.6C211.307 47.0533 210.974 47.5333 210.787 48.04C210.627 48.5467 210.547 49.0267 210.547 49.48C210.547 50.36 210.867 51.08 211.507 51.64C212.174 52.1733 213.04 52.6267 214.107 53C215.2 53.3467 216.4 53.6667 217.707 53.96C219.014 54.2533 220.307 54.5867 221.587 54.96C222.894 55.3067 224.08 55.76 225.147 56.32C226.24 56.8533 227.107 57.5467 227.747 58.4C228.414 59.2533 228.747 60.3467 228.747 61.68C228.747 64.1333 227.814 66.0267 225.947 67.36C224.08 68.6667 221.52 69.32 218.267 69.32Z"/>
</mask>
<path d="M5.12 27L5.92 21.28H1.8V18.68H6.28L7.08 12.92H3V10.32H7.44L8.28 4.6H10.88L10.04 10.32H14.68L15.52 4.6H18.12L17.28 10.32H21.44V12.92H16.92L16.12 18.68H20.24V21.28H15.76L14.96 27H12.36L13.16 21.28H8.52L7.72 27H5.12ZM8.88 18.68H13.52L14.32 12.92H9.68L8.88 18.68ZM33.0422 28V4.36H23.8022V1.52H45.2822V4.36H36.0422V28H33.0422ZM60.0194 28.32C57.8327 28.32 55.886 27.84 54.1794 26.88C52.4994 25.8933 51.1794 24.52 50.2194 22.76C49.2594 21 48.7794 18.9467 48.7794 16.6V1.52H51.7794V16.68C51.7794 18.7333 52.166 20.4 52.9394 21.68C53.7394 22.96 54.766 23.9067 56.0194 24.52C57.2994 25.1067 58.6327 25.4 60.0194 25.4C61.4327 25.4 62.766 25.1067 64.0194 24.52C65.2727 23.9067 66.2994 22.96 67.0994 21.68C67.8994 20.4 68.2994 18.7333 68.2994 16.68V1.52H71.2994V16.6C71.2994 18.92 70.8194 20.96 69.8594 22.72C68.8994 24.48 67.566 25.8533 65.8594 26.84C64.1794 27.8267 62.2327 28.32 60.0194 28.32ZM77.4588 28V1.52H88.6188C90.1921 1.52 91.6988 1.82666 93.1388 2.44C94.6054 3.02666 95.9121 3.89333 97.0588 5.04C98.2054 6.18667 99.1121 7.57333 99.7788 9.2C100.445 10.8267 100.779 12.68 100.779 14.76C100.779 16.84 100.445 18.6933 99.7788 20.32C99.1121 21.9467 98.2054 23.3333 97.0588 24.48C95.9121 25.6267 94.6054 26.5067 93.1388 27.12C91.6988 27.7067 90.1921 28 88.6188 28H77.4588ZM80.4588 25.16H88.4988C90.3921 25.16 92.0321 24.68 93.4188 23.72C94.8054 22.76 95.8721 21.4933 96.6188 19.92C97.3921 18.3467 97.7788 16.6267 97.7788 14.76C97.7788 12.8667 97.3921 11.1333 96.6188 9.56C95.8721 7.98667 94.8054 6.73333 93.4188 5.8C92.0321 4.84 90.3921 4.36 88.4988 4.36H80.4588V25.16ZM117.344 28.32C115.344 28.32 113.517 27.9733 111.864 27.28C110.21 26.5867 108.784 25.6133 107.584 24.36C106.41 23.1067 105.504 21.6667 104.864 20.04C104.224 18.3867 103.904 16.6267 103.904 14.76C103.904 12.8667 104.224 11.1067 104.864 9.48C105.504 7.85333 106.41 6.41333 107.584 5.16C108.784 3.90667 110.21 2.93333 111.864 2.24C113.517 1.54667 115.344 1.2 117.344 1.2C119.344 1.2 121.17 1.54667 122.824 2.24C124.477 2.93333 125.89 3.90667 127.064 5.16C128.264 6.41333 129.184 7.85333 129.824 9.48C130.464 11.1067 130.784 12.8667 130.784 14.76C130.784 16.6267 130.464 18.3867 129.824 20.04C129.184 21.6667 128.264 23.1067 127.064 24.36C125.89 25.6133 124.477 26.5867 122.824 27.28C121.17 27.9733 119.344 28.32 117.344 28.32ZM117.344 25.4C119.504 25.4 121.357 24.9333 122.904 24C124.477 23.04 125.677 21.76 126.504 20.16C127.357 18.5333 127.784 16.7333 127.784 14.76C127.784 12.76 127.357 10.96 126.504 9.36C125.677 7.76 124.477 6.49333 122.904 5.56C121.357 4.6 119.504 4.12 117.344 4.12C115.21 4.12 113.357 4.6 111.784 5.56C110.21 6.49333 108.997 7.76 108.144 9.36C107.317 10.96 106.904 12.76 106.904 14.76C106.904 16.7333 107.317 18.5333 108.144 20.16C108.997 21.76 110.21 23.04 111.784 24C113.357 24.9333 115.21 25.4 117.344 25.4ZM145.064 28.32C142.45 28.32 140.33 27.9733 138.704 27.28C137.077 26.56 135.85 25.5733 135.024 24.32C134.224 23.0667 133.757 21.6533 133.624 20.08H136.744C136.824 21.36 137.25 22.4 138.024 23.2C138.797 23.9733 139.81 24.5467 141.064 24.92C142.344 25.2933 143.744 25.48 145.264 25.48C147.504 25.48 149.277 25.0933 150.584 24.32C151.89 23.52 152.544 22.3467 152.544 20.8C152.544 19.8667 152.21 19.12 151.544 18.56C150.904 17.9733 150.037 17.4933 148.944 17.12C147.877 16.7467 146.704 16.4133 145.424 16.12C144.144 15.8 142.85 15.4667 141.544 15.12C140.264 14.7733 139.077 14.3333 137.984 13.8C136.917 13.2667 136.05 12.5867 135.384 11.76C134.744 10.9067 134.424 9.82667 134.424 8.52C134.424 6.36 135.25 4.6 136.904 3.24C138.584 1.88 141.077 1.2 144.384 1.2C146.73 1.2 148.664 1.56 150.184 2.28C151.704 2.97333 152.837 3.89333 153.584 5.04C154.357 6.18667 154.784 7.42667 154.864 8.76H151.784C151.624 7.42667 150.957 6.30667 149.784 5.4C148.61 4.46667 146.81 4 144.384 4C142.89 4 141.677 4.14667 140.744 4.44C139.81 4.73333 139.09 5.12 138.584 5.6C138.104 6.05333 137.77 6.53333 137.584 7.04C137.424 7.54667 137.344 8.02667 137.344 8.48C137.344 9.36 137.664 10.08 138.304 10.64C138.97 11.1733 139.837 11.6267 140.904 12C141.997 12.3467 143.197 12.6667 144.504 12.96C145.81 13.2533 147.104 13.5867 148.384 13.96C149.69 14.3067 150.877 14.76 151.944 15.32C153.037 15.8533 153.904 16.5467 154.544 17.4C155.21 18.2533 155.544 19.3467 155.544 20.68C155.544 23.1333 154.61 25.0267 152.744 26.36C150.877 27.6667 148.317 28.32 145.064 28.32ZM171.953 28.32C169.953 28.32 168.126 27.9733 166.473 27.28C164.82 26.5867 163.393 25.6133 162.193 24.36C161.02 23.1067 160.113 21.6667 159.473 20.04C158.833 18.3867 158.513 16.6267 158.513 14.76C158.513 12.8667 158.833 11.1067 159.473 9.48C160.113 7.85333 161.02 6.41333 162.193 5.16C163.393 3.90667 164.82 2.93333 166.473 2.24C168.126 1.54667 169.953 1.2 171.953 1.2C173.953 1.2 175.78 1.54667 177.433 2.24C179.086 2.93333 180.5 3.90667 181.673 5.16C182.873 6.41333 183.793 7.85333 184.433 9.48C185.073 11.1067 185.393 12.8667 185.393 14.76C185.393 16.6267 185.073 18.3867 184.433 20.04C183.793 21.6667 182.873 23.1067 181.673 24.36C180.5 25.6133 179.086 26.5867 177.433 27.28C175.78 27.9733 173.953 28.32 171.953 28.32ZM171.953 25.4C174.113 25.4 175.966 24.9333 177.513 24C179.086 23.04 180.286 21.76 181.113 20.16C181.966 18.5333 182.393 16.7333 182.393 14.76C182.393 12.76 181.966 10.96 181.113 9.36C180.286 7.76 179.086 6.49333 177.513 5.56C175.966 4.6 174.113 4.12 171.953 4.12C169.82 4.12 167.966 4.6 166.393 5.56C164.82 6.49333 163.606 7.76 162.753 9.36C161.926 10.96 161.513 12.76 161.513 14.76C161.513 16.7333 161.926 18.5333 162.753 20.16C163.606 21.76 164.82 23.04 166.393 24C167.966 24.9333 169.82 25.4 171.953 25.4ZM190.193 28V1.52H202.073C204.153 1.52 205.793 1.88 206.993 2.6C208.22 3.32 209.1 4.22667 209.633 5.32C210.166 6.38667 210.433 7.45333 210.433 8.52C210.433 10.2267 210.073 11.5467 209.353 12.48C208.633 13.3867 207.806 14.0533 206.873 14.48C207.62 14.72 208.366 15.1067 209.113 15.64C209.886 16.1467 210.526 16.84 211.033 17.72C211.54 18.6 211.793 19.7067 211.793 21.04C211.793 23.0133 211.033 24.6667 209.513 26C208.02 27.3333 205.766 28 202.753 28H190.193ZM193.193 13.36H202.073C203.006 13.36 203.873 13.2 204.673 12.88C205.5 12.56 206.166 12.0667 206.673 11.4C207.18 10.7067 207.433 9.82667 207.433 8.76C207.433 8.01333 207.26 7.30667 206.913 6.64C206.593 5.97333 206.06 5.42667 205.313 5C204.593 4.57333 203.62 4.36 202.393 4.36H193.193V13.36ZM193.193 25.16H203.073C204.886 25.16 206.286 24.7867 207.273 24.04C208.286 23.2667 208.793 22.1867 208.793 20.8C208.793 19.5467 208.313 18.4533 207.353 17.52C206.393 16.56 204.86 16.08 202.753 16.08H193.193V25.16ZM216.678 28V1.52H229.358C232.078 1.52 234.238 2.26666 235.838 3.76C237.464 5.25333 238.278 7.26667 238.278 9.8C238.278 11.5067 237.944 12.8667 237.278 13.88C236.638 14.8933 235.824 15.6667 234.838 16.2C233.851 16.7067 232.864 17.08 231.878 17.32L238.838 28H235.278L228.878 17.84H219.678V28H216.678ZM219.678 15H228.838C229.798 15 230.771 14.8533 231.758 14.56C232.744 14.2667 233.571 13.7467 234.238 13C234.931 12.2267 235.278 11.16 235.278 9.8C235.278 8.12 234.704 6.8 233.558 5.84C232.411 4.85333 230.891 4.36 228.998 4.36H219.678V15ZM243.435 28V1.52H262.915V4.4H246.435V13.28H261.155V16.2H246.435V25.12H262.915V28H243.435ZM12.72 69.32C10.1067 69.32 7.98667 68.9733 6.36 68.28C4.73333 67.56 3.50667 66.5733 2.68 65.32C1.88 64.0667 1.41333 62.6533 1.28 61.08H4.4C4.48 62.36 4.90667 63.4 5.68 64.2C6.45333 64.9733 7.46667 65.5467 8.72 65.92C10 66.2933 11.4 66.48 12.92 66.48C15.16 66.48 16.9333 66.0933 18.24 65.32C19.5467 64.52 20.2 63.3467 20.2 61.8C20.2 60.8667 19.8667 60.12 19.2 59.56C18.56 58.9733 17.6933 58.4933 16.6 58.12C15.5333 57.7467 14.36 57.4133 13.08 57.12C11.8 56.8 10.5067 56.4667 9.2 56.12C7.92 55.7733 6.73333 55.3333 5.64 54.8C4.57333 54.2667 3.70667 53.5867 3.04 52.76C2.4 51.9067 2.08 50.8267 2.08 49.52C2.08 47.36 2.90667 45.6 4.56 44.24C6.24 42.88 8.73333 42.2 12.04 42.2C14.3867 42.2 16.32 42.56 17.84 43.28C19.36 43.9733 20.4933 44.8933 21.24 46.04C22.0133 47.1867 22.44 48.4267 22.52 49.76H19.44C19.28 48.4267 18.6133 47.3067 17.44 46.4C16.2667 45.4667 14.4667 45 12.04 45C10.5467 45 9.33333 45.1467 8.4 45.44C7.46667 45.7333 6.74667 46.12 6.24 46.6C5.76 47.0533 5.42667 47.5333 5.24 48.04C5.08 48.5467 5 49.0267 5 49.48C5 50.36 5.32 51.08 5.96 51.64C6.62667 52.1733 7.49333 52.6267 8.56 53C9.65333 53.3467 10.8533 53.6667 12.16 53.96C13.4667 54.2533 14.76 54.5867 16.04 54.96C17.3467 55.3067 18.5333 55.76 19.6 56.32C20.6933 56.8533 21.56 57.5467 22.2 58.4C22.8667 59.2533 23.2 60.3467 23.2 61.68C23.2 64.1333 22.2667 66.0267 20.4 67.36C18.5333 68.6667 15.9733 69.32 12.72 69.32ZM27.8494 69V42.52H47.3294V45.4H30.8494V54.28H45.5694V57.2H30.8494V66.12H47.3294V69H27.8494ZM63.1053 69.32C60.9186 69.32 58.972 68.84 57.2653 67.88C55.5853 66.8933 54.2653 65.52 53.3053 63.76C52.3453 62 51.8653 59.9467 51.8653 57.6V42.52H54.8653V57.68C54.8653 59.7333 55.252 61.4 56.0253 62.68C56.8253 63.96 57.852 64.9067 59.1053 65.52C60.3853 66.1067 61.7186 66.4 63.1053 66.4C64.5186 66.4 65.852 66.1067 67.1053 65.52C68.3586 64.9067 69.3853 63.96 70.1853 62.68C70.9853 61.4 71.3853 59.7333 71.3853 57.68V42.52H74.3853V57.6C74.3853 59.92 73.9053 61.96 72.9453 63.72C71.9853 65.48 70.652 66.8533 68.9453 67.84C67.2653 68.8267 65.3186 69.32 63.1053 69.32ZM90.0247 69.32C87.4114 69.32 85.2914 68.9733 83.6647 68.28C82.038 67.56 80.8114 66.5733 79.9847 65.32C79.1847 64.0667 78.718 62.6533 78.5847 61.08H81.7047C81.7847 62.36 82.2114 63.4 82.9847 64.2C83.758 64.9733 84.7714 65.5467 86.0247 65.92C87.3047 66.2933 88.7047 66.48 90.2247 66.48C92.4647 66.48 94.238 66.0933 95.5447 65.32C96.8514 64.52 97.5047 63.3467 97.5047 61.8C97.5047 60.8667 97.1714 60.12 96.5047 59.56C95.8647 58.9733 94.998 58.4933 93.9047 58.12C92.838 57.7467 91.6647 57.4133 90.3847 57.12C89.1047 56.8 87.8114 56.4667 86.5047 56.12C85.2247 55.7733 84.038 55.3333 82.9447 54.8C81.878 54.2667 81.0114 53.5867 80.3447 52.76C79.7047 51.9067 79.3847 50.8267 79.3847 49.52C79.3847 47.36 80.2114 45.6 81.8647 44.24C83.5447 42.88 86.038 42.2 89.3447 42.2C91.6914 42.2 93.6247 42.56 95.1447 43.28C96.6647 43.9733 97.798 44.8933 98.5447 46.04C99.318 47.1867 99.7447 48.4267 99.8247 49.76H96.7447C96.5847 48.4267 95.918 47.3067 94.7447 46.4C93.5714 45.4667 91.7714 45 89.3447 45C87.8514 45 86.638 45.1467 85.7047 45.44C84.7714 45.7333 84.0514 46.12 83.5447 46.6C83.0647 47.0533 82.7314 47.5333 82.5447 48.04C82.3847 48.5467 82.3047 49.0267 82.3047 49.48C82.3047 50.36 82.6247 51.08 83.2647 51.64C83.9314 52.1733 84.798 52.6267 85.8647 53C86.958 53.3467 88.158 53.6667 89.4647 53.96C90.7714 54.2533 92.0647 54.5867 93.3447 54.96C94.6514 55.3067 95.838 55.76 96.9047 56.32C97.998 56.8533 98.8647 57.5467 99.5047 58.4C100.171 59.2533 100.505 60.3467 100.505 61.68C100.505 64.1333 99.5714 66.0267 97.7047 67.36C95.838 68.6667 93.278 69.32 90.0247 69.32ZM113.67 69V42.52H125.59C128.416 42.52 130.643 43.2933 132.27 44.84C133.896 46.36 134.71 48.4267 134.71 51.04C134.71 53.6533 133.896 55.7333 132.27 57.28C130.643 58.8 128.416 59.56 125.59 59.56H116.67V69H113.67ZM116.67 56.76H125.39C127.47 56.76 129.043 56.2533 130.11 55.24C131.176 54.2267 131.71 52.8267 131.71 51.04C131.71 49.28 131.176 47.8933 130.11 46.88C129.043 45.8667 127.47 45.36 125.39 45.36H116.67V56.76ZM138.787 69V42.52H141.787V66.12H156.227V69H138.787ZM156.995 69L168.235 42.52H171.995L183.235 69H179.915L176.675 61.32H163.555L160.315 69H156.995ZM164.715 58.56H175.515L170.115 45.64L164.715 58.56ZM191.787 69V58.52L180.667 42.52H184.307L193.267 55.4L202.227 42.52H205.867L194.787 58.52V69H191.787ZM218.267 69.32C215.654 69.32 213.534 68.9733 211.907 68.28C210.28 67.56 209.054 66.5733 208.227 65.32C207.427 64.0667 206.96 62.6533 206.827 61.08H209.947C210.027 62.36 210.454 63.4 211.227 64.2C212 64.9733 213.014 65.5467 214.267 65.92C215.547 66.2933 216.947 66.48 218.467 66.48C220.707 66.48 222.48 66.0933 223.787 65.32C225.094 64.52 225.747 63.3467 225.747 61.8C225.747 60.8667 225.414 60.12 224.747 59.56C224.107 58.9733 223.24 58.4933 222.147 58.12C221.08 57.7467 219.907 57.4133 218.627 57.12C217.347 56.8 216.054 56.4667 214.747 56.12C213.467 55.7733 212.28 55.3333 211.187 54.8C210.12 54.2667 209.254 53.5867 208.587 52.76C207.947 51.9067 207.627 50.8267 207.627 49.52C207.627 47.36 208.454 45.6 210.107 44.24C211.787 42.88 214.28 42.2 217.587 42.2C219.934 42.2 221.867 42.56 223.387 43.28C224.907 43.9733 226.04 44.8933 226.787 46.04C227.56 47.1867 227.987 48.4267 228.067 49.76H224.987C224.827 48.4267 224.16 47.3067 222.987 46.4C221.814 45.4667 220.014 45 217.587 45C216.094 45 214.88 45.1467 213.947 45.44C213.014 45.7333 212.294 46.12 211.787 46.6C211.307 47.0533 210.974 47.5333 210.787 48.04C210.627 48.5467 210.547 49.0267 210.547 49.48C210.547 50.36 210.867 51.08 211.507 51.64C212.174 52.1733 213.04 52.6267 214.107 53C215.2 53.3467 216.4 53.6667 217.707 53.96C219.014 54.2533 220.307 54.5867 221.587 54.96C222.894 55.3067 224.08 55.76 225.147 56.32C226.24 56.8533 227.107 57.5467 227.747 58.4C228.414 59.2533 228.747 60.3467 228.747 61.68C228.747 64.1333 227.814 66.0267 225.947 67.36C224.08 68.6667 221.52 69.32 218.267 69.32Z" fill="white"/>
<path d="M5.12 27L4.12964 26.8615L3.97041 28H5.12V27ZM5.92 21.28L6.91036 21.4185L7.06959 20.28H5.92V21.28ZM1.8 21.28H0.8V22.28H1.8V21.28ZM1.8 18.68V17.68H0.8V18.68H1.8ZM6.28 18.68V19.68H7.15071L7.27049 18.8176L6.28 18.68ZM7.08 12.92L8.07049 13.0576L8.22849 11.92H7.08V12.92ZM3 12.92H2V13.92H3V12.92ZM3 10.32V9.32H2V10.32H3ZM7.44 10.32V11.32H8.30387L8.42939 10.4653L7.44 10.32ZM8.28 4.6V3.6H7.41613L7.29061 4.4547L8.28 4.6ZM10.88 4.6L11.8694 4.74529L12.0376 3.6H10.88V4.6ZM10.04 10.32L9.05061 10.1747L8.88242 11.32H10.04V10.32ZM14.68 10.32V11.32H15.5439L15.6694 10.4653L14.68 10.32ZM15.52 4.6V3.6H14.6561L14.5306 4.4547L15.52 4.6ZM18.12 4.6L19.1094 4.74529L19.2776 3.6H18.12V4.6ZM17.28 10.32L16.2906 10.1747L16.1224 11.32H17.28V10.32ZM21.44 10.32H22.44V9.32H21.44V10.32ZM21.44 12.92V13.92H22.44V12.92H21.44ZM16.92 12.92V11.92H16.0493L15.9295 12.7824L16.92 12.92ZM16.12 18.68L15.1295 18.5424L14.9715 19.68H16.12V18.68ZM20.24 18.68H21.24V17.68H20.24V18.68ZM20.24 21.28V22.28H21.24V21.28H20.24ZM15.76 21.28V20.28H14.8901L14.7696 21.1415L15.76 21.28ZM14.96 27V28H15.8299L15.9504 27.1385L14.96 27ZM12.36 27L11.3696 26.8615L11.2104 28H12.36V27ZM13.16 21.28L14.1504 21.4185L14.3096 20.28H13.16V21.28ZM8.52 21.28V20.28H7.65013L7.52964 21.1415L8.52 21.28ZM7.72 27V28H8.58987L8.71036 27.1385L7.72 27ZM8.88 18.68L7.88951 18.5424L7.73151 19.68H8.88V18.68ZM13.52 18.68V19.68H14.3907L14.5105 18.8176L13.52 18.68ZM14.32 12.92L15.3105 13.0576L15.4685 11.92H14.32V12.92ZM9.68 12.92V11.92H8.80929L8.68951 12.7824L9.68 12.92ZM5.12 27L6.11036 27.1385L6.91036 21.4185L5.92 21.28L4.92964 21.1415L4.12964 26.8615L5.12 27ZM5.92 21.28V20.28H1.8V21.28V22.28H5.92V21.28ZM1.8 21.28H2.8V18.68H1.8H0.8V21.28H1.8ZM1.8 18.68V19.68H6.28V18.68V17.68H1.8V18.68ZM6.28 18.68L7.27049 18.8176L8.07049 13.0576L7.08 12.92L6.08951 12.7824L5.28951 18.5424L6.28 18.68ZM7.08 12.92V11.92H3V12.92V13.92H7.08V12.92ZM3 12.92H4V10.32H3H2V12.92H3ZM3 10.32V11.32H7.44V10.32V9.32H3V10.32ZM7.44 10.32L8.42939 10.4653L9.26939 4.74529L8.28 4.6L7.29061 4.4547L6.45061 10.1747L7.44 10.32ZM8.28 4.6V5.6H10.88V4.6V3.6H8.28V4.6ZM10.88 4.6L9.89061 4.4547L9.05061 10.1747L10.04 10.32L11.0294 10.4653L11.8694 4.74529L10.88 4.6ZM10.04 10.32V11.32H14.68V10.32V9.32H10.04V10.32ZM14.68 10.32L15.6694 10.4653L16.5094 4.74529L15.52 4.6L14.5306 4.4547L13.6906 10.1747L14.68 10.32ZM15.52 4.6V5.6H18.12V4.6V3.6H15.52V4.6ZM18.12 4.6L17.1306 4.4547L16.2906 10.1747L17.28 10.32L18.2694 10.4653L19.1094 4.74529L18.12 4.6ZM17.28 10.32V11.32H21.44V10.32V9.32H17.28V10.32ZM21.44 10.32H20.44V12.92H21.44H22.44V10.32H21.44ZM21.44 12.92V11.92H16.92V12.92V13.92H21.44V12.92ZM16.92 12.92L15.9295 12.7824L15.1295 18.5424L16.12 18.68L17.1105 18.8176L17.9105 13.0576L16.92 12.92ZM16.12 18.68V19.68H20.24V18.68V17.68H16.12V18.68ZM20.24 18.68H19.24V21.28H20.24H21.24V18.68H20.24ZM20.24 21.28V20.28H15.76V21.28V22.28H20.24V21.28ZM15.76 21.28L14.7696 21.1415L13.9696 26.8615L14.96 27L15.9504 27.1385L16.7504 21.4185L15.76 21.28ZM14.96 27V26H12.36V27V28H14.96V27ZM12.36 27L13.3504 27.1385L14.1504 21.4185L13.16 21.28L12.1696 21.1415L11.3696 26.8615L12.36 27ZM13.16 21.28V20.28H8.52V21.28V22.28H13.16V21.28ZM8.52 21.28L7.52964 21.1415L6.72964 26.8615L7.72 27L8.71036 27.1385L9.51036 21.4185L8.52 21.28ZM7.72 27V26H5.12V27V28H7.72V27ZM8.88 18.68V19.68H13.52V18.68V17.68H8.88V18.68ZM13.52 18.68L14.5105 18.8176L15.3105 13.0576L14.32 12.92L13.3295 12.7824L12.5295 18.5424L13.52 18.68ZM14.32 12.92V11.92H9.68V12.92V13.92H14.32V12.92ZM9.68 12.92L8.68951 12.7824L7.88951 18.5424L8.88 18.68L9.87049 18.8176L10.6705 13.0576L9.68 12.92ZM33.0422 28H32.0422V29H33.0422V28ZM33.0422 4.36H34.0422V3.36H33.0422V4.36ZM23.8022 4.36H22.8022V5.36H23.8022V4.36ZM23.8022 1.52V0.519998H22.8022V1.52H23.8022ZM45.2822 1.52H46.2822V0.519998H45.2822V1.52ZM45.2822 4.36V5.36H46.2822V4.36H45.2822ZM36.0422 4.36V3.36H35.0422V4.36H36.0422ZM36.0422 28V29H37.0422V28H36.0422ZM33.0422 28H34.0422V4.36H33.0422H32.0422V28H33.0422ZM33.0422 4.36V3.36H23.8022V4.36V5.36H33.0422V4.36ZM23.8022 4.36H24.8022V1.52H23.8022H22.8022V4.36H23.8022ZM23.8022 1.52V2.52H45.2822V1.52V0.519998H23.8022V1.52ZM45.2822 1.52H44.2822V4.36H45.2822H46.2822V1.52H45.2822ZM45.2822 4.36V3.36H36.0422V4.36V5.36H45.2822V4.36ZM36.0422 4.36H35.0422V28H36.0422H37.0422V4.36H36.0422ZM36.0422 28V27H33.0422V28V29H36.0422V28ZM54.1794 26.88L53.673 27.7423L53.681 27.747L53.6891 27.7516L54.1794 26.88ZM50.2194 22.76L49.3415 23.2389L49.3415 23.2389L50.2194 22.76ZM48.7794 1.52V0.519998H47.7794V1.52H48.7794ZM51.7794 1.52H52.7794V0.519998H51.7794V1.52ZM52.9394 21.68L52.0835 22.1971L52.0874 22.2036L52.0914 22.21L52.9394 21.68ZM56.0194 24.52L55.5798 25.4182L55.5912 25.4238L55.6027 25.4291L56.0194 24.52ZM64.0194 24.52L64.4433 25.4257L64.4512 25.422L64.4589 25.4182L64.0194 24.52ZM67.0994 21.68L66.2514 21.15L66.2514 21.15L67.0994 21.68ZM68.2994 1.52V0.519998H67.2994V1.52H68.2994ZM71.2994 1.52H72.2994V0.519998H71.2994V1.52ZM69.8594 22.72L70.7373 23.1989L70.7373 23.1989L69.8594 22.72ZM65.8594 26.84L65.3589 25.9742L65.353 25.9777L65.8594 26.84ZM60.0194 28.32V27.32C57.984 27.32 56.2098 26.8747 54.6696 26.0084L54.1794 26.88L53.6891 27.7516C55.5623 28.8053 57.6814 29.32 60.0194 29.32V28.32ZM54.1794 26.88L54.6858 26.0177C53.1668 25.1256 51.9731 23.8869 51.0973 22.2811L50.2194 22.76L49.3415 23.2389C50.3856 25.1531 51.832 26.6611 53.673 27.7423L54.1794 26.88ZM50.2194 22.76L51.0973 22.2811C50.2301 20.6913 49.7794 18.808 49.7794 16.6H48.7794H47.7794C47.7794 19.0853 48.2887 21.3087 49.3415 23.2389L50.2194 22.76ZM48.7794 16.6H49.7794V1.52H48.7794H47.7794V16.6H48.7794ZM48.7794 1.52V2.52H51.7794V1.52V0.519998H48.7794V1.52ZM51.7794 1.52H50.7794V16.68H51.7794H52.7794V1.52H51.7794ZM51.7794 16.68H50.7794C50.7794 18.8503 51.187 20.7133 52.0835 22.1971L52.9394 21.68L53.7953 21.1629C53.1451 20.0867 52.7794 18.6164 52.7794 16.68H51.7794ZM52.9394 21.68L52.0914 22.21C52.982 23.635 54.1449 24.716 55.5798 25.4182L56.0194 24.52L56.4589 23.6218C55.3872 23.0973 54.4967 22.285 53.7874 21.15L52.9394 21.68ZM56.0194 24.52L55.6027 25.4291C57.0114 26.0747 58.4866 26.4 60.0194 26.4V25.4V24.4C58.7788 24.4 57.5874 24.1386 56.436 23.6109L56.0194 24.52ZM60.0194 25.4V26.4C61.576 26.4 63.0544 26.0758 64.4433 25.4257L64.0194 24.52L63.5954 23.6143C62.4777 24.1375 61.2894 24.4 60.0194 24.4V25.4ZM64.0194 24.52L64.4589 25.4182C65.8939 24.716 67.0567 23.635 67.9474 22.21L67.0994 21.68L66.2514 21.15C65.542 22.285 64.6516 23.0973 63.5798 23.6218L64.0194 24.52ZM67.0994 21.68L67.9474 22.21C68.8764 20.7235 69.2994 18.8555 69.2994 16.68H68.2994H67.2994C67.2994 18.6112 66.9223 20.0765 66.2514 21.15L67.0994 21.68ZM68.2994 16.68H69.2994V1.52H68.2994H67.2994V16.68H68.2994ZM68.2994 1.52V2.52H71.2994V1.52V0.519998H68.2994V1.52ZM71.2994 1.52H70.2994V16.6H71.2994H72.2994V1.52H71.2994ZM71.2994 16.6H70.2994C70.2994 18.7792 69.8496 20.6497 68.9815 22.2411L69.8594 22.72L70.7373 23.1989C71.7892 21.2703 72.2994 19.0608 72.2994 16.6H71.2994ZM69.8594 22.72L68.9815 22.2411C68.1078 23.8429 66.9038 25.0811 65.3589 25.9743L65.8594 26.84L66.3599 27.7057C68.2283 26.6256 69.6909 25.1171 70.7373 23.1989L69.8594 22.72ZM65.8594 26.84L65.353 25.9777C63.8465 26.8625 62.0793 27.32 60.0194 27.32V28.32V29.32C62.3861 29.32 64.5123 28.7909 66.3658 27.7023L65.8594 26.84ZM77.4588 28H76.4588V29H77.4588V28ZM77.4588 1.52V0.519998H76.4588V1.52H77.4588ZM93.1388 2.44L92.7469 3.36002L92.7571 3.36436L92.7674 3.36847L93.1388 2.44ZM99.7788 9.2L100.704 8.82078L100.704 8.82077L99.7788 9.2ZM99.7788 20.32L100.704 20.6992L100.704 20.6992L99.7788 20.32ZM97.0588 24.48L97.7659 25.1871L97.7659 25.1871L97.0588 24.48ZM93.1388 27.12L93.5161 28.0461L93.5246 28.0426L93.1388 27.12ZM80.4588 25.16H79.4588V26.16H80.4588V25.16ZM93.4188 23.72L92.8495 22.8978L92.8495 22.8978L93.4188 23.72ZM96.6188 19.92L95.7212 19.4788L95.7153 19.4913L96.6188 19.92ZM96.6188 9.56L95.7152 9.98878L95.7213 10.0011L96.6188 9.56ZM93.4188 5.8L92.8495 6.62226L92.8604 6.62959L93.4188 5.8ZM80.4588 4.36V3.36H79.4588V4.36H80.4588ZM77.4588 28H78.4588V1.52H77.4588H76.4588V28H77.4588ZM77.4588 1.52V2.52H88.6188V1.52V0.519998H77.4588V1.52ZM88.6188 1.52V2.52C90.0581 2.52 91.4315 2.79974 92.7469 3.36002L93.1388 2.44L93.5306 1.51997C91.966 0.853584 90.326 0.519998 88.6188 0.519998V1.52ZM93.1388 2.44L92.7674 3.36847C94.1049 3.90349 95.2981 4.69359 96.3516 5.74711L97.0588 5.04L97.7659 4.33289C96.526 3.09307 95.1059 2.14984 93.5101 1.51152L93.1388 2.44ZM97.0588 5.04L96.3516 5.74711C97.3969 6.79239 98.2328 8.06483 98.8534 9.57922L99.7788 9.2L100.704 8.82077C99.9914 7.08183 99.0139 5.58094 97.7659 4.33289L97.0588 5.04ZM99.7788 9.2L98.8534 9.57922C99.4626 11.0656 99.7788 12.7867 99.7788 14.76H100.779H101.779C101.779 12.5733 101.428 10.5877 100.704 8.82078L99.7788 9.2ZM100.779 14.76H99.7788C99.7788 16.7333 99.4626 18.4544 98.8534 19.9408L99.7788 20.32L100.704 20.6992C101.428 18.9323 101.779 16.9467 101.779 14.76H100.779ZM99.7788 20.32L98.8534 19.9408C98.2328 21.4552 97.3969 22.7276 96.3516 23.7729L97.0588 24.48L97.7659 25.1871C99.0139 23.9391 99.9914 22.4382 100.704 20.6992L99.7788 20.32ZM97.0588 24.48L96.3516 23.7729C95.2951 24.8294 94.0971 25.6353 92.7529 26.1974L93.1388 27.12L93.5246 28.0426C95.1138 27.378 96.529 26.4239 97.7659 25.1871L97.0588 24.48ZM93.1388 27.12L92.7615 26.1939C91.4427 26.7312 90.0643 27 88.6188 27V28V29C90.3199 29 91.9548 28.6822 93.516 28.0461L93.1388 27.12ZM88.6188 28V27H77.4588V28V29H88.6188V28ZM80.4588 25.16V26.16H88.4988V25.16V24.16H80.4588V25.16ZM88.4988 25.16V26.16C90.5696 26.16 92.4139 25.6319 93.988 24.5422L93.4188 23.72L92.8495 22.8978C91.6502 23.7281 90.2146 24.16 88.4988 24.16V25.16ZM93.4188 23.72L93.988 24.5422C95.5234 23.4792 96.703 22.0748 97.5222 20.3487L96.6188 19.92L95.7153 19.4913C95.0412 20.9118 94.0875 22.0408 92.8495 22.8978L93.4188 23.72ZM96.6188 19.92L97.5162 20.3611C98.3613 18.6417 98.7788 16.7695 98.7788 14.76H97.7788H96.7788C96.7788 16.4839 96.4228 18.0516 95.7213 19.4789L96.6188 19.92ZM97.7788 14.76H98.7788C98.7788 12.7262 98.3623 10.8402 97.5162 9.11888L96.6188 9.56L95.7213 10.0011C96.4219 11.4264 96.7788 13.0071 96.7788 14.76H97.7788ZM96.6188 9.56L97.5222 9.13125C96.7019 7.40286 95.5191 6.00827 93.9771 4.97041L93.4188 5.8L92.8604 6.62959C94.0917 7.4584 95.0422 8.57047 95.7153 9.98874L96.6188 9.56ZM93.4188 5.8L93.988 4.97781C92.4139 3.8881 90.5696 3.36 88.4988 3.36V4.36V5.36C90.2146 5.36 91.6502 5.7919 92.8495 6.62219L93.4188 5.8ZM88.4988 4.36V3.36H80.4588V4.36V5.36H88.4988V4.36ZM80.4588 4.36H79.4588V25.16H80.4588H81.4588V4.36H80.4588ZM111.864 27.28L111.477 28.2022L111.477 28.2022L111.864 27.28ZM107.584 24.36L106.854 25.0435L106.861 25.0516L107.584 24.36ZM104.864 20.04L103.931 20.401L103.933 20.4061L104.864 20.04ZM104.864 9.48L103.933 9.11387L103.933 9.11387L104.864 9.48ZM107.584 5.16L106.861 4.46838L106.854 4.47657L107.584 5.16ZM111.864 2.24L111.477 1.3178L111.477 1.3178L111.864 2.24ZM122.824 2.24L123.21 1.3178L123.21 1.3178L122.824 2.24ZM127.064 5.16L126.334 5.84347L126.341 5.85157L127.064 5.16ZM129.824 9.48L130.754 9.11387L129.824 9.48ZM129.824 20.04L130.754 20.4061L130.756 20.401L129.824 20.04ZM127.064 24.36L126.341 23.6684L126.334 23.6766L127.064 24.36ZM122.824 27.28L123.21 28.2022L123.21 28.2022L122.824 27.28ZM122.904 24L123.42 24.8562L123.425 24.8536L122.904 24ZM126.504 20.16L125.618 19.6954L125.615 19.701L126.504 20.16ZM126.504 9.36L125.615 9.81906L125.621 9.83059L126.504 9.36ZM122.904 5.56L122.376 6.40964L122.385 6.41493L122.394 6.42005L122.904 5.56ZM111.784 5.56L112.294 6.42012L112.305 6.41364L111.784 5.56ZM108.144 9.36L107.261 8.88937L107.255 8.90098L108.144 9.36ZM108.144 20.16L107.252 20.613L107.257 20.6219L107.261 20.6306L108.144 20.16ZM111.784 24L111.263 24.8537L111.274 24.8601L111.784 24ZM117.344 28.32V27.32C115.461 27.32 113.768 26.9942 112.25 26.3578L111.864 27.28L111.477 28.2022C113.266 28.9525 115.226 29.32 117.344 29.32V28.32ZM111.864 27.28L112.25 26.3578C110.719 25.7157 109.408 24.8194 108.306 23.6684L107.584 24.36L106.861 25.0516C108.159 26.4073 109.701 27.4576 111.477 28.2022L111.864 27.28ZM107.584 24.36L108.314 23.6766C107.228 22.5171 106.389 21.1852 105.794 19.6739L104.864 20.04L103.933 20.4061C104.619 22.1481 105.593 23.6962 106.854 25.0434L107.584 24.36ZM104.864 20.04L105.796 19.679C105.203 18.1468 104.904 16.5098 104.904 14.76H103.904H102.904C102.904 16.7435 103.244 18.6265 103.931 20.401L104.864 20.04ZM103.904 14.76H104.904C104.904 12.9815 105.204 11.3468 105.794 9.84612L104.864 9.48L103.933 9.11387C103.244 10.8665 102.904 12.7518 102.904 14.76H103.904ZM104.864 9.48L105.794 9.84612C106.389 8.33475 107.228 7.0029 108.314 5.84342L107.584 5.16L106.854 4.47657C105.593 5.82376 104.619 7.37191 103.933 9.11387L104.864 9.48ZM107.584 5.16L108.306 5.85157C109.408 4.70063 110.719 3.80428 112.25 3.16219L111.864 2.24L111.477 1.3178C109.701 2.06238 108.159 3.1127 106.861 4.46843L107.584 5.16ZM111.864 2.24L112.25 3.16219C113.768 2.52584 115.461 2.2 117.344 2.2V1.2V0.199999C115.226 0.199999 113.266 0.567493 111.477 1.3178L111.864 2.24ZM117.344 1.2V2.2C119.226 2.2 120.92 2.52584 122.437 3.16219L122.824 2.24L123.21 1.3178C121.421 0.567493 119.461 0.199999 117.344 0.199999V1.2ZM122.824 2.24L122.437 3.16219C123.966 3.80349 125.261 4.69754 126.334 5.84342L127.064 5.16L127.794 4.47657C126.52 3.11579 124.988 2.06318 123.21 1.3178L122.824 2.24ZM127.064 5.16L126.341 5.85157C127.451 7.01028 128.3 8.33952 128.893 9.84612L129.824 9.48L130.754 9.11387C130.067 7.36714 129.077 5.81638 127.786 4.46843L127.064 5.16ZM129.824 9.48L128.893 9.84612C129.484 11.3468 129.784 12.9815 129.784 14.76H130.784H131.784C131.784 12.7518 131.444 10.8665 130.754 9.11387L129.824 9.48ZM130.784 14.76H129.784C129.784 16.5098 129.484 18.1468 128.891 19.679L129.824 20.04L130.756 20.401C131.443 18.6265 131.784 16.7435 131.784 14.76H130.784ZM129.824 20.04L128.893 19.6739C128.3 21.1805 127.451 22.5097 126.341 23.6684L127.064 24.36L127.786 25.0516C129.077 23.7036 130.067 22.1529 130.754 20.4061L129.824 20.04ZM127.064 24.36L126.334 23.6766C125.261 24.8225 123.966 25.7165 122.437 26.3578L122.824 27.28L123.21 28.2022C124.988 27.4568 126.52 26.4042 127.794 25.0434L127.064 24.36ZM122.824 27.28L122.437 26.3578C120.92 26.9942 119.226 27.32 117.344 27.32V28.32V29.32C119.461 29.32 121.421 28.9525 123.21 28.2022L122.824 27.28ZM117.344 25.4V26.4C119.65 26.4 121.69 25.9006 123.42 24.8562L122.904 24L122.387 23.1438C121.024 23.9661 119.358 24.4 117.344 24.4V25.4ZM122.904 24L123.425 24.8536C125.15 23.8006 126.479 22.3857 127.392 20.619L126.504 20.16L125.615 19.701C124.875 21.1343 123.804 22.2794 122.383 23.1464L122.904 24ZM126.504 20.16L127.389 20.6245C128.323 18.844 128.784 16.8828 128.784 14.76H127.784H126.784C126.784 16.5838 126.391 18.2226 125.618 19.6955L126.504 20.16ZM127.784 14.76H128.784C128.784 12.6131 128.324 10.6487 127.386 8.88941L126.504 9.36L125.621 9.83059C126.39 11.2713 126.784 12.9069 126.784 14.76H127.784ZM126.504 9.36L127.392 8.90098C126.478 7.13175 125.146 5.72729 123.414 4.69994L122.904 5.56L122.394 6.42005C123.808 7.25938 124.876 8.38825 125.615 9.81902L126.504 9.36ZM122.904 5.56L123.431 4.71036C121.699 3.63505 119.655 3.12 117.344 3.12V4.12V5.12C119.353 5.12 121.015 5.56494 122.376 6.40964L122.904 5.56ZM117.344 4.12V3.12C115.056 3.12 113.016 3.63639 111.263 4.70636L111.784 5.56L112.305 6.41364C113.698 5.56361 115.365 5.12 117.344 5.12V4.12ZM111.784 5.56L111.274 4.69994C109.544 5.72574 108.202 7.12649 107.261 8.88941L108.144 9.36L109.026 9.83059C109.793 8.3935 110.876 7.26092 112.294 6.42005L111.784 5.56ZM108.144 9.36L107.255 8.90098C106.348 10.658 105.904 12.6182 105.904 14.76H106.904H107.904C107.904 12.9018 108.287 11.262 109.032 9.81902L108.144 9.36ZM106.904 14.76H105.904C105.904 16.8777 106.349 18.8348 107.252 20.613L108.144 20.16L109.035 19.7069C108.286 18.2319 107.904 16.589 107.904 14.76H106.904ZM108.144 20.16L107.261 20.6306C108.2 22.391 109.54 23.8022 111.263 24.8536L111.784 24L112.305 23.1464C110.881 22.2778 109.794 21.129 109.026 19.6894L108.144 20.16ZM111.784 24L111.274 24.8601C113.025 25.8993 115.061 26.4 117.344 26.4V25.4V24.4C115.36 24.4 113.689 23.9674 112.294 23.1399L111.784 24ZM138.704 27.28L138.299 28.1945L138.312 28.1999L138.704 27.28ZM135.024 24.32L134.181 24.858L134.185 24.8643L134.189 24.8706L135.024 24.32ZM133.624 20.08V19.08H132.535L132.627 20.1644L133.624 20.08ZM136.744 20.08L137.742 20.0176L137.683 19.08H136.744V20.08ZM138.024 23.2L137.305 23.895L137.311 23.9011L137.317 23.9071L138.024 23.2ZM141.064 24.92L140.778 25.8784L140.784 25.88L141.064 24.92ZM150.584 24.32L151.093 25.1806L151.1 25.1768L151.106 25.1729L150.584 24.32ZM151.544 18.56L150.868 19.2972L150.884 19.3118L150.901 19.3257L151.544 18.56ZM148.944 17.12L148.613 18.0639L148.621 18.0663L148.944 17.12ZM145.424 16.12L145.181 17.0901L145.191 17.0925L145.2 17.0947L145.424 16.12ZM141.544 15.12L141.282 16.0852L141.287 16.0866L141.544 15.12ZM137.984 13.8L137.537 14.6945L137.545 14.6988L137.984 13.8ZM135.384 11.76L134.584 12.36L134.594 12.3741L134.605 12.3878L135.384 11.76ZM136.904 3.24L136.275 2.46273L136.268 2.46771L136.904 3.24ZM150.184 2.28L149.756 3.18374L149.762 3.18683L149.769 3.18982L150.184 2.28ZM153.584 5.04L152.746 5.58567L152.75 5.59244L152.755 5.59914L153.584 5.04ZM154.864 8.76V9.76H155.926L155.862 8.70011L154.864 8.76ZM151.784 8.76L150.791 8.87914L150.897 9.76H151.784V8.76ZM149.784 5.4L149.161 6.18268L149.172 6.19129L149.784 5.4ZM140.744 4.44L140.444 3.486L140.444 3.486L140.744 4.44ZM138.584 5.6L139.27 6.32701L139.271 6.32595L138.584 5.6ZM137.584 7.04L136.645 6.69429L136.637 6.7164L136.63 6.73887L137.584 7.04ZM138.304 10.64L137.645 11.3926L137.662 11.4071L137.679 11.4209L138.304 10.64ZM140.904 12L140.573 12.9439L140.587 12.9488L140.602 12.9532L140.904 12ZM148.384 13.96L148.104 14.92L148.115 14.9234L148.127 14.9266L148.384 13.96ZM151.944 15.32L151.479 16.2054L151.492 16.2123L151.505 16.2188L151.944 15.32ZM154.544 17.4L153.744 18L153.75 18.0079L153.756 18.0156L154.544 17.4ZM152.744 26.36L153.317 27.1793L153.325 27.1737L152.744 26.36ZM145.064 28.32V27.32C142.526 27.32 140.554 26.9816 139.096 26.3601L138.704 27.28L138.312 28.1999C140.107 28.9651 142.374 29.32 145.064 29.32V28.32ZM138.704 27.28L139.108 26.3656C137.624 25.7086 136.561 24.8352 135.859 23.7694L135.024 24.32L134.189 24.8706C135.139 26.3115 136.53 27.4114 138.299 28.1944L138.704 27.28ZM135.024 24.32L135.867 23.782C135.159 22.6736 134.741 21.4178 134.62 19.9956L133.624 20.08L132.627 20.1644C132.773 21.8889 133.288 23.4597 134.181 24.858L135.024 24.32ZM133.624 20.08V21.08H136.744V20.08V19.08H133.624V20.08ZM136.744 20.08L135.746 20.1424C135.838 21.6214 136.341 22.8983 137.305 23.895L138.024 23.2L138.743 22.505C138.16 21.9017 137.809 21.0986 137.742 20.0176L136.744 20.08ZM138.024 23.2L137.317 23.9071C138.228 24.8189 139.397 25.4669 140.778 25.8784L141.064 24.92L141.349 23.9616C140.224 23.6265 139.366 23.1278 138.731 22.4929L138.024 23.2ZM141.064 24.92L140.784 25.88C142.166 26.2833 143.662 26.48 145.264 26.48V25.48V24.48C143.826 24.48 142.521 24.3034 141.344 23.96L141.064 24.92ZM145.264 25.48V26.48C147.603 26.48 149.576 26.0786 151.093 25.1806L150.584 24.32L150.074 23.4594C148.978 24.1081 147.404 24.48 145.264 24.48V25.48ZM150.584 24.32L151.106 25.1729C152.713 24.189 153.544 22.6907 153.544 20.8H152.544H151.544C151.544 22.0027 151.068 22.851 150.062 23.4671L150.584 24.32ZM152.544 20.8H153.544C153.544 19.5955 153.098 18.5593 152.187 17.7943L151.544 18.56L150.901 19.3257C151.323 19.6807 151.544 20.1378 151.544 20.8H152.544ZM151.544 18.56L152.219 17.8228C151.45 17.1174 150.45 16.5776 149.267 16.1736L148.944 17.12L148.621 18.0663C149.624 18.4091 150.358 18.8292 150.868 19.2972L151.544 18.56ZM148.944 17.12L149.274 16.1761C148.167 15.7888 146.958 15.4456 145.647 15.1453L145.424 16.12L145.2 17.0947C146.45 17.3811 147.587 17.7046 148.613 18.0639L148.944 17.12ZM145.424 16.12L145.666 15.1499C144.391 14.831 143.102 14.4989 141.8 14.1534L141.544 15.12L141.287 16.0866C142.598 16.4344 143.896 16.769 145.181 17.0901L145.424 16.12ZM141.544 15.12L141.805 14.1548C140.581 13.8232 139.454 13.4045 138.422 12.9012L137.984 13.8L137.545 14.6988C138.7 15.2621 139.947 15.7235 141.282 16.0852L141.544 15.12ZM137.984 13.8L138.431 12.9056C137.477 12.4284 136.728 11.8343 136.162 11.1322L135.384 11.76L134.605 12.3878C135.372 13.339 136.357 14.1049 137.537 14.6944L137.984 13.8ZM135.384 11.76L136.184 11.16C135.701 10.5157 135.424 9.66004 135.424 8.52H134.424H133.424C133.424 9.99329 133.787 11.2976 134.584 12.36L135.384 11.76ZM134.424 8.52H135.424C135.424 6.6559 136.119 5.18037 137.539 4.01229L136.904 3.24L136.268 2.46771C134.382 4.01963 133.424 6.0641 133.424 8.52H134.424ZM136.904 3.24L137.533 4.01724C138.962 2.86029 141.191 2.2 144.384 2.2V1.2V0.199999C140.964 0.199999 138.205 0.899711 136.275 2.46275L136.904 3.24ZM144.384 1.2V2.2C146.637 2.2 148.411 2.54702 149.756 3.18374L150.184 2.28L150.612 1.37626C148.916 0.572974 146.824 0.199999 144.384 0.199999V1.2ZM150.184 2.28L149.769 3.18982C151.154 3.82186 152.123 4.63003 152.746 5.58567L153.584 5.04L154.422 4.49433C153.551 3.15664 152.253 2.12481 150.599 1.37018L150.184 2.28ZM153.584 5.04L152.755 5.59914C153.432 6.60301 153.797 7.67161 153.866 8.81989L154.864 8.76L155.862 8.70011C155.771 7.18172 155.282 5.77032 154.413 4.48086L153.584 5.04ZM154.864 8.76V7.76H151.784V8.76V9.76H154.864V8.76ZM151.784 8.76L152.777 8.64085C152.581 7.01238 151.756 5.66047 150.395 4.60871L149.784 5.4L149.172 6.19129C150.158 6.95286 150.666 7.84095 150.791 8.87914L151.784 8.76ZM149.784 5.4L150.406 4.6174C148.976 3.47954 146.907 3 144.384 3V4V5C146.714 5 148.245 5.45379 149.161 6.1826L149.784 5.4ZM144.384 4V3C142.836 3 141.511 3.1506 140.444 3.486L140.744 4.44L141.044 5.39399C141.843 5.14273 142.945 5 144.384 5V4ZM140.744 4.44L140.444 3.486C139.42 3.80773 138.548 4.25626 137.896 4.87405L138.584 5.6L139.271 6.32595C139.633 5.98374 140.201 5.65893 141.044 5.39399L140.744 4.44ZM138.584 5.6L137.897 4.87299C137.329 5.40908 136.896 6.0141 136.645 6.69429L137.584 7.04L138.522 7.3857C138.645 7.05256 138.878 6.69759 139.27 6.32701L138.584 5.6ZM137.584 7.04L136.63 6.73887C136.445 7.32662 136.344 7.90869 136.344 8.48H137.344H138.344C138.344 8.14464 138.403 7.76671 138.537 7.34113L137.584 7.04ZM137.344 8.48H136.344C136.344 9.6369 136.78 10.6353 137.645 11.3926L138.304 10.64L138.962 9.88742C138.548 9.52473 138.344 9.08309 138.344 8.48H137.344ZM138.304 10.64L137.679 11.4209C138.457 12.0434 139.433 12.5446 140.573 12.9439L140.904 12L141.234 11.0561C140.242 10.7088 139.484 10.3032 138.928 9.85913L138.304 10.64ZM140.904 12L140.602 12.9532C141.726 13.3099 142.955 13.6371 144.285 13.9357L144.504 12.96L144.723 11.9843C143.44 11.6962 142.268 11.3835 141.206 11.0468L140.904 12ZM144.504 12.96L144.285 13.9357C145.571 14.2245 146.844 14.5526 148.104 14.92L148.384 13.96L148.664 13C147.364 12.6208 146.05 12.2822 144.723 11.9843L144.504 12.96ZM148.384 13.96L148.127 14.9266C149.37 15.2563 150.486 15.6841 151.479 16.2054L151.944 15.32L152.409 14.4346C151.268 13.8359 150.01 13.357 148.64 12.9934L148.384 13.96ZM151.944 15.32L151.505 16.2188C152.476 16.6924 153.211 17.2903 153.744 18L154.544 17.4L155.344 16.8C154.596 15.803 153.598 15.0142 152.382 14.4212L151.944 15.32ZM154.544 17.4L153.756 18.0156C154.256 18.6556 154.544 19.5169 154.544 20.68H155.544H156.544C156.544 19.1765 156.165 17.8511 155.332 16.7844L154.544 17.4ZM155.544 20.68H154.544C154.544 22.8367 153.746 24.4154 152.163 25.5463L152.744 26.36L153.325 27.1737C155.475 25.6379 156.544 23.4299 156.544 20.68H155.544ZM152.744 26.36L152.17 25.5408C150.53 26.6892 148.196 27.32 145.064 27.32V28.32V29.32C148.438 29.32 151.225 28.6441 153.317 27.1792L152.744 26.36ZM166.473 27.28L166.086 28.2022L166.086 28.2022L166.473 27.28ZM162.193 24.36L161.463 25.0435L161.471 25.0516L162.193 24.36ZM159.473 20.04L158.541 20.401L158.543 20.4061L159.473 20.04ZM159.473 9.48L158.543 9.11387L158.543 9.11387L159.473 9.48ZM162.193 5.16L161.471 4.46838L161.463 4.47657L162.193 5.16ZM166.473 2.24L166.086 1.3178L166.086 1.3178L166.473 2.24ZM177.433 2.24L177.82 1.3178L177.82 1.3178L177.433 2.24ZM181.673 5.16L180.943 5.84347L180.951 5.85157L181.673 5.16ZM184.433 9.48L185.364 9.11387L184.433 9.48ZM184.433 20.04L185.364 20.4061L185.366 20.401L184.433 20.04ZM181.673 24.36L180.951 23.6684L180.943 23.6766L181.673 24.36ZM177.433 27.28L177.82 28.2022L177.82 28.2022L177.433 27.28ZM177.513 24L178.03 24.8562L178.034 24.8536L177.513 24ZM181.113 20.16L180.228 19.6954L180.225 19.701L181.113 20.16ZM181.113 9.36L180.225 9.81906L180.231 9.83059L181.113 9.36ZM177.513 5.56L176.986 6.40964L176.994 6.41493L177.003 6.42005L177.513 5.56ZM166.393 5.56L166.903 6.42012L166.914 6.41364L166.393 5.56ZM162.753 9.36L161.871 8.88937L161.865 8.90098L162.753 9.36ZM162.753 20.16L161.862 20.613L161.866 20.6219L161.871 20.6306L162.753 20.16ZM166.393 24L165.872 24.8537L165.883 24.8601L166.393 24ZM171.953 28.32V27.32C170.071 27.32 168.377 26.9942 166.86 26.3578L166.473 27.28L166.086 28.2022C167.876 28.9525 169.836 29.32 171.953 29.32V28.32ZM166.473 27.28L166.86 26.3578C165.329 25.7157 164.017 24.8194 162.915 23.6684L162.193 24.36L161.471 25.0516C162.769 26.4073 164.311 27.4576 166.086 28.2022L166.473 27.28ZM162.193 24.36L162.923 23.6766C161.838 22.5171 160.998 21.1852 160.404 19.6739L159.473 20.04L158.543 20.4061C159.228 22.1481 160.202 23.6962 161.463 25.0434L162.193 24.36ZM159.473 20.04L160.406 19.679C159.813 18.1468 159.513 16.5098 159.513 14.76H158.513H157.513C157.513 16.7435 157.854 18.6265 158.541 20.401L159.473 20.04ZM158.513 14.76H159.513C159.513 12.9815 159.813 11.3468 160.404 9.84612L159.473 9.48L158.543 9.11387C157.853 10.8665 157.513 12.7518 157.513 14.76H158.513ZM159.473 9.48L160.404 9.84612C160.998 8.33475 161.838 7.0029 162.923 5.84342L162.193 5.16L161.463 4.47657C160.202 5.82376 159.228 7.37191 158.543 9.11387L159.473 9.48ZM162.193 5.16L162.915 5.85157C164.017 4.70063 165.329 3.80428 166.86 3.16219L166.473 2.24L166.086 1.3178C164.311 2.06238 162.769 3.1127 161.471 4.46843L162.193 5.16ZM166.473 2.24L166.86 3.16219C168.377 2.52584 170.071 2.2 171.953 2.2V1.2V0.199999C169.836 0.199999 167.876 0.567493 166.086 1.3178L166.473 2.24ZM171.953 1.2V2.2C173.836 2.2 175.529 2.52584 177.046 3.16219L177.433 2.24L177.82 1.3178C176.031 0.567493 174.071 0.199999 171.953 0.199999V1.2ZM177.433 2.24L177.046 3.16219C178.576 3.80349 179.87 4.69754 180.943 5.84342L181.673 5.16L182.403 4.47657C181.129 3.11579 179.597 2.06318 177.82 1.3178L177.433 2.24ZM181.673 5.16L180.951 5.85157C182.06 7.01028 182.91 8.33952 183.503 9.84612L184.433 9.48L185.364 9.11387C184.676 7.36714 183.686 5.81638 182.395 4.46843L181.673 5.16ZM184.433 9.48L183.503 9.84612C184.093 11.3468 184.393 12.9815 184.393 14.76H185.393H186.393C186.393 12.7518 186.053 10.8665 185.364 9.11387L184.433 9.48ZM185.393 14.76H184.393C184.393 16.5098 184.094 18.1468 183.501 19.679L184.433 20.04L185.366 20.401C186.053 18.6265 186.393 16.7435 186.393 14.76H185.393ZM184.433 20.04L183.503 19.6739C182.91 21.1805 182.06 22.5097 180.951 23.6684L181.673 24.36L182.395 25.0516C183.686 23.7036 184.676 22.1529 185.364 20.4061L184.433 20.04ZM181.673 24.36L180.943 23.6766C179.87 24.8225 178.576 25.7165 177.046 26.3578L177.433 27.28L177.82 28.2022C179.597 27.4568 181.129 26.4042 182.403 25.0434L181.673 24.36ZM177.433 27.28L177.046 26.3578C175.529 26.9942 173.836 27.32 171.953 27.32V28.32V29.32C174.071 29.32 176.031 28.9525 177.82 28.2022L177.433 27.28ZM171.953 25.4V26.4C174.259 26.4 176.299 25.9006 178.03 24.8562L177.513 24L176.996 23.1438C175.634 23.9661 173.967 24.4 171.953 24.4V25.4ZM177.513 24L178.034 24.8536C179.76 23.8006 181.089 22.3857 182.002 20.619L181.113 20.16L180.225 19.701C179.484 21.1343 178.413 22.2794 176.992 23.1464L177.513 24ZM181.113 20.16L181.999 20.6245C182.933 18.844 183.393 16.8828 183.393 14.76H182.393H181.393C181.393 16.5838 181 18.2226 180.228 19.6955L181.113 20.16ZM182.393 14.76H183.393C183.393 12.6131 182.934 10.6487 181.995 8.88941L181.113 9.36L180.231 9.83059C180.999 11.2713 181.393 12.9069 181.393 14.76H182.393ZM181.113 9.36L182.002 8.90098C181.087 7.13175 179.755 5.72729 178.023 4.69994L177.513 5.56L177.003 6.42005C178.418 7.25938 179.485 8.38825 180.225 9.81902L181.113 9.36ZM177.513 5.56L178.04 4.71036C176.308 3.63505 174.264 3.12 171.953 3.12V4.12V5.12C173.962 5.12 175.625 5.56494 176.986 6.40964L177.513 5.56ZM171.953 4.12V3.12C169.665 3.12 167.626 3.63639 165.872 4.70636L166.393 5.56L166.914 6.41364C168.307 5.56361 169.974 5.12 171.953 5.12V4.12ZM166.393 5.56L165.883 4.69994C164.154 5.72574 162.811 7.12649 161.871 8.88941L162.753 9.36L163.635 9.83059C164.402 8.3935 165.486 7.26092 166.903 6.42005L166.393 5.56ZM162.753 9.36L161.865 8.90098C160.957 10.658 160.513 12.6182 160.513 14.76H161.513H162.513C162.513 12.9018 162.896 11.262 163.642 9.81902L162.753 9.36ZM161.513 14.76H160.513C160.513 16.8777 160.958 18.8348 161.862 20.613L162.753 20.16L163.645 19.7069C162.895 18.2319 162.513 16.589 162.513 14.76H161.513ZM162.753 20.16L161.871 20.6306C162.81 22.391 164.149 23.8022 165.872 24.8536L166.393 24L166.914 23.1464C165.491 22.2778 164.403 21.129 163.635 19.6894L162.753 20.16ZM166.393 24L165.883 24.8601C167.635 25.8993 169.67 26.4 171.953 26.4V25.4V24.4C169.969 24.4 168.298 23.9674 166.903 23.1399L166.393 24ZM190.193 28H189.193V29H190.193V28ZM190.193 1.52V0.519998H189.193V1.52H190.193ZM206.993 2.6L206.479 3.45753L206.487 3.46241L206.993 2.6ZM209.633 5.32L208.734 5.75844L208.739 5.76721L209.633 5.32ZM209.353 12.48L210.136 13.1019L210.145 13.0908L209.353 12.48ZM206.873 14.48L206.457 13.5705L204.112 14.6428L206.567 15.432L206.873 14.48ZM209.113 15.64L208.532 16.4537L208.548 16.4654L208.565 16.4765L209.113 15.64ZM211.033 17.72L211.9 17.221L211.9 17.221L211.033 17.72ZM209.513 26L208.854 25.2482L208.847 25.2541L209.513 26ZM193.193 13.36H192.193V14.36H193.193V13.36ZM204.673 12.88L204.312 11.9474L204.302 11.9515L204.673 12.88ZM206.673 11.4L207.469 12.0051L207.475 11.9976L207.481 11.99L206.673 11.4ZM206.913 6.64L206.012 7.07273L206.019 7.08715L206.026 7.10135L206.913 6.64ZM205.313 5L204.803 5.86029L204.81 5.86432L204.817 5.86824L205.313 5ZM193.193 4.36V3.36H192.193V4.36H193.193ZM193.193 25.16H192.193V26.16H193.193V25.16ZM207.273 24.04L207.877 24.8374L207.88 24.835L207.273 24.04ZM207.353 17.52L206.646 18.2272L206.656 18.237L207.353 17.52ZM193.193 16.08V15.08H192.193V16.08H193.193ZM190.193 28H191.193V1.52H190.193H189.193V28H190.193ZM190.193 1.52V2.52H202.073V1.52V0.519998H190.193V1.52ZM202.073 1.52V2.52C204.054 2.52 205.492 2.86548 206.479 3.45749L206.993 2.6L207.508 1.74251C206.094 0.89451 204.252 0.519998 202.073 0.519998V1.52ZM206.993 2.6L206.487 3.46241C207.573 4.10003 208.301 4.87028 208.734 5.75842L209.633 5.32L210.532 4.88158C209.898 3.58305 208.866 2.53996 207.499 1.73758L206.993 2.6ZM209.633 5.32L208.739 5.76721C209.211 6.71159 209.433 7.6261 209.433 8.52H210.433H211.433C211.433 7.28057 211.122 6.06174 210.528 4.87279L209.633 5.32ZM210.433 8.52H209.433C209.433 10.1013 209.098 11.1739 208.561 11.8692L209.353 12.48L210.145 13.0908C211.049 11.9194 211.433 10.352 211.433 8.52H210.433ZM209.353 12.48L208.57 11.8581C207.935 12.6573 207.23 13.2174 206.457 13.5705L206.873 14.48L207.289 15.3895C208.383 14.8893 209.331 14.1161 210.136 13.1019L209.353 12.48ZM206.873 14.48L206.567 15.432C207.2 15.6356 207.855 15.9705 208.532 16.4537L209.113 15.64L209.694 14.8263C208.878 14.2428 208.039 13.8044 207.179 13.528L206.873 14.48ZM209.113 15.64L208.565 16.4765C209.195 16.889 209.73 17.4613 210.167 18.219L211.033 17.72L211.9 17.221C211.323 16.2187 210.578 15.4044 209.661 14.8035L209.113 15.64ZM211.033 17.72L210.167 18.219C210.563 18.9069 210.793 19.8285 210.793 21.04H211.793H212.793C212.793 19.5848 212.517 18.2931 211.9 17.221L211.033 17.72ZM211.793 21.04H210.793C210.793 22.7174 210.163 24.0994 208.854 25.2482L209.513 26L210.173 26.7518C211.903 25.2339 212.793 23.3093 212.793 21.04H211.793ZM209.513 26L208.847 25.2541C207.61 26.3582 205.641 27 202.753 27V28V29C205.892 29 208.429 28.3085 210.179 26.7459L209.513 26ZM202.753 28V27H190.193V28V29H202.753V28ZM193.193 13.36V14.36H202.073V13.36V12.36H193.193V13.36ZM202.073 13.36V14.36C203.123 14.36 204.117 14.1795 205.045 13.8085L204.673 12.88L204.302 11.9515C203.629 12.2205 202.89 12.36 202.073 12.36V13.36ZM204.673 12.88L205.034 13.8126C206.023 13.4299 206.844 12.8278 207.469 12.0051L206.673 11.4L205.877 10.7949C205.489 11.3055 204.977 11.6901 204.312 11.9474L204.673 12.88ZM206.673 11.4L207.481 11.99C208.14 11.0877 208.433 9.9867 208.433 8.76H207.433H206.433C206.433 9.66663 206.22 10.3257 205.866 10.81L206.673 11.4ZM207.433 8.76H208.433C208.433 7.85166 208.221 6.98686 207.8 6.17865L206.913 6.64L206.026 7.10135C206.299 7.62647 206.433 8.175 206.433 8.76H207.433ZM206.913 6.64L207.815 6.20727C207.393 5.32923 206.703 4.64223 205.809 4.13176L205.313 5L204.817 5.86824C205.417 6.2111 205.793 6.61743 206.012 7.07273L206.913 6.64ZM205.313 5L205.823 4.13971C204.893 3.5886 203.721 3.36 202.393 3.36V4.36V5.36C203.519 5.36 204.293 5.55807 204.803 5.86029L205.313 5ZM202.393 4.36V3.36H193.193V4.36V5.36H202.393V4.36ZM193.193 4.36H192.193V13.36H193.193H194.193V4.36H193.193ZM193.193 25.16V26.16H203.073V25.16V24.16H193.193V25.16ZM203.073 25.16V26.16C205.007 26.16 206.652 25.7642 207.877 24.8374L207.273 24.04L206.67 23.2426C205.921 23.8092 204.766 24.16 203.073 24.16V25.16ZM207.273 24.04L207.88 24.835C209.165 23.8541 209.793 22.4669 209.793 20.8H208.793H207.793C207.793 21.9065 207.408 22.6793 206.666 23.245L207.273 24.04ZM208.793 20.8H209.793C209.793 19.2567 209.189 17.9103 208.05 16.803L207.353 17.52L206.656 18.237C207.437 18.9964 207.793 19.8366 207.793 20.8H208.793ZM207.353 17.52L208.06 16.8129C206.831 15.5841 204.982 15.08 202.753 15.08V16.08V17.08C204.737 17.08 205.955 17.5358 206.646 18.2271L207.353 17.52ZM202.753 16.08V15.08H193.193V16.08V17.08H202.753V16.08ZM193.193 16.08H192.193V25.16H193.193H194.193V16.08H193.193ZM216.678 28H215.678V29H216.678V28ZM216.678 1.52V0.519998H215.678V1.52H216.678ZM235.838 3.76L235.155 4.49108L235.161 4.49665L235.838 3.76ZM237.278 13.88L236.442 13.3304L236.437 13.3381L236.432 13.346L237.278 13.88ZM234.838 16.2L235.294 17.0896L235.304 17.0847L235.313 17.0797L234.838 16.2ZM231.878 17.32L231.641 16.3483L230.268 16.6823L231.04 17.866L231.878 17.32ZM238.838 28V29H240.683L239.675 27.454L238.838 28ZM235.278 28L234.431 28.533L234.726 29H235.278V28ZM228.878 17.84L229.724 17.307L229.429 16.84H228.878V17.84ZM219.678 17.84V16.84H218.678V17.84H219.678ZM219.678 28V29H220.678V28H219.678ZM219.678 15H218.678V16H219.678V15ZM231.758 14.56L231.473 13.6015L231.473 13.6015L231.758 14.56ZM234.238 13L233.493 12.3325L233.492 12.334L234.238 13ZM233.558 5.84L232.905 6.59808L232.916 6.60676L233.558 5.84ZM219.678 4.36V3.36H218.678V4.36H219.678ZM216.678 28H217.678V1.52H216.678H215.678V28H216.678ZM216.678 1.52V2.52H229.358V1.52V0.519998H216.678V1.52ZM229.358 1.52V2.52C231.889 2.52 233.783 3.20998 235.155 4.49105L235.838 3.76L236.52 3.02894C234.692 1.32335 232.266 0.519998 229.358 0.519998V1.52ZM235.838 3.76L235.161 4.49665C236.55 5.77195 237.278 7.50134 237.278 9.8H238.278H239.278C239.278 7.03199 238.378 4.73472 236.514 3.02335L235.838 3.76ZM238.278 9.8H237.278C237.278 11.3877 236.966 12.5341 236.442 13.3304L237.278 13.88L238.113 14.4296C238.922 13.1993 239.278 11.6257 239.278 9.8H238.278ZM237.278 13.88L236.432 13.346C235.877 14.2245 235.187 14.8741 234.362 15.3203L234.838 16.2L235.313 17.0797C236.461 16.4592 237.398 15.5621 238.123 14.414L237.278 13.88ZM234.838 16.2L234.381 15.3104C233.458 15.7844 232.545 16.1286 231.641 16.3483L231.878 17.32L232.114 18.2917C233.184 18.0314 234.244 17.6289 235.294 17.0896L234.838 16.2ZM231.878 17.32L231.04 17.866L238 28.546L238.838 28L239.675 27.454L232.715 16.774L231.878 17.32ZM238.838 28V27H235.278V28V29H238.838V28ZM235.278 28L236.124 27.467L229.724 17.307L228.878 17.84L228.031 18.373L234.431 28.533L235.278 28ZM228.878 17.84V16.84H219.678V17.84V18.84H228.878V17.84ZM219.678 17.84H218.678V28H219.678H220.678V17.84H219.678ZM219.678 28V27H216.678V28V29H219.678V28ZM219.678 15V16H228.838V15V14H219.678V15ZM228.838 15V16C229.901 16 230.97 15.8374 232.042 15.5185L231.758 14.56L231.473 13.6015C230.572 13.8693 229.694 14 228.838 14V15ZM231.758 14.56L232.042 15.5185C233.202 15.1739 234.19 14.5551 234.983 13.666L234.238 13L233.492 12.334C232.952 12.9382 232.287 13.3594 231.473 13.6015L231.758 14.56ZM234.238 13L234.982 13.6675C235.885 12.66 236.278 11.3284 236.278 9.8H235.278H234.278C234.278 10.9916 233.976 11.7934 233.493 12.3325L234.238 13ZM235.278 9.8H236.278C236.278 7.8651 235.603 6.24812 234.199 5.07324L233.558 5.84L232.916 6.60676C233.806 7.35188 234.278 8.3749 234.278 9.8H235.278ZM233.558 5.84L234.21 5.08199C232.839 3.90292 231.068 3.36 228.998 3.36V4.36V5.36C230.714 5.36 231.982 5.80375 232.905 6.59801L233.558 5.84ZM228.998 4.36V3.36H219.678V4.36V5.36H228.998V4.36ZM219.678 4.36H218.678V15H219.678H220.678V4.36H219.678ZM243.435 28H242.435V29H243.435V28ZM243.435 1.52V0.519998H242.435V1.52H243.435ZM262.915 1.52H263.915V0.519998H262.915V1.52ZM262.915 4.4V5.4H263.915V4.4H262.915ZM246.435 4.4V3.4H245.435V4.4H246.435ZM246.435 13.28H245.435V14.28H246.435V13.28ZM261.155 13.28H262.155V12.28H261.155V13.28ZM261.155 16.2V17.2H262.155V16.2H261.155ZM246.435 16.2V15.2H245.435V16.2H246.435ZM246.435 25.12H245.435V26.12H246.435V25.12ZM262.915 25.12H263.915V24.12H262.915V25.12ZM262.915 28V29H263.915V28H262.915ZM243.435 28H244.435V1.52H243.435H242.435V28H243.435ZM243.435 1.52V2.52H262.915V1.52V0.519998H243.435V1.52ZM262.915 1.52H261.915V4.4H262.915H263.915V1.52H262.915ZM262.915 4.4V3.4H246.435V4.4V5.4H262.915V4.4ZM246.435 4.4H245.435V13.28H246.435H247.435V4.4H246.435ZM246.435 13.28V14.28H261.155V13.28V12.28H246.435V13.28ZM261.155 13.28H260.155V16.2H261.155H262.155V13.28H261.155ZM261.155 16.2V15.2H246.435V16.2V17.2H261.155V16.2ZM246.435 16.2H245.435V25.12H246.435H247.435V16.2H246.435ZM246.435 25.12V26.12H262.915V25.12V24.12H246.435V25.12ZM262.915 25.12H261.915V28H262.915H263.915V25.12H262.915ZM262.915 28V27H243.435V28V29H262.915V28ZM6.36 68.28L5.95521 69.1945L5.9679 69.1999L6.36 68.28ZM2.68 65.32L1.83708 65.858L1.84111 65.8643L1.84523 65.8706L2.68 65.32ZM1.28 61.08V60.08H0.19167L0.283572 61.1644L1.28 61.08ZM4.4 61.08L5.39805 61.0176L5.33945 60.08H4.4V61.08ZM5.68 64.2L4.96101 64.895L4.9669 64.9011L4.97289 64.9071L5.68 64.2ZM8.72 65.92L8.43452 66.8784L8.44 66.88L8.72 65.92ZM18.24 65.32L18.7493 66.1806L18.7558 66.1768L18.7622 66.1729L18.24 65.32ZM19.2 59.56L18.5243 60.2972L18.5402 60.3118L18.5568 60.3257L19.2 59.56ZM16.6 58.12L16.2696 59.0639L16.2769 59.0663L16.6 58.12ZM13.08 57.12L12.8375 58.0901L12.847 58.0925L12.8566 58.0947L13.08 57.12ZM9.2 56.12L8.93858 57.0852L8.94357 57.0866L9.2 56.12ZM5.64 54.8L5.19276 55.6945L5.20158 55.6988L5.64 54.8ZM3.04 52.76L2.24 53.36L2.25055 53.3741L2.26159 53.3878L3.04 52.76ZM4.56 44.24L3.93078 43.4627L3.92473 43.4677L4.56 44.24ZM17.84 43.28L17.4119 44.1837L17.4184 44.1868L17.425 44.1898L17.84 43.28ZM21.24 46.04L20.402 46.5857L20.4064 46.5924L20.4109 46.5991L21.24 46.04ZM22.52 49.76V50.76H23.5818L23.5182 49.7001L22.52 49.76ZM19.44 49.76L18.4471 49.8791L18.5528 50.76H19.44V49.76ZM17.44 46.4L16.8174 47.1827L16.8286 47.1913L17.44 46.4ZM8.4 45.44L8.10017 44.486L8.10017 44.486L8.4 45.44ZM6.24 46.6L6.92662 47.327L6.92774 47.326L6.24 46.6ZM5.24 48.04L4.30166 47.6943L4.29351 47.7164L4.28642 47.7389L5.24 48.04ZM5.96 51.64L5.3015 52.3926L5.31809 52.4071L5.33531 52.4209L5.96 51.64ZM8.56 53L8.22965 53.9439L8.24363 53.9488L8.25776 53.9532L8.56 53ZM16.04 54.96L15.76 55.92L15.7717 55.9234L15.7836 55.9266L16.04 54.96ZM19.6 56.32L19.1352 57.2054L19.1483 57.2123L19.1616 57.2188L19.6 56.32ZM22.2 58.4L21.4 59L21.4059 59.0079L21.412 59.0156L22.2 58.4ZM20.4 67.36L20.9735 68.1793L20.9812 68.1737L20.4 67.36ZM12.72 69.32V68.32C10.1827 68.32 8.21027 67.9816 6.7521 67.3601L6.36 68.28L5.9679 69.1999C7.76306 69.9651 10.0306 70.32 12.72 70.32V69.32ZM6.36 68.28L6.76475 67.3656C5.28045 66.7086 4.21773 65.8352 3.51477 64.7694L2.68 65.32L1.84523 65.8706C2.7956 67.3115 4.18622 68.4114 5.95525 69.1944L6.36 68.28ZM2.68 65.32L3.52292 64.782C2.81546 63.6736 2.39696 62.4178 2.27643 60.9956L1.28 61.08L0.283572 61.1644C0.429711 62.8889 0.944538 64.4597 1.83708 65.858L2.68 65.32ZM1.28 61.08V62.08H4.4V61.08V60.08H1.28V61.08ZM4.4 61.08L3.40195 61.1424C3.49439 62.6214 3.99751 63.8983 4.96101 64.895L5.68 64.2L6.39899 63.505C5.81582 62.9017 5.46561 62.0986 5.39805 61.0176L4.4 61.08ZM5.68 64.2L4.97289 64.9071C5.88468 65.8189 7.05302 66.4669 8.43452 66.8784L8.72 65.92L9.00548 64.9616C7.88031 64.6265 7.02199 64.1278 6.38711 63.4929L5.68 64.2ZM8.72 65.92L8.44 66.88C9.82266 67.2833 11.3182 67.48 12.92 67.48V66.48V65.48C11.4818 65.48 10.1773 65.3034 9 64.96L8.72 65.92ZM12.92 66.48V67.48C15.2597 67.48 17.232 67.0786 18.7493 66.1806L18.24 65.32L17.7307 64.4594C16.6347 65.1081 15.0603 65.48 12.92 65.48V66.48ZM18.24 65.32L18.7622 66.1729C20.3691 65.189 21.2 63.6907 21.2 61.8H20.2H19.2C19.2 63.0027 18.7242 63.851 17.7178 64.4671L18.24 65.32ZM20.2 61.8H21.2C21.2 60.5955 20.754 59.5593 19.8432 58.7943L19.2 59.56L18.5568 60.3257C18.9794 60.6807 19.2 61.1378 19.2 61.8H20.2ZM19.2 59.56L19.8757 58.8228C19.1062 58.1174 18.1062 57.5776 16.9231 57.1736L16.6 58.12L16.2769 59.0663C17.2805 59.4091 18.0138 59.8292 18.5243 60.2972L19.2 59.56ZM16.6 58.12L16.9304 57.1761C15.8236 56.7888 14.6139 56.4456 13.3034 56.1453L13.08 57.12L12.8566 58.0947C14.1061 58.3811 15.2431 58.7046 16.2697 59.0639L16.6 58.12ZM13.08 57.12L13.3225 56.1499C12.0473 55.831 10.7586 55.4989 9.45644 55.1534L9.2 56.12L8.94357 57.0866C10.2547 57.4344 11.5527 57.769 12.8375 58.0901L13.08 57.12ZM9.2 56.12L9.46142 55.1548C8.23698 54.8232 7.11016 54.4045 6.07842 53.9012L5.64 54.8L5.20158 55.6988C6.3565 56.2621 7.60302 56.7235 8.93858 57.0852L9.2 56.12ZM5.64 54.8L6.08721 53.9056C5.13296 53.4284 4.38459 52.8343 3.81841 52.1322L3.04 52.76L2.26159 53.3878C3.02874 54.339 4.0137 55.1049 5.19279 55.6944L5.64 54.8ZM3.04 52.76L3.84 52.16C3.3568 51.5157 3.08 50.66 3.08 49.52H2.08H1.08C1.08 50.9933 1.44321 52.2976 2.24 53.36L3.04 52.76ZM2.08 49.52H3.08C3.08 47.6559 3.77525 46.1804 5.19527 45.0123L4.56 44.24L3.92473 43.4677C2.03808 45.0196 1.08 47.0641 1.08 49.52H2.08ZM4.56 44.24L5.1892 45.0172C6.61838 43.8603 8.84687 43.2 12.04 43.2V42.2V41.2C8.6198 41.2 5.86162 41.8997 3.9308 43.4628L4.56 44.24ZM12.04 42.2V43.2C14.2935 43.2 16.0677 43.547 17.4119 44.1837L17.84 43.28L18.2681 42.3763C16.5723 41.573 14.4799 41.2 12.04 41.2V42.2ZM17.84 43.28L17.425 44.1898C18.8106 44.8219 19.7797 45.63 20.402 46.5857L21.24 46.04L22.078 45.4943C21.2069 44.1566 19.9094 43.1248 18.255 42.3702L17.84 43.28ZM21.24 46.04L20.4109 46.5991C21.088 47.603 21.4529 48.6716 21.5218 49.8199L22.52 49.76L23.5182 49.7001C23.4271 48.1817 22.9387 46.7703 22.0691 45.4809L21.24 46.04ZM22.52 49.76V48.76H19.44V49.76V50.76H22.52V49.76ZM19.44 49.76L20.4329 49.6409C20.2375 48.0124 19.4125 46.6605 18.0514 45.6087L17.44 46.4L16.8286 47.1913C17.8141 47.9529 18.3225 48.841 18.4471 49.8791L19.44 49.76ZM17.44 46.4L18.0625 45.6174C16.6321 44.4795 14.563 44 12.04 44V45V46C14.3704 46 15.9013 46.4538 16.8175 47.1826L17.44 46.4ZM12.04 45V44C10.4926 44 9.16737 44.1506 8.10017 44.486L8.4 45.44L8.69983 46.394C9.4993 46.1427 10.6008 46 12.04 46V45ZM8.4 45.44L8.10017 44.486C7.07649 44.8077 6.20436 45.2563 5.55226 45.874L6.24 46.6L6.92774 47.326C7.28897 46.9837 7.85684 46.6589 8.69983 46.394L8.4 45.44ZM6.24 46.6L5.55338 45.873C4.98575 46.4091 4.55225 47.0141 4.30166 47.6943L5.24 48.04L6.17834 48.3857C6.30108 48.0526 6.53425 47.6976 6.92662 47.327L6.24 46.6ZM5.24 48.04L4.28642 47.7389C4.10081 48.3266 4 48.9087 4 49.48H5H6C6 49.1446 6.05919 48.7667 6.19358 48.3411L5.24 48.04ZM5 49.48H4C4 50.6369 4.436 51.6353 5.3015 52.3926L5.96 51.64L6.6185 50.8874C6.204 50.5247 6 50.0831 6 49.48H5ZM5.96 51.64L5.33531 52.4209C6.11353 53.0434 7.08882 53.5446 8.22965 53.9439L8.56 53L8.89035 52.0561C7.89784 51.7088 7.1398 51.3032 6.58469 50.8591L5.96 51.64ZM8.56 53L8.25776 53.9532C9.38257 54.3099 10.6108 54.6371 11.941 54.9357L12.16 53.96L12.379 52.9843C11.0959 52.6962 9.9241 52.3835 8.86224 52.0468L8.56 53ZM12.16 53.96L11.941 54.9357C13.2272 55.2245 14.5002 55.5526 15.76 55.92L16.04 54.96L16.32 54C15.0198 53.6208 13.7061 53.2822 12.379 52.9843L12.16 53.96ZM16.04 54.96L15.7836 55.9266C17.0266 56.2563 18.1422 56.6841 19.1352 57.2054L19.6 56.32L20.0648 55.4346C18.9245 54.8359 17.6667 54.357 16.2964 53.9934L16.04 54.96ZM19.6 56.32L19.1616 57.2188C20.1326 57.6924 20.8677 58.2903 21.4 59L22.2 58.4L23 57.8C22.2523 56.803 21.2541 56.0142 20.0384 55.4212L19.6 56.32ZM22.2 58.4L21.412 59.0156C21.9119 59.6556 22.2 60.5169 22.2 61.68H23.2H24.2C24.2 60.1765 23.8214 58.8511 22.988 57.7844L22.2 58.4ZM23.2 61.68H22.2C22.2 63.8367 21.4019 65.4154 19.8188 66.5463L20.4 67.36L20.9812 68.1737C23.1314 66.6379 24.2 64.4299 24.2 61.68H23.2ZM20.4 67.36L19.8265 66.5408C18.1859 67.6892 15.8525 68.32 12.72 68.32V69.32V70.32C16.0941 70.32 18.8808 69.6441 20.9735 68.1792L20.4 67.36ZM27.8494 69H26.8494V70H27.8494V69ZM27.8494 42.52V41.52H26.8494V42.52H27.8494ZM47.3294 42.52H48.3294V41.52H47.3294V42.52ZM47.3294 45.4V46.4H48.3294V45.4H47.3294ZM30.8494 45.4V44.4H29.8494V45.4H30.8494ZM30.8494 54.28H29.8494V55.28H30.8494V54.28ZM45.5694 54.28H46.5694V53.28H45.5694V54.28ZM45.5694 57.2V58.2H46.5694V57.2H45.5694ZM30.8494 57.2V56.2H29.8494V57.2H30.8494ZM30.8494 66.12H29.8494V67.12H30.8494V66.12ZM47.3294 66.12H48.3294V65.12H47.3294V66.12ZM47.3294 69V70H48.3294V69H47.3294ZM27.8494 69H28.8494V42.52H27.8494H26.8494V69H27.8494ZM27.8494 42.52V43.52H47.3294V42.52V41.52H27.8494V42.52ZM47.3294 42.52H46.3294V45.4H47.3294H48.3294V42.52H47.3294ZM47.3294 45.4V44.4H30.8494V45.4V46.4H47.3294V45.4ZM30.8494 45.4H29.8494V54.28H30.8494H31.8494V45.4H30.8494ZM30.8494 54.28V55.28H45.5694V54.28V53.28H30.8494V54.28ZM45.5694 54.28H44.5694V57.2H45.5694H46.5694V54.28H45.5694ZM45.5694 57.2V56.2H30.8494V57.2V58.2H45.5694V57.2ZM30.8494 57.2H29.8494V66.12H30.8494H31.8494V57.2H30.8494ZM30.8494 66.12V67.12H47.3294V66.12V65.12H30.8494V66.12ZM47.3294 66.12H46.3294V69H47.3294H48.3294V66.12H47.3294ZM47.3294 69V68H27.8494V69V70H47.3294V69ZM57.2653 67.88L56.7589 68.7423L56.7669 68.747L56.7751 68.7516L57.2653 67.88ZM53.3053 63.76L52.4274 64.2389L52.4274 64.2389L53.3053 63.76ZM51.8653 42.52V41.52H50.8653V42.52H51.8653ZM54.8653 42.52H55.8653V41.52H54.8653V42.52ZM56.0253 62.68L55.1694 63.1971L55.1733 63.2036L55.1773 63.21L56.0253 62.68ZM59.1053 65.52L58.6658 66.4182L58.6771 66.4238L58.6887 66.4291L59.1053 65.52ZM67.1053 65.52L67.5293 66.4257L67.5371 66.422L67.5449 66.4182L67.1053 65.52ZM70.1853 62.68L69.3373 62.15L69.3373 62.15L70.1853 62.68ZM71.3853 42.52V41.52H70.3853V42.52H71.3853ZM74.3853 42.52H75.3853V41.52H74.3853V42.52ZM72.9453 63.72L73.8232 64.1989L73.8232 64.1989L72.9453 63.72ZM68.9453 67.84L68.4448 66.9742L68.4389 66.9777L68.9453 67.84ZM63.1053 69.32V68.32C61.0699 68.32 59.2957 67.8747 57.7556 67.0084L57.2653 67.88L56.7751 68.7516C58.6483 69.8053 60.7674 70.32 63.1053 70.32V69.32ZM57.2653 67.88L57.7717 67.0177C56.2527 66.1256 55.0591 64.8869 54.1832 63.2811L53.3053 63.76L52.4274 64.2389C53.4716 66.1531 54.9179 67.6611 56.7589 68.7423L57.2653 67.88ZM53.3053 63.76L54.1832 63.2811C53.316 61.6913 52.8653 59.808 52.8653 57.6H51.8653H50.8653C50.8653 60.0853 51.3746 62.3087 52.4274 64.2389L53.3053 63.76ZM51.8653 57.6H52.8653V42.52H51.8653H50.8653V57.6H51.8653ZM51.8653 42.52V43.52H54.8653V42.52V41.52H51.8653V42.52ZM54.8653 42.52H53.8653V57.68H54.8653H55.8653V42.52H54.8653ZM54.8653 57.68H53.8653C53.8653 59.8503 54.2729 61.7133 55.1694 63.1971L56.0253 62.68L56.8812 62.1629C56.231 61.0867 55.8653 59.6164 55.8653 57.68H54.8653ZM56.0253 62.68L55.1773 63.21C56.068 64.635 57.2308 65.716 58.6658 66.4182L59.1053 65.52L59.5449 64.6218C58.4731 64.0973 57.5827 63.285 56.8733 62.15L56.0253 62.68ZM59.1053 65.52L58.6887 66.4291C60.0973 67.0747 61.5726 67.4 63.1053 67.4V66.4V65.4C61.8647 65.4 60.6733 65.1386 59.522 64.6109L59.1053 65.52ZM63.1053 66.4V67.4C64.6619 67.4 66.1403 67.0758 67.5293 66.4257L67.1053 65.52L66.6814 64.6143C65.5636 65.1375 64.3754 65.4 63.1053 65.4V66.4ZM67.1053 65.52L67.5449 66.4182C68.9798 65.716 70.1427 64.635 71.0333 63.21L70.1853 62.68L69.3373 62.15C68.628 63.285 67.7375 64.0973 66.6658 64.6218L67.1053 65.52ZM70.1853 62.68L71.0333 63.21C71.9623 61.7235 72.3853 59.8555 72.3853 57.68H71.3853H70.3853C70.3853 59.6112 70.0083 61.0765 69.3373 62.15L70.1853 62.68ZM71.3853 57.68H72.3853V42.52H71.3853H70.3853V57.68H71.3853ZM71.3853 42.52V43.52H74.3853V42.52V41.52H71.3853V42.52ZM74.3853 42.52H73.3853V57.6H74.3853H75.3853V42.52H74.3853ZM74.3853 57.6H73.3853C73.3853 59.7792 72.9355 61.6497 72.0674 63.2411L72.9453 63.72L73.8232 64.1989C74.8751 62.2703 75.3853 60.0608 75.3853 57.6H74.3853ZM72.9453 63.72L72.0674 63.2411C71.1937 64.8429 69.9897 66.0811 68.4448 66.9743L68.9453 67.84L69.4458 68.7057C71.3142 67.6256 72.7769 66.1171 73.8232 64.1989L72.9453 63.72ZM68.9453 67.84L68.4389 66.9777C66.9324 67.8625 65.1653 68.32 63.1053 68.32V69.32V70.32C65.472 70.32 67.5982 69.7909 69.4517 68.7023L68.9453 67.84ZM83.6647 68.28L83.2599 69.1945L83.2726 69.1999L83.6647 68.28ZM79.9847 65.32L79.1418 65.858L79.1458 65.8643L79.1499 65.8706L79.9847 65.32ZM78.5847 61.08V60.08H77.4964L77.5883 61.1644L78.5847 61.08ZM81.7047 61.08L82.7027 61.0176L82.6441 60.08H81.7047V61.08ZM82.9847 64.2L82.2657 64.895L82.2716 64.9011L82.2776 64.9071L82.9847 64.2ZM86.0247 65.92L85.7392 66.8784L85.7447 66.88L86.0247 65.92ZM95.5447 65.32L96.054 66.1806L96.0605 66.1768L96.0668 66.1729L95.5447 65.32ZM96.5047 59.56L95.829 60.2972L95.8449 60.3118L95.8615 60.3257L96.5047 59.56ZM93.9047 58.12L93.5743 59.0639L93.5815 59.0663L93.9047 58.12ZM90.3847 57.12L90.1422 58.0901L90.1517 58.0925L90.1613 58.0947L90.3847 57.12ZM86.5047 56.12L86.2433 57.0852L86.2483 57.0866L86.5047 56.12ZM82.9447 54.8L82.4975 55.6945L82.5063 55.6988L82.9447 54.8ZM80.3447 52.76L79.5447 53.36L79.5552 53.3741L79.5663 53.3878L80.3447 52.76ZM81.8647 44.24L81.2355 43.4627L81.2294 43.4677L81.8647 44.24ZM95.1447 43.28L94.7166 44.1837L94.7231 44.1868L94.7297 44.1898L95.1447 43.28ZM98.5447 46.04L97.7067 46.5857L97.7111 46.5924L97.7156 46.5991L98.5447 46.04ZM99.8247 49.76V50.76H100.886L100.823 49.7001L99.8247 49.76ZM96.7447 49.76L95.7518 49.8791L95.8575 50.76H96.7447V49.76ZM94.7447 46.4L94.1221 47.1827L94.1332 47.1913L94.7447 46.4ZM85.7047 45.44L85.4049 44.486L85.4049 44.486L85.7047 45.44ZM83.5447 46.6L84.2313 47.327L84.2324 47.326L83.5447 46.6ZM82.5447 48.04L81.6063 47.6943L81.5982 47.7164L81.5911 47.7389L82.5447 48.04ZM83.2647 51.64L82.6062 52.3926L82.6228 52.4071L82.64 52.4209L83.2647 51.64ZM85.8647 53L85.5343 53.9439L85.5483 53.9488L85.5624 53.9532L85.8647 53ZM93.3447 54.96L93.0647 55.92L93.0764 55.9234L93.0883 55.9266L93.3447 54.96ZM96.9047 56.32L96.4399 57.2054L96.453 57.2123L96.4663 57.2188L96.9047 56.32ZM99.5047 58.4L98.7047 59L98.7106 59.0079L98.7167 59.0156L99.5047 58.4ZM97.7047 67.36L98.2782 68.1793L98.2859 68.1737L97.7047 67.36ZM90.0247 69.32V68.32C87.4874 68.32 85.515 67.9816 84.0568 67.3601L83.6647 68.28L83.2726 69.1999C85.0677 69.9651 87.3353 70.32 90.0247 70.32V69.32ZM83.6647 68.28L84.0694 67.3656C82.5851 66.7086 81.5224 65.8352 80.8195 64.7694L79.9847 65.32L79.1499 65.8706C80.1003 67.3115 81.4909 68.4114 83.2599 69.1944L83.6647 68.28ZM79.9847 65.32L80.8276 64.782C80.1201 63.6736 79.7016 62.4178 79.5811 60.9956L78.5847 61.08L77.5883 61.1644C77.7344 62.8889 78.2492 64.4597 79.1418 65.858L79.9847 65.32ZM78.5847 61.08V62.08H81.7047V61.08V60.08H78.5847V61.08ZM81.7047 61.08L80.7066 61.1424C80.7991 62.6214 81.3022 63.8983 82.2657 64.895L82.9847 64.2L83.7037 63.505C83.1205 62.9017 82.7703 62.0986 82.7027 61.0176L81.7047 61.08ZM82.9847 64.2L82.2776 64.9071C83.1894 65.8189 84.3577 66.4669 85.7392 66.8784L86.0247 65.92L86.3102 64.9616C85.185 64.6265 84.3267 64.1278 83.6918 63.4929L82.9847 64.2ZM86.0247 65.92L85.7447 66.88C87.1273 67.2833 88.6229 67.48 90.2247 67.48V66.48V65.48C88.7864 65.48 87.482 65.3034 86.3047 64.96L86.0247 65.92ZM90.2247 66.48V67.48C92.5644 67.48 94.5367 67.0786 96.054 66.1806L95.5447 65.32L95.0354 64.4594C93.9394 65.1081 92.365 65.48 90.2247 65.48V66.48ZM95.5447 65.32L96.0668 66.1729C97.6738 65.189 98.5047 63.6907 98.5047 61.8H97.5047H96.5047C96.5047 63.0027 96.0289 63.851 95.0225 64.4671L95.5447 65.32ZM97.5047 61.8H98.5047C98.5047 60.5955 98.0587 59.5593 97.1479 58.7943L96.5047 59.56L95.8615 60.3257C96.2841 60.6807 96.5047 61.1378 96.5047 61.8H97.5047ZM96.5047 59.56L97.1804 58.8228C96.4109 58.1174 95.4109 57.5776 94.2278 57.1736L93.9047 58.12L93.5815 59.0663C94.5852 59.4091 95.3185 59.8292 95.829 60.2972L96.5047 59.56ZM93.9047 58.12L94.235 57.1761C93.1282 56.7888 91.9186 56.4456 90.6081 56.1453L90.3847 57.12L90.1613 58.0947C91.4108 58.3811 92.5478 58.7046 93.5743 59.0639L93.9047 58.12ZM90.3847 57.12L90.6272 56.1499C89.352 55.831 88.0633 55.4989 86.7611 55.1534L86.5047 56.12L86.2483 57.0866C87.5594 57.4344 88.8574 57.769 90.1422 58.0901L90.3847 57.12ZM86.5047 56.12L86.7661 55.1548C85.5417 54.8232 84.4149 54.4045 83.3831 53.9012L82.9447 54.8L82.5063 55.6988C83.6612 56.2621 84.9077 56.7235 86.2433 57.0852L86.5047 56.12ZM82.9447 54.8L83.3919 53.9056C82.4377 53.4284 81.6893 52.8343 81.1231 52.1322L80.3447 52.76L79.5663 53.3878C80.3334 54.339 81.3184 55.1049 82.4975 55.6944L82.9447 54.8ZM80.3447 52.76L81.1447 52.16C80.6615 51.5157 80.3847 50.66 80.3847 49.52H79.3847H78.3847C78.3847 50.9933 78.7479 52.2976 79.5447 53.36L80.3447 52.76ZM79.3847 49.52H80.3847C80.3847 47.6559 81.0799 46.1804 82.5 45.0123L81.8647 44.24L81.2294 43.4677C79.3428 45.0196 78.3847 47.0641 78.3847 49.52H79.3847ZM81.8647 44.24L82.4939 45.0172C83.9231 43.8603 86.1516 43.2 89.3447 43.2V42.2V41.2C85.9245 41.2 83.1663 41.8997 81.2355 43.4628L81.8647 44.24ZM89.3447 42.2V43.2C91.5981 43.2 93.3724 43.547 94.7166 44.1837L95.1447 43.28L95.5728 42.3763C93.8769 41.573 91.7846 41.2 89.3447 41.2V42.2ZM95.1447 43.28L94.7297 44.1898C96.1153 44.8219 97.0844 45.63 97.7067 46.5857L98.5447 46.04L99.3827 45.4943C98.5116 44.1566 97.2141 43.1248 95.5597 42.3702L95.1447 43.28ZM98.5447 46.04L97.7156 46.5991C98.3926 47.603 98.7576 48.6716 98.8265 49.8199L99.8247 49.76L100.823 49.7001C100.732 48.1817 100.243 46.7703 99.3738 45.4809L98.5447 46.04ZM99.8247 49.76V48.76H96.7447V49.76V50.76H99.8247V49.76ZM96.7447 49.76L97.7376 49.6409C97.5421 48.0124 96.7172 46.6605 95.3561 45.6087L94.7447 46.4L94.1332 47.1913C95.1188 47.9529 95.6272 48.841 95.7518 49.8791L96.7447 49.76ZM94.7447 46.4L95.3672 45.6174C93.9368 44.4795 91.8677 44 89.3447 44V45V46C91.675 46 93.2059 46.4538 94.1222 47.1826L94.7447 46.4ZM89.3447 45V44C87.7972 44 86.4721 44.1506 85.4049 44.486L85.7047 45.44L86.0045 46.394C86.804 46.1427 87.9055 46 89.3447 46V45ZM85.7047 45.44L85.4049 44.486C84.3812 44.8077 83.509 45.2563 82.8569 45.874L83.5447 46.6L84.2324 47.326C84.5937 46.9837 85.1615 46.6589 86.0045 46.394L85.7047 45.44ZM83.5447 46.6L82.8581 45.873C82.2904 46.4091 81.8569 47.0141 81.6063 47.6943L82.5447 48.04L83.483 48.3857C83.6058 48.0526 83.8389 47.6976 84.2313 47.327L83.5447 46.6ZM82.5447 48.04L81.5911 47.7389C81.4055 48.3266 81.3047 48.9087 81.3047 49.48H82.3047H83.3047C83.3047 49.1446 83.3639 48.7667 83.4983 48.3411L82.5447 48.04ZM82.3047 49.48H81.3047C81.3047 50.6369 81.7407 51.6353 82.6062 52.3926L83.2647 51.64L83.9232 50.8874C83.5087 50.5247 83.3047 50.0831 83.3047 49.48H82.3047ZM83.2647 51.64L82.64 52.4209C83.4182 53.0434 84.3935 53.5446 85.5343 53.9439L85.8647 53L86.195 52.0561C85.2025 51.7088 84.4445 51.3032 83.8894 50.8591L83.2647 51.64ZM85.8647 53L85.5624 53.9532C86.6873 54.3099 87.9154 54.6371 89.2456 54.9357L89.4647 53.96L89.6837 52.9843C88.4006 52.6962 87.2288 52.3835 86.1669 52.0468L85.8647 53ZM89.4647 53.96L89.2456 54.9357C90.5319 55.2245 91.8049 55.5526 93.0647 55.92L93.3447 54.96L93.6247 54C92.3244 53.6208 91.0108 53.2822 89.6837 52.9843L89.4647 53.96ZM93.3447 54.96L93.0883 55.9266C94.3313 56.2563 95.4469 56.6841 96.4399 57.2054L96.9047 56.32L97.3695 55.4346C96.2292 54.8359 94.9714 54.357 93.6011 53.9934L93.3447 54.96ZM96.9047 56.32L96.4663 57.2188C97.4372 57.6924 98.1724 58.2903 98.7047 59L99.5047 58.4L100.305 57.8C99.557 56.803 98.5588 56.0142 97.3431 55.4212L96.9047 56.32ZM99.5047 58.4L98.7167 59.0156C99.2166 59.6556 99.5047 60.5169 99.5047 61.68H100.505H101.505C101.505 60.1765 101.126 58.8511 100.293 57.7844L99.5047 58.4ZM100.505 61.68H99.5047C99.5047 63.8367 98.7066 65.4154 97.1235 66.5463L97.7047 67.36L98.2859 68.1737C100.436 66.6379 101.505 64.4299 101.505 61.68H100.505ZM97.7047 67.36L97.1312 66.5408C95.4906 67.6892 93.1572 68.32 90.0247 68.32V69.32V70.32C93.3988 70.32 96.1855 69.6441 98.2782 68.1792L97.7047 67.36ZM113.67 69H112.67V70H113.67V69ZM113.67 42.52V41.52H112.67V42.52H113.67ZM132.27 44.84L131.581 45.5647L131.587 45.5707L132.27 44.84ZM132.27 57.28L132.952 58.0107L132.959 58.0047L132.27 57.28ZM116.67 59.56V58.56H115.67V59.56H116.67ZM116.67 69V70H117.67V69H116.67ZM116.67 56.76H115.67V57.76H116.67V56.76ZM130.11 55.24L130.798 55.965L130.798 55.965L130.11 55.24ZM130.11 46.88L129.421 47.605L130.11 46.88ZM116.67 45.36V44.36H115.67V45.36H116.67ZM113.67 69H114.67V42.52H113.67H112.67V69H113.67ZM113.67 42.52V43.52H125.59V42.52V41.52H113.67V42.52ZM125.59 42.52V43.52C128.229 43.52 130.185 44.2375 131.581 45.5647L132.27 44.84L132.959 44.1153C131.101 42.3492 128.603 41.52 125.59 41.52V42.52ZM132.27 44.84L131.587 45.5707C132.976 46.8685 133.71 48.6512 133.71 51.04H134.71H135.71C135.71 48.2021 134.817 45.8515 132.952 44.1093L132.27 44.84ZM134.71 51.04H133.71C133.71 53.4284 132.976 55.2287 131.581 56.5553L132.27 57.28L132.959 58.0047C134.817 56.238 135.71 53.8783 135.71 51.04H134.71ZM132.27 57.28L131.587 56.5493C130.192 57.8532 128.234 58.56 125.59 58.56V59.56V60.56C128.599 60.56 131.094 59.7468 132.952 58.0107L132.27 57.28ZM125.59 59.56V58.56H116.67V59.56V60.56H125.59V59.56ZM116.67 59.56H115.67V69H116.67H117.67V59.56H116.67ZM116.67 69V68H113.67V69V70H116.67V69ZM116.67 56.76V57.76H125.39V56.76V55.76H116.67V56.76ZM125.39 56.76V57.76C127.62 57.76 129.481 57.2166 130.798 55.965L130.11 55.24L129.421 54.515C128.605 55.29 127.32 55.76 125.39 55.76V56.76ZM130.11 55.24L130.798 55.965C132.105 54.7234 132.71 53.0376 132.71 51.04H131.71H130.71C130.71 52.6157 130.247 53.73 129.421 54.515L130.11 55.24ZM131.71 51.04H132.71C132.71 49.064 132.102 47.3937 130.798 46.155L130.11 46.88L129.421 47.605C130.25 48.3929 130.71 49.496 130.71 51.04H131.71ZM130.11 46.88L130.798 46.155C129.481 44.9034 127.62 44.36 125.39 44.36V45.36V46.36C127.32 46.36 128.605 46.83 129.421 47.605L130.11 46.88ZM125.39 45.36V44.36H116.67V45.36V46.36H125.39V45.36ZM116.67 45.36H115.67V56.76H116.67H117.67V45.36H116.67ZM138.787 69H137.787V70H138.787V69ZM138.787 42.52V41.52H137.787V42.52H138.787ZM141.787 42.52H142.787V41.52H141.787V42.52ZM141.787 66.12H140.787V67.12H141.787V66.12ZM156.227 66.12H157.227V65.12H156.227V66.12ZM156.227 69V70H157.227V69H156.227ZM138.787 69H139.787V42.52H138.787H137.787V69H138.787ZM138.787 42.52V43.52H141.787V42.52V41.52H138.787V42.52ZM141.787 42.52H140.787V66.12H141.787H142.787V42.52H141.787ZM141.787 66.12V67.12H156.227V66.12V65.12H141.787V66.12ZM156.227 66.12H155.227V69H156.227H157.227V66.12H156.227ZM156.227 69V68H138.787V69V70H156.227V69ZM156.995 69L156.074 68.6093L155.484 70H156.995V69ZM168.235 42.52V41.52H167.573L167.314 42.1293L168.235 42.52ZM171.995 42.52L172.916 42.1293L172.657 41.52H171.995V42.52ZM183.235 69V70H184.746L184.156 68.6093L183.235 69ZM179.915 69L178.994 69.3887L179.252 70H179.915V69ZM176.675 61.32L177.596 60.9313L177.338 60.32H176.675V61.32ZM163.555 61.32V60.32H162.892L162.634 60.9313L163.555 61.32ZM160.315 69V70H160.978L161.236 69.3887L160.315 69ZM164.715 58.56L163.792 58.1744L163.213 59.56H164.715V58.56ZM175.515 58.56V59.56H177.017L176.438 58.1744L175.515 58.56ZM170.115 45.64L171.038 45.2544L170.115 43.0468L169.192 45.2544L170.115 45.64ZM156.995 69L157.916 69.3907L169.156 42.9107L168.235 42.52L167.314 42.1293L156.074 68.6093L156.995 69ZM168.235 42.52V43.52H171.995V42.52V41.52H168.235V42.52ZM171.995 42.52L171.074 42.9107L182.314 69.3907L183.235 69L184.156 68.6093L172.916 42.1293L171.995 42.52ZM183.235 69V68H179.915V69V70H183.235V69ZM179.915 69L180.836 68.6113L177.596 60.9313L176.675 61.32L175.754 61.7087L178.994 69.3887L179.915 69ZM176.675 61.32V60.32H163.555V61.32V62.32H176.675V61.32ZM163.555 61.32L162.634 60.9313L159.394 68.6113L160.315 69L161.236 69.3887L164.476 61.7087L163.555 61.32ZM160.315 69V68H156.995V69V70H160.315V69ZM164.715 58.56V59.56H175.515V58.56V57.56H164.715V58.56ZM175.515 58.56L176.438 58.1744L171.038 45.2544L170.115 45.64L169.192 46.0256L174.592 58.9456L175.515 58.56ZM170.115 45.64L169.192 45.2544L163.792 58.1744L164.715 58.56L165.638 58.9456L171.038 46.0256L170.115 45.64ZM191.787 69H190.787V70H191.787V69ZM191.787 58.52H192.787V58.2066L192.608 57.9493L191.787 58.52ZM180.667 42.52V41.52H178.754L179.846 43.0907L180.667 42.52ZM184.307 42.52L185.128 41.9489L184.829 41.52H184.307V42.52ZM193.267 55.4L192.446 55.9711L193.267 57.1511L194.088 55.9711L193.267 55.4ZM202.227 42.52V41.52H201.704L201.406 41.9489L202.227 42.52ZM205.867 42.52L206.689 43.0893L207.776 41.52H205.867V42.52ZM194.787 58.52L193.965 57.9507L193.787 58.2076V58.52H194.787ZM194.787 69V70H195.787V69H194.787ZM191.787 69H192.787V58.52H191.787H190.787V69H191.787ZM191.787 58.52L192.608 57.9493L181.488 41.9493L180.667 42.52L179.846 43.0907L190.966 59.0907L191.787 58.52ZM180.667 42.52V43.52H184.307V42.52V41.52H180.667V42.52ZM184.307 42.52L183.486 43.0911L192.446 55.9711L193.267 55.4L194.088 54.8289L185.128 41.9489L184.307 42.52ZM193.267 55.4L194.088 55.9711L203.048 43.0911L202.227 42.52L201.406 41.9489L192.446 54.8289L193.267 55.4ZM202.227 42.52V43.52H205.867V42.52V41.52H202.227V42.52ZM205.867 42.52L205.045 41.9507L193.965 57.9507L194.787 58.52L195.609 59.0893L206.689 43.0893L205.867 42.52ZM194.787 58.52H193.787V69H194.787H195.787V58.52H194.787ZM194.787 69V68H191.787V69V70H194.787V69ZM211.907 68.28L211.502 69.1945L211.515 69.1999L211.907 68.28ZM208.227 65.32L207.384 65.858L207.388 65.8643L207.392 65.8706L208.227 65.32ZM206.827 61.08V60.08H205.739L205.83 61.1644L206.827 61.08ZM209.947 61.08L210.945 61.0176L210.886 60.08H209.947V61.08ZM211.227 64.2L210.508 64.895L210.514 64.9011L210.52 64.9071L211.227 64.2ZM214.267 65.92L213.981 66.8784L213.987 66.88L214.267 65.92ZM223.787 65.32L224.296 66.1806L224.303 66.1768L224.309 66.1729L223.787 65.32ZM224.747 59.56L224.071 60.2972L224.087 60.3118L224.104 60.3257L224.747 59.56ZM222.147 58.12L221.817 59.0639L221.824 59.0663L222.147 58.12ZM218.627 57.12L218.384 58.0901L218.394 58.0925L218.403 58.0947L218.627 57.12ZM214.747 56.12L214.485 57.0852L214.49 57.0866L214.747 56.12ZM211.187 54.8L210.74 55.6945L210.748 55.6988L211.187 54.8ZM208.587 52.76L207.787 53.36L207.797 53.3741L207.808 53.3878L208.587 52.76ZM210.107 44.24L209.478 43.4627L209.472 43.4677L210.107 44.24ZM223.387 43.28L222.959 44.1837L222.965 44.1868L222.972 44.1898L223.387 43.28ZM226.787 46.04L225.949 46.5857L225.953 46.5924L225.958 46.5991L226.787 46.04ZM228.067 49.76V50.76H229.129L229.065 49.7001L228.067 49.76ZM224.987 49.76L223.994 49.8791L224.1 50.76H224.987V49.76ZM222.987 46.4L222.364 47.1827L222.375 47.1913L222.987 46.4ZM213.947 45.44L213.647 44.486L213.647 44.486L213.947 45.44ZM211.787 46.6L212.473 47.327L212.475 47.326L211.787 46.6ZM210.787 48.04L209.849 47.6943L209.84 47.7164L209.833 47.7389L210.787 48.04ZM211.507 51.64L210.848 52.3926L210.865 52.4071L210.882 52.4209L211.507 51.64ZM214.107 53L213.777 53.9439L213.791 53.9488L213.805 53.9532L214.107 53ZM221.587 54.96L221.307 55.92L221.319 55.9234L221.33 55.9266L221.587 54.96ZM225.147 56.32L224.682 57.2054L224.695 57.2123L224.708 57.2188L225.147 56.32ZM227.747 58.4L226.947 59L226.953 59.0079L226.959 59.0156L227.747 58.4ZM225.947 67.36L226.52 68.1793L226.528 68.1737L225.947 67.36ZM218.267 69.32V68.32C215.73 68.32 213.757 67.9816 212.299 67.3601L211.907 68.28L211.515 69.1999C213.31 69.9651 215.578 70.32 218.267 70.32V69.32ZM211.907 68.28L212.312 67.3656C210.827 66.7086 209.765 65.8352 209.062 64.7694L208.227 65.32L207.392 65.8706C208.342 67.3115 209.733 68.4114 211.502 69.1944L211.907 68.28ZM208.227 65.32L209.07 64.782C208.362 63.6736 207.944 62.4178 207.823 60.9956L206.827 61.08L205.83 61.1644C205.977 62.8889 206.491 64.4597 207.384 65.858L208.227 65.32ZM206.827 61.08V62.08H209.947V61.08V60.08H206.827V61.08ZM209.947 61.08L208.949 61.1424C209.041 62.6214 209.544 63.8983 210.508 64.895L211.227 64.2L211.946 63.505C211.363 62.9017 211.012 62.0986 210.945 61.0176L209.947 61.08ZM211.227 64.2L210.52 64.9071C211.432 65.8189 212.6 66.4669 213.981 66.8784L214.267 65.92L214.552 64.9616C213.427 64.6265 212.569 64.1278 211.934 63.4929L211.227 64.2ZM214.267 65.92L213.987 66.88C215.37 67.2833 216.865 67.48 218.467 67.48V66.48V65.48C217.029 65.48 215.724 65.3034 214.547 64.96L214.267 65.92ZM218.467 66.48V67.48C220.807 67.48 222.779 67.0786 224.296 66.1806L223.787 65.32L223.278 64.4594C222.182 65.1081 220.607 65.48 218.467 65.48V66.48ZM223.787 65.32L224.309 66.1729C225.916 65.189 226.747 63.6907 226.747 61.8H225.747H224.747C224.747 63.0027 224.271 63.851 223.265 64.4671L223.787 65.32ZM225.747 61.8H226.747C226.747 60.5955 226.301 59.5593 225.39 58.7943L224.747 59.56L224.104 60.3257C224.526 60.6807 224.747 61.1378 224.747 61.8H225.747ZM224.747 59.56L225.423 58.8228C224.653 58.1174 223.653 57.5776 222.47 57.1736L222.147 58.12L221.824 59.0663C222.827 59.4091 223.561 59.8292 224.071 60.2972L224.747 59.56ZM222.147 58.12L222.477 57.1761C221.37 56.7888 220.161 56.4456 218.85 56.1453L218.627 57.12L218.403 58.0947C219.653 58.3811 220.79 58.7046 221.817 59.0639L222.147 58.12ZM218.627 57.12L218.869 56.1499C217.594 55.831 216.305 55.4989 215.003 55.1534L214.747 56.12L214.49 57.0866C215.802 57.4344 217.1 57.769 218.384 58.0901L218.627 57.12ZM214.747 56.12L215.008 55.1548C213.784 54.8232 212.657 54.4045 211.625 53.9012L211.187 54.8L210.748 55.6988C211.903 56.2621 213.15 56.7235 214.485 57.0852L214.747 56.12ZM211.187 54.8L211.634 53.9056C210.68 53.4284 209.931 52.8343 209.365 52.1322L208.587 52.76L207.808 53.3878C208.576 54.339 209.561 55.1049 210.74 55.6944L211.187 54.8ZM208.587 52.76L209.387 52.16C208.904 51.5157 208.627 50.66 208.627 49.52H207.627H206.627C206.627 50.9933 206.99 52.2976 207.787 53.36L208.587 52.76ZM207.627 49.52H208.627C208.627 47.6559 209.322 46.1804 210.742 45.0123L210.107 44.24L209.472 43.4677C207.585 45.0196 206.627 47.0641 206.627 49.52H207.627ZM210.107 44.24L210.736 45.0172C212.165 43.8603 214.394 43.2 217.587 43.2V42.2V41.2C214.167 41.2 211.408 41.8997 209.478 43.4628L210.107 44.24ZM217.587 42.2V43.2C219.84 43.2 221.615 43.547 222.959 44.1837L223.387 43.28L223.815 42.3763C222.119 41.573 220.027 41.2 217.587 41.2V42.2ZM223.387 43.28L222.972 44.1898C224.357 44.8219 225.327 45.63 225.949 46.5857L226.787 46.04L227.625 45.4943C226.754 44.1566 225.456 43.1248 223.802 42.3702L223.387 43.28ZM226.787 46.04L225.958 46.5991C226.635 47.603 227 48.6716 227.069 49.8199L228.067 49.76L229.065 49.7001C228.974 48.1817 228.486 46.7703 227.616 45.4809L226.787 46.04ZM228.067 49.76V48.76H224.987V49.76V50.76H228.067V49.76ZM224.987 49.76L225.98 49.6409C225.784 48.0124 224.959 46.6605 223.598 45.6087L222.987 46.4L222.375 47.1913C223.361 47.9529 223.869 48.841 223.994 49.8791L224.987 49.76ZM222.987 46.4L223.609 45.6174C222.179 44.4795 220.11 44 217.587 44V45V46C219.917 46 221.448 46.4538 222.364 47.1826L222.987 46.4ZM217.587 45V44C216.039 44 214.714 44.1506 213.647 44.486L213.947 45.44L214.247 46.394C215.046 46.1427 216.148 46 217.587 46V45ZM213.947 45.44L213.647 44.486C212.623 44.8077 211.751 45.2563 211.099 45.874L211.787 46.6L212.475 47.326C212.836 46.9837 213.404 46.6589 214.247 46.394L213.947 45.44ZM211.787 46.6L211.1 45.873C210.533 46.4091 210.099 47.0141 209.849 47.6943L210.787 48.04L211.725 48.3857C211.848 48.0526 212.081 47.6976 212.473 47.327L211.787 46.6ZM210.787 48.04L209.833 47.7389C209.648 48.3266 209.547 48.9087 209.547 49.48H210.547H211.547C211.547 49.1446 211.606 48.7667 211.74 48.3411L210.787 48.04ZM210.547 49.48H209.547C209.547 50.6369 209.983 51.6353 210.848 52.3926L211.507 51.64L212.165 50.8874C211.751 50.5247 211.547 50.0831 211.547 49.48H210.547ZM211.507 51.64L210.882 52.4209C211.66 53.0434 212.636 53.5446 213.777 53.9439L214.107 53L214.437 52.0561C213.445 51.7088 212.687 51.3032 212.132 50.8591L211.507 51.64ZM214.107 53L213.805 53.9532C214.929 54.3099 216.158 54.6371 217.488 54.9357L217.707 53.96L217.926 52.9843C216.643 52.6962 215.471 52.3835 214.409 52.0468L214.107 53ZM217.707 53.96L217.488 54.9357C218.774 55.2245 220.047 55.5526 221.307 55.92L221.587 54.96L221.867 54C220.567 53.6208 219.253 53.2822 217.926 52.9843L217.707 53.96ZM221.587 54.96L221.33 55.9266C222.573 56.2563 223.689 56.6841 224.682 57.2054L225.147 56.32L225.612 55.4346C224.471 54.8359 223.214 54.357 221.843 53.9934L221.587 54.96ZM225.147 56.32L224.708 57.2188C225.679 57.6924 226.415 58.2903 226.947 59L227.747 58.4L228.547 57.8C227.799 56.803 226.801 56.0142 225.585 55.4212L225.147 56.32ZM227.747 58.4L226.959 59.0156C227.459 59.6556 227.747 60.5169 227.747 61.68H228.747H229.747C229.747 60.1765 229.368 58.8511 228.535 57.7844L227.747 58.4ZM228.747 61.68H227.747C227.747 63.8367 226.949 65.4154 225.366 66.5463L225.947 67.36L226.528 68.1737C228.678 66.6379 229.747 64.4299 229.747 61.68H228.747ZM225.947 67.36L225.373 66.5408C223.733 67.6892 221.399 68.32 218.267 68.32V69.32V70.32C221.641 70.32 224.428 69.6441 226.52 68.1792L225.947 67.36Z" fill="#DB8CFD" mask="url(#path-1-outside-1_180_93)"/>
</svg>
