<svg width="40" height="40" viewBox="0 0 40 40" fill="none" xmlns="http://www.w3.org/2000/svg">
<path d="M27.6833 35C26.5789 35 25.6417 34.6139 24.8717 33.8417C24.1028 33.0683 23.7183 32.1294 23.7183 31.025C23.7183 30.8583 23.7917 30.4378 23.9383 29.7633L11.9433 22.6417C11.5833 23.0572 11.1428 23.3833 10.6217 23.62C10.1006 23.8567 9.54111 23.975 8.94333 23.975C7.84778 23.975 6.91667 23.585 6.15 22.805C5.38333 22.025 5 21.09 5 20C5 18.91 5.38333 17.975 6.15 17.195C6.91667 16.415 7.84778 16.025 8.94333 16.025C9.54 16.025 10.0994 16.1433 10.6217 16.38C11.1439 16.6167 11.5844 16.9433 11.9433 17.36L23.94 10.2683C23.8622 10.0528 23.8061 9.83889 23.7717 9.62667C23.7361 9.41333 23.7183 9.19556 23.7183 8.97333C23.7183 7.87 24.1056 6.93167 24.88 6.15833C25.6544 5.38611 26.5944 5 27.7 5C28.8056 5 29.7433 5.38722 30.5133 6.16167C31.2833 6.93611 31.6678 7.87611 31.6667 8.98167C31.6656 10.0872 31.2794 11.025 30.5083 11.795C29.7372 12.565 28.7983 12.9494 27.6917 12.9483C27.0894 12.9483 26.5339 12.825 26.025 12.5783C25.5161 12.3317 25.0828 12 24.725 11.5833L12.7267 18.705C12.8044 18.9206 12.8606 19.135 12.895 19.3483C12.9306 19.5606 12.9483 19.7778 12.9483 20C12.9483 20.2222 12.9306 20.4394 12.895 20.6517C12.8594 20.8639 12.8039 21.0783 12.7283 21.295L24.725 28.4167C25.0839 28 25.5172 27.6683 26.025 27.4217C26.5339 27.175 27.0894 27.0517 27.6917 27.0517C28.7961 27.0517 29.735 27.4383 30.5083 28.2117C31.2806 28.9872 31.6667 29.9278 31.6667 31.0333C31.6667 32.1389 31.2794 33.0767 30.505 33.8467C29.7306 34.6167 28.7889 35.0011 27.6833 35ZM27.6917 33.3333C28.3461 33.3333 28.8944 33.1122 29.3367 32.67C29.7789 32.2278 30 31.68 30 31.0267C30 30.3733 29.7789 29.825 29.3367 29.3817C28.8944 28.9383 28.3467 28.7172 27.6933 28.7183C27.04 28.7194 26.4917 28.9406 26.0483 29.3817C25.605 29.8228 25.3839 30.3706 25.385 31.025C25.3861 31.6794 25.6072 32.2278 26.0483 32.67C26.4894 33.1122 27.0361 33.3333 27.6917 33.3333ZM8.94333 22.3067C9.60556 22.3067 10.1611 22.0856 10.61 21.6433C11.0578 21.2011 11.2817 20.6533 11.2817 20C11.2817 19.3467 11.0578 18.7989 10.61 18.3567C10.1622 17.9144 9.60667 17.6933 8.94333 17.6933C8.29778 17.6933 7.75722 17.9144 7.32167 18.3567C6.88611 18.7989 6.66778 19.3467 6.66667 20C6.66556 20.6533 6.88389 21.2017 7.32167 21.645C7.75944 22.0883 8.3 22.3089 8.94333 22.3067ZM27.6933 11.2817C28.3467 11.2817 28.8944 11.0606 29.3367 10.6183C29.7789 10.1761 30 9.62778 30 8.97333C30 8.31889 29.7789 7.77111 29.3367 7.33C28.8944 6.88889 28.3467 6.66778 27.6933 6.66667C27.04 6.66556 26.4917 6.88667 26.0483 7.33C25.605 7.77333 25.3839 8.32167 25.385 8.975C25.3861 9.62833 25.6072 10.1761 26.0483 10.6183C26.4894 11.0606 27.0378 11.2817 27.6933 11.2817Z" fill="white"/>
</svg>
