<svg width="299" height="103" viewBox="0 0 299 103" fill="none" xmlns="http://www.w3.org/2000/svg">
<path d="M12.9 95.2C11.6833 95.2 10.6167 94.9167 9.7 94.35C8.8 93.7667 8.1 92.9833 7.6 92C7.1 91.0167 6.85 89.9333 6.85 88.75C6.85 87.55 7.1 86.4667 7.6 85.5C8.1 84.5167 8.8 83.7417 9.7 83.175C10.6167 82.5917 11.6833 82.3 12.9 82.3C13.9333 82.3 14.8167 82.5 15.55 82.9C16.3 83.3 16.9083 83.8417 17.375 84.525V82.5H19.25V95H17.375V93C16.9083 93.6667 16.3 94.2 15.55 94.6C14.8167 95 13.9333 95.2 12.9 95.2ZM13.15 93.5C14.0833 93.5 14.8667 93.2833 15.5 92.85C16.15 92.4167 16.6417 91.8417 16.975 91.125C17.3083 90.3917 17.475 89.6 17.475 88.75C17.475 87.8833 17.3083 87.0917 16.975 86.375C16.6417 85.6583 16.15 85.0833 15.5 84.65C14.8667 84.2167 14.0833 84 13.15 84C12.2333 84 11.4417 84.2167 10.775 84.65C10.1083 85.0833 9.6 85.6583 9.25 86.375C8.9 87.0917 8.725 87.8833 8.725 88.75C8.725 89.6 8.9 90.3917 9.25 91.125C9.6 91.8417 10.1083 92.4167 10.775 92.85C11.4417 93.2833 12.2333 93.5 13.15 93.5ZM22.4932 95V82.5H24.3682V85.575C24.4348 85.3583 24.5598 85.075 24.7432 84.725C24.9432 84.3583 25.2265 83.9917 25.5932 83.625C25.9598 83.2583 26.4182 82.95 26.9682 82.7C27.5348 82.4333 28.2015 82.3 28.9682 82.3H29.0932V84.175H28.8682C27.9348 84.175 27.1265 84.4333 26.4432 84.95C25.7765 85.45 25.2598 86.1083 24.8932 86.925C24.5432 87.725 24.3682 88.5833 24.3682 89.5V95H22.4932ZM32.4613 95V84.15H29.9113V82.5H32.4613V78.025H34.3363V82.5H37.2113V84.15H34.3363V95H32.4613ZM39.1906 80.4V77.95H41.2156V80.4H39.1906ZM39.2656 95V82.5H41.1406V95H39.2656ZM48.9426 95.2C47.7926 95.2 46.8176 95.0083 46.0176 94.625C45.2342 94.2417 44.6342 93.7417 44.2176 93.125C43.8009 92.4917 43.5676 91.8083 43.5176 91.075H45.4676C45.5176 91.4917 45.6592 91.9 45.8926 92.3C46.1426 92.6833 46.5176 93 47.0176 93.25C47.5176 93.4833 48.1676 93.6 48.9676 93.6C49.2176 93.6 49.5259 93.575 49.8926 93.525C50.2592 93.475 50.6092 93.3833 50.9426 93.25C51.2926 93.1167 51.5842 92.9167 51.8176 92.65C52.0509 92.3833 52.1676 92.0417 52.1676 91.625C52.1676 91.1083 51.9676 90.7083 51.5676 90.425C51.1676 90.1417 50.6509 89.925 50.0176 89.775C49.3842 89.6083 48.7092 89.45 47.9926 89.3C47.2926 89.15 46.6259 88.9583 45.9926 88.725C45.3592 88.475 44.8426 88.1333 44.4426 87.7C44.0426 87.25 43.8426 86.6417 43.8426 85.875C43.8426 84.7417 44.2509 83.8667 45.0676 83.25C45.9009 82.6167 47.1259 82.3 48.7426 82.3C49.8426 82.3 50.7342 82.475 51.4176 82.825C52.1176 83.1583 52.6426 83.5917 52.9926 84.125C53.3592 84.6583 53.5759 85.2333 53.6426 85.85H51.7426C51.6759 85.3167 51.4092 84.8583 50.9426 84.475C50.4926 84.0917 49.7426 83.9 48.6926 83.9C46.7092 83.9 45.7176 84.5 45.7176 85.7C45.7176 86.2 45.9176 86.5833 46.3176 86.85C46.7176 87.1167 47.2342 87.3333 47.8676 87.5C48.5009 87.65 49.1676 87.8 49.8676 87.95C50.5842 88.0833 51.2592 88.275 51.8926 88.525C52.5259 88.775 53.0426 89.1333 53.4426 89.6C53.8426 90.05 54.0426 90.6667 54.0426 91.45C54.0426 92.6667 53.5759 93.6 52.6426 94.25C51.7259 94.8833 50.4926 95.2 48.9426 95.2ZM57.8031 95V84.15H55.2531V82.5H57.8031V78.025H59.6781V82.5H62.5531V84.15H59.6781V95H57.8031ZM69.6383 95.2C68.4216 95.2 67.3549 94.9167 66.4383 94.35C65.5383 93.7667 64.8383 92.9833 64.3383 92C63.8383 91.0167 63.5883 89.9333 63.5883 88.75C63.5883 87.55 63.8383 86.4667 64.3383 85.5C64.8383 84.5167 65.5383 83.7417 66.4383 83.175C67.3549 82.5917 68.4216 82.3 69.6383 82.3C70.6716 82.3 71.5549 82.5 72.2883 82.9C73.0383 83.3 73.6466 83.8417 74.1133 84.525V82.5H75.9883V95H74.1133V93C73.6466 93.6667 73.0383 94.2 72.2883 94.6C71.5549 95 70.6716 95.2 69.6383 95.2ZM69.8883 93.5C70.8216 93.5 71.6049 93.2833 72.2383 92.85C72.8883 92.4167 73.3799 91.8417 73.7133 91.125C74.0466 90.3917 74.2133 89.6 74.2133 88.75C74.2133 87.8833 74.0466 87.0917 73.7133 86.375C73.3799 85.6583 72.8883 85.0833 72.2383 84.65C71.6049 84.2167 70.8216 84 69.8883 84C68.9716 84 68.1799 84.2167 67.5133 84.65C66.8466 85.0833 66.3383 85.6583 65.9883 86.375C65.6383 87.0917 65.4633 87.8833 65.4633 88.75C65.4633 89.6 65.6383 90.3917 65.9883 91.125C66.3383 91.8417 66.8466 92.4167 67.5133 92.85C68.1799 93.2833 68.9716 93.5 69.8883 93.5Z" fill="#5EBD9A"/>
<mask id="path-2-outside-1_285_1057" maskUnits="userSpaceOnUse" x="0" y="5" width="223" height="70" fill="black">
<rect fill="white" y="5" width="223" height="70"/>
<path d="M5.12 32L5.92 26.28H1.8V23.68H6.28L7.08 17.92H3V15.32H7.44L8.28 9.6H10.88L10.04 15.32H14.68L15.52 9.6H18.12L17.28 15.32H21.44V17.92H16.92L16.12 23.68H20.24V26.28H15.76L14.96 32H12.36L13.16 26.28H8.52L7.72 32H5.12ZM8.88 23.68H13.52L14.32 17.92H9.68L8.88 23.68ZM26.4822 33V6.52H29.4822V20.32L44.2022 6.52H48.4422L37.1622 17.16L49.0822 33H45.3222L34.9622 19.2L29.4822 24.32V33H26.4822ZM52.1072 33V6.52H71.5872V9.4H55.1072V18.28H69.8272V21.2H55.1072V30.12H71.5872V33H52.1072ZM76.4431 33V6.52H79.9231L96.2831 28.8V6.52H99.2831V33H95.8031L79.4431 10.64V33H76.4431ZM105.779 33V6.52H116.939C118.512 6.52 120.019 6.82666 121.459 7.44C122.926 8.02666 124.232 8.89333 125.379 10.04C126.526 11.1867 127.432 12.5733 128.099 14.2C128.766 15.8267 129.099 17.68 129.099 19.76C129.099 21.84 128.766 23.6933 128.099 25.32C127.432 26.9467 126.526 28.3333 125.379 29.48C124.232 30.6267 122.926 31.5067 121.459 32.12C120.019 32.7067 118.512 33 116.939 33H105.779ZM108.779 30.16H116.819C118.712 30.16 120.352 29.68 121.739 28.72C123.126 27.76 124.192 26.4933 124.939 24.92C125.712 23.3467 126.099 21.6267 126.099 19.76C126.099 17.8667 125.712 16.1333 124.939 14.56C124.192 12.9867 123.126 11.7333 121.739 10.8C120.352 9.84 118.712 9.36 116.819 9.36H108.779V30.16ZM133.904 33V6.52H146.584C149.304 6.52 151.464 7.26666 153.064 8.76C154.691 10.2533 155.504 12.2667 155.504 14.8C155.504 16.5067 155.171 17.8667 154.504 18.88C153.864 19.8933 153.051 20.6667 152.064 21.2C151.077 21.7067 150.091 22.08 149.104 22.32L156.064 33H152.504L146.104 22.84H136.904V33H133.904ZM136.904 20H146.064C147.024 20 147.997 19.8533 148.984 19.56C149.971 19.2667 150.797 18.7467 151.464 18C152.157 17.2267 152.504 16.16 152.504 14.8C152.504 13.12 151.931 11.8 150.784 10.84C149.637 9.85333 148.117 9.36 146.224 9.36H136.904V20ZM160.662 33V6.52H163.662V33H160.662ZM181.274 33.32C178.634 33.32 176.354 32.72 174.434 31.52C172.514 30.2933 171.034 28.6533 169.994 26.6C168.981 24.5467 168.474 22.2667 168.474 19.76C168.474 17.2533 168.981 14.9733 169.994 12.92C171.034 10.8667 172.514 9.24 174.434 8.04C176.354 6.81333 178.634 6.2 181.274 6.2C183.274 6.2 185.074 6.56 186.674 7.28C188.274 7.97333 189.634 8.93333 190.754 10.16C191.874 11.3867 192.714 12.8133 193.274 14.44H190.114C189.447 12.8133 188.394 11.52 186.954 10.56C185.514 9.6 183.701 9.12 181.514 9.12C179.381 9.12 177.554 9.6 176.034 10.56C174.541 11.4933 173.407 12.76 172.634 14.36C171.861 15.96 171.474 17.76 171.474 19.76C171.474 21.7333 171.861 23.5333 172.634 25.16C173.407 26.76 174.541 28.04 176.034 29C177.554 29.9333 179.381 30.4 181.514 30.4C183.701 30.4 185.514 29.92 186.954 28.96C188.394 28 189.447 26.7067 190.114 25.08H193.274C192.714 26.68 191.874 28.1067 190.754 29.36C189.634 30.5867 188.274 31.56 186.674 32.28C185.074 32.9733 183.274 33.32 181.274 33.32ZM197.771 33V6.52H200.771V20.32L215.491 6.52H219.731L208.451 17.16L220.371 33H216.611L206.251 19.2L200.771 24.32V33H197.771ZM3.24 74V47.52H6.24V71.12H20.68V74H3.24ZM21.4481 74L32.6881 47.52H36.4481L47.6881 74H44.3681L41.1281 66.32H28.0081L24.7681 74H21.4481ZM29.1681 63.56H39.9681L34.5681 50.64L29.1681 63.56ZM51.0525 74V47.52H54.5325L64.0125 60.08L73.3325 47.52H76.8125V74H73.8125V52.08L64.0125 64.68L54.0525 52.08V74H51.0525ZM80.1591 74L91.3991 47.52H95.1591L106.399 74H103.079L99.8391 66.32H86.7191L83.4791 74H80.1591ZM87.8791 63.56H98.6791L93.2791 50.64L87.8791 63.56ZM109.763 74V47.52H122.443C125.163 47.52 127.323 48.2667 128.923 49.76C130.55 51.2533 131.363 53.2667 131.363 55.8C131.363 57.5067 131.03 58.8667 130.363 59.88C129.723 60.8933 128.91 61.6667 127.923 62.2C126.937 62.7067 125.95 63.08 124.963 63.32L131.923 74H128.363L121.963 63.84H112.763V74H109.763ZM112.763 61H121.923C122.883 61 123.857 60.8533 124.843 60.56C125.83 60.2667 126.657 59.7467 127.323 59C128.017 58.2267 128.363 57.16 128.363 55.8C128.363 54.12 127.79 52.8 126.643 51.84C125.497 50.8533 123.977 50.36 122.083 50.36H112.763V61Z"/>
</mask>
<path d="M5.12 32L5.92 26.28H1.8V23.68H6.28L7.08 17.92H3V15.32H7.44L8.28 9.6H10.88L10.04 15.32H14.68L15.52 9.6H18.12L17.28 15.32H21.44V17.92H16.92L16.12 23.68H20.24V26.28H15.76L14.96 32H12.36L13.16 26.28H8.52L7.72 32H5.12ZM8.88 23.68H13.52L14.32 17.92H9.68L8.88 23.68ZM26.4822 33V6.52H29.4822V20.32L44.2022 6.52H48.4422L37.1622 17.16L49.0822 33H45.3222L34.9622 19.2L29.4822 24.32V33H26.4822ZM52.1072 33V6.52H71.5872V9.4H55.1072V18.28H69.8272V21.2H55.1072V30.12H71.5872V33H52.1072ZM76.4431 33V6.52H79.9231L96.2831 28.8V6.52H99.2831V33H95.8031L79.4431 10.64V33H76.4431ZM105.779 33V6.52H116.939C118.512 6.52 120.019 6.82666 121.459 7.44C122.926 8.02666 124.232 8.89333 125.379 10.04C126.526 11.1867 127.432 12.5733 128.099 14.2C128.766 15.8267 129.099 17.68 129.099 19.76C129.099 21.84 128.766 23.6933 128.099 25.32C127.432 26.9467 126.526 28.3333 125.379 29.48C124.232 30.6267 122.926 31.5067 121.459 32.12C120.019 32.7067 118.512 33 116.939 33H105.779ZM108.779 30.16H116.819C118.712 30.16 120.352 29.68 121.739 28.72C123.126 27.76 124.192 26.4933 124.939 24.92C125.712 23.3467 126.099 21.6267 126.099 19.76C126.099 17.8667 125.712 16.1333 124.939 14.56C124.192 12.9867 123.126 11.7333 121.739 10.8C120.352 9.84 118.712 9.36 116.819 9.36H108.779V30.16ZM133.904 33V6.52H146.584C149.304 6.52 151.464 7.26666 153.064 8.76C154.691 10.2533 155.504 12.2667 155.504 14.8C155.504 16.5067 155.171 17.8667 154.504 18.88C153.864 19.8933 153.051 20.6667 152.064 21.2C151.077 21.7067 150.091 22.08 149.104 22.32L156.064 33H152.504L146.104 22.84H136.904V33H133.904ZM136.904 20H146.064C147.024 20 147.997 19.8533 148.984 19.56C149.971 19.2667 150.797 18.7467 151.464 18C152.157 17.2267 152.504 16.16 152.504 14.8C152.504 13.12 151.931 11.8 150.784 10.84C149.637 9.85333 148.117 9.36 146.224 9.36H136.904V20ZM160.662 33V6.52H163.662V33H160.662ZM181.274 33.32C178.634 33.32 176.354 32.72 174.434 31.52C172.514 30.2933 171.034 28.6533 169.994 26.6C168.981 24.5467 168.474 22.2667 168.474 19.76C168.474 17.2533 168.981 14.9733 169.994 12.92C171.034 10.8667 172.514 9.24 174.434 8.04C176.354 6.81333 178.634 6.2 181.274 6.2C183.274 6.2 185.074 6.56 186.674 7.28C188.274 7.97333 189.634 8.93333 190.754 10.16C191.874 11.3867 192.714 12.8133 193.274 14.44H190.114C189.447 12.8133 188.394 11.52 186.954 10.56C185.514 9.6 183.701 9.12 181.514 9.12C179.381 9.12 177.554 9.6 176.034 10.56C174.541 11.4933 173.407 12.76 172.634 14.36C171.861 15.96 171.474 17.76 171.474 19.76C171.474 21.7333 171.861 23.5333 172.634 25.16C173.407 26.76 174.541 28.04 176.034 29C177.554 29.9333 179.381 30.4 181.514 30.4C183.701 30.4 185.514 29.92 186.954 28.96C188.394 28 189.447 26.7067 190.114 25.08H193.274C192.714 26.68 191.874 28.1067 190.754 29.36C189.634 30.5867 188.274 31.56 186.674 32.28C185.074 32.9733 183.274 33.32 181.274 33.32ZM197.771 33V6.52H200.771V20.32L215.491 6.52H219.731L208.451 17.16L220.371 33H216.611L206.251 19.2L200.771 24.32V33H197.771ZM3.24 74V47.52H6.24V71.12H20.68V74H3.24ZM21.4481 74L32.6881 47.52H36.4481L47.6881 74H44.3681L41.1281 66.32H28.0081L24.7681 74H21.4481ZM29.1681 63.56H39.9681L34.5681 50.64L29.1681 63.56ZM51.0525 74V47.52H54.5325L64.0125 60.08L73.3325 47.52H76.8125V74H73.8125V52.08L64.0125 64.68L54.0525 52.08V74H51.0525ZM80.1591 74L91.3991 47.52H95.1591L106.399 74H103.079L99.8391 66.32H86.7191L83.4791 74H80.1591ZM87.8791 63.56H98.6791L93.2791 50.64L87.8791 63.56ZM109.763 74V47.52H122.443C125.163 47.52 127.323 48.2667 128.923 49.76C130.55 51.2533 131.363 53.2667 131.363 55.8C131.363 57.5067 131.03 58.8667 130.363 59.88C129.723 60.8933 128.91 61.6667 127.923 62.2C126.937 62.7067 125.95 63.08 124.963 63.32L131.923 74H128.363L121.963 63.84H112.763V74H109.763ZM112.763 61H121.923C122.883 61 123.857 60.8533 124.843 60.56C125.83 60.2667 126.657 59.7467 127.323 59C128.017 58.2267 128.363 57.16 128.363 55.8C128.363 54.12 127.79 52.8 126.643 51.84C125.497 50.8533 123.977 50.36 122.083 50.36H112.763V61Z" fill="white"/>
<path d="M5.12 32L4.12964 31.8615L3.97041 33H5.12V32ZM5.92 26.28L6.91036 26.4185L7.06959 25.28H5.92V26.28ZM1.8 26.28H0.8V27.28H1.8V26.28ZM1.8 23.68V22.68H0.8V23.68H1.8ZM6.28 23.68V24.68H7.15071L7.27049 23.8176L6.28 23.68ZM7.08 17.92L8.07049 18.0576L8.22849 16.92H7.08V17.92ZM3 17.92H2V18.92H3V17.92ZM3 15.32V14.32H2V15.32H3ZM7.44 15.32V16.32H8.30387L8.42939 15.4653L7.44 15.32ZM8.28 9.6V8.6H7.41613L7.29061 9.4547L8.28 9.6ZM10.88 9.6L11.8694 9.74529L12.0376 8.6H10.88V9.6ZM10.04 15.32L9.05061 15.1747L8.88242 16.32H10.04V15.32ZM14.68 15.32V16.32H15.5439L15.6694 15.4653L14.68 15.32ZM15.52 9.6V8.6H14.6561L14.5306 9.4547L15.52 9.6ZM18.12 9.6L19.1094 9.74529L19.2776 8.6H18.12V9.6ZM17.28 15.32L16.2906 15.1747L16.1224 16.32H17.28V15.32ZM21.44 15.32H22.44V14.32H21.44V15.32ZM21.44 17.92V18.92H22.44V17.92H21.44ZM16.92 17.92V16.92H16.0493L15.9295 17.7824L16.92 17.92ZM16.12 23.68L15.1295 23.5424L14.9715 24.68H16.12V23.68ZM20.24 23.68H21.24V22.68H20.24V23.68ZM20.24 26.28V27.28H21.24V26.28H20.24ZM15.76 26.28V25.28H14.8901L14.7696 26.1415L15.76 26.28ZM14.96 32V33H15.8299L15.9504 32.1385L14.96 32ZM12.36 32L11.3696 31.8615L11.2104 33H12.36V32ZM13.16 26.28L14.1504 26.4185L14.3096 25.28H13.16V26.28ZM8.52 26.28V25.28H7.65013L7.52964 26.1415L8.52 26.28ZM7.72 32V33H8.58987L8.71036 32.1385L7.72 32ZM8.88 23.68L7.88951 23.5424L7.73151 24.68H8.88V23.68ZM13.52 23.68V24.68H14.3907L14.5105 23.8176L13.52 23.68ZM14.32 17.92L15.3105 18.0576L15.4685 16.92H14.32V17.92ZM9.68 17.92V16.92H8.80929L8.68951 17.7824L9.68 17.92ZM5.12 32L6.11036 32.1385L6.91036 26.4185L5.92 26.28L4.92964 26.1415L4.12964 31.8615L5.12 32ZM5.92 26.28V25.28H1.8V26.28V27.28H5.92V26.28ZM1.8 26.28H2.8V23.68H1.8H0.8V26.28H1.8ZM1.8 23.68V24.68H6.28V23.68V22.68H1.8V23.68ZM6.28 23.68L7.27049 23.8176L8.07049 18.0576L7.08 17.92L6.08951 17.7824L5.28951 23.5424L6.28 23.68ZM7.08 17.92V16.92H3V17.92V18.92H7.08V17.92ZM3 17.92H4V15.32H3H2V17.92H3ZM3 15.32V16.32H7.44V15.32V14.32H3V15.32ZM7.44 15.32L8.42939 15.4653L9.26939 9.74529L8.28 9.6L7.29061 9.4547L6.45061 15.1747L7.44 15.32ZM8.28 9.6V10.6H10.88V9.6V8.6H8.28V9.6ZM10.88 9.6L9.89061 9.4547L9.05061 15.1747L10.04 15.32L11.0294 15.4653L11.8694 9.74529L10.88 9.6ZM10.04 15.32V16.32H14.68V15.32V14.32H10.04V15.32ZM14.68 15.32L15.6694 15.4653L16.5094 9.74529L15.52 9.6L14.5306 9.4547L13.6906 15.1747L14.68 15.32ZM15.52 9.6V10.6H18.12V9.6V8.6H15.52V9.6ZM18.12 9.6L17.1306 9.4547L16.2906 15.1747L17.28 15.32L18.2694 15.4653L19.1094 9.74529L18.12 9.6ZM17.28 15.32V16.32H21.44V15.32V14.32H17.28V15.32ZM21.44 15.32H20.44V17.92H21.44H22.44V15.32H21.44ZM21.44 17.92V16.92H16.92V17.92V18.92H21.44V17.92ZM16.92 17.92L15.9295 17.7824L15.1295 23.5424L16.12 23.68L17.1105 23.8176L17.9105 18.0576L16.92 17.92ZM16.12 23.68V24.68H20.24V23.68V22.68H16.12V23.68ZM20.24 23.68H19.24V26.28H20.24H21.24V23.68H20.24ZM20.24 26.28V25.28H15.76V26.28V27.28H20.24V26.28ZM15.76 26.28L14.7696 26.1415L13.9696 31.8615L14.96 32L15.9504 32.1385L16.7504 26.4185L15.76 26.28ZM14.96 32V31H12.36V32V33H14.96V32ZM12.36 32L13.3504 32.1385L14.1504 26.4185L13.16 26.28L12.1696 26.1415L11.3696 31.8615L12.36 32ZM13.16 26.28V25.28H8.52V26.28V27.28H13.16V26.28ZM8.52 26.28L7.52964 26.1415L6.72964 31.8615L7.72 32L8.71036 32.1385L9.51036 26.4185L8.52 26.28ZM7.72 32V31H5.12V32V33H7.72V32ZM8.88 23.68V24.68H13.52V23.68V22.68H8.88V23.68ZM13.52 23.68L14.5105 23.8176L15.3105 18.0576L14.32 17.92L13.3295 17.7824L12.5295 23.5424L13.52 23.68ZM14.32 17.92V16.92H9.68V17.92V18.92H14.32V17.92ZM9.68 17.92L8.68951 17.7824L7.88951 23.5424L8.88 23.68L9.87049 23.8176L10.6705 18.0576L9.68 17.92ZM26.4822 33H25.4822V34H26.4822V33ZM26.4822 6.52V5.52H25.4822V6.52H26.4822ZM29.4822 6.52H30.4822V5.52H29.4822V6.52ZM29.4822 20.32H28.4822V22.6282L30.1661 21.0495L29.4822 20.32ZM44.2022 6.52V5.52H43.8067L43.5182 5.79046L44.2022 6.52ZM48.4422 6.52L49.1284 7.24744L50.9597 5.52H48.4422V6.52ZM37.1622 17.16L36.476 16.4326L35.8252 17.0464L36.3632 17.7613L37.1622 17.16ZM49.0822 33V34H51.0862L49.8812 32.3987L49.0822 33ZM45.3222 33L44.5225 33.6004L44.8225 34H45.3222V33ZM34.9622 19.2L35.7619 18.5996L35.0933 17.709L34.2795 18.4693L34.9622 19.2ZM29.4822 24.32L28.7995 23.5893L28.4822 23.8858V24.32H29.4822ZM29.4822 33V34H30.4822V33H29.4822ZM26.4822 33H27.4822V6.52H26.4822H25.4822V33H26.4822ZM26.4822 6.52V7.52H29.4822V6.52V5.52H26.4822V6.52ZM29.4822 6.52H28.4822V20.32H29.4822H30.4822V6.52H29.4822ZM29.4822 20.32L30.1661 21.0495L44.8861 7.24953L44.2022 6.52L43.5182 5.79046L28.7982 19.5905L29.4822 20.32ZM44.2022 6.52V7.52H48.4422V6.52V5.52H44.2022V6.52ZM48.4422 6.52L47.756 5.79256L36.476 16.4326L37.1622 17.16L37.8484 17.8874L49.1284 7.24744L48.4422 6.52ZM37.1622 17.16L36.3632 17.7613L48.2832 33.6013L49.0822 33L49.8812 32.3987L37.9612 16.5587L37.1622 17.16ZM49.0822 33V32H45.3222V33V34H49.0822V33ZM45.3222 33L46.1219 32.3996L35.7619 18.5996L34.9622 19.2L34.1625 19.8004L44.5225 33.6004L45.3222 33ZM34.9622 19.2L34.2795 18.4693L28.7995 23.5893L29.4822 24.32L30.1649 25.0507L35.6449 19.9307L34.9622 19.2ZM29.4822 24.32H28.4822V33H29.4822H30.4822V24.32H29.4822ZM29.4822 33V32H26.4822V33V34H29.4822V33ZM52.1072 33H51.1072V34H52.1072V33ZM52.1072 6.52V5.52H51.1072V6.52H52.1072ZM71.5872 6.52H72.5872V5.52H71.5872V6.52ZM71.5872 9.4V10.4H72.5872V9.4H71.5872ZM55.1072 9.4V8.4H54.1072V9.4H55.1072ZM55.1072 18.28H54.1072V19.28H55.1072V18.28ZM69.8272 18.28H70.8272V17.28H69.8272V18.28ZM69.8272 21.2V22.2H70.8272V21.2H69.8272ZM55.1072 21.2V20.2H54.1072V21.2H55.1072ZM55.1072 30.12H54.1072V31.12H55.1072V30.12ZM71.5872 30.12H72.5872V29.12H71.5872V30.12ZM71.5872 33V34H72.5872V33H71.5872ZM52.1072 33H53.1072V6.52H52.1072H51.1072V33H52.1072ZM52.1072 6.52V7.52H71.5872V6.52V5.52H52.1072V6.52ZM71.5872 6.52H70.5872V9.4H71.5872H72.5872V6.52H71.5872ZM71.5872 9.4V8.4H55.1072V9.4V10.4H71.5872V9.4ZM55.1072 9.4H54.1072V18.28H55.1072H56.1072V9.4H55.1072ZM55.1072 18.28V19.28H69.8272V18.28V17.28H55.1072V18.28ZM69.8272 18.28H68.8272V21.2H69.8272H70.8272V18.28H69.8272ZM69.8272 21.2V20.2H55.1072V21.2V22.2H69.8272V21.2ZM55.1072 21.2H54.1072V30.12H55.1072H56.1072V21.2H55.1072ZM55.1072 30.12V31.12H71.5872V30.12V29.12H55.1072V30.12ZM71.5872 30.12H70.5872V33H71.5872H72.5872V30.12H71.5872ZM71.5872 33V32H52.1072V33V34H71.5872V33ZM76.4431 33H75.4431V34H76.4431V33ZM76.4431 6.52V5.52H75.4431V6.52H76.4431ZM79.9231 6.52L80.7292 5.92813L80.4295 5.52H79.9231V6.52ZM96.2831 28.8L95.4771 29.3919L97.2831 31.8514V28.8H96.2831ZM96.2831 6.52V5.52H95.2831V6.52H96.2831ZM99.2831 6.52H100.283V5.52H99.2831V6.52ZM99.2831 33V34H100.283V33H99.2831ZM95.8031 33L94.9961 33.5905L95.2957 34H95.8031V33ZM79.4431 10.64L80.2502 10.0495L78.4431 7.57973V10.64H79.4431ZM79.4431 33V34H80.4431V33H79.4431ZM76.4431 33H77.4431V6.52H76.4431H75.4431V33H76.4431ZM76.4431 6.52V7.52H79.9231V6.52V5.52H76.4431V6.52ZM79.9231 6.52L79.1171 7.11186L95.4771 29.3919L96.2831 28.8L97.0892 28.2081L80.7292 5.92813L79.9231 6.52ZM96.2831 28.8H97.2831V6.52H96.2831H95.2831V28.8H96.2831ZM96.2831 6.52V7.52H99.2831V6.52V5.52H96.2831V6.52ZM99.2831 6.52H98.2831V33H99.2831H100.283V6.52H99.2831ZM99.2831 33V32H95.8031V33V34H99.2831V33ZM95.8031 33L96.6102 32.4095L80.2502 10.0495L79.4431 10.64L78.6361 11.2305L94.9961 33.5905L95.8031 33ZM79.4431 10.64H78.4431V33H79.4431H80.4431V10.64H79.4431ZM79.4431 33V32H76.4431V33V34H79.4431V33ZM105.779 33H104.779V34H105.779V33ZM105.779 6.52V5.52H104.779V6.52H105.779ZM121.459 7.44L121.067 8.36002L121.077 8.36436L121.088 8.36847L121.459 7.44ZM128.099 14.2L129.024 13.8208V13.8208L128.099 14.2ZM128.099 25.32L129.024 25.6992V25.6992L128.099 25.32ZM125.379 29.48L126.086 30.1871L125.379 29.48ZM121.459 32.12L121.836 33.0461L121.845 33.0426L121.459 32.12ZM108.779 30.16H107.779V31.16H108.779V30.16ZM121.739 28.72L121.17 27.8978L121.739 28.72ZM124.939 24.92L124.042 24.4788L124.036 24.4913L124.939 24.92ZM124.939 14.56L124.036 14.9888L124.042 15.0011L124.939 14.56ZM121.739 10.8L121.17 11.6223L121.181 11.6296L121.739 10.8ZM108.779 9.36V8.36H107.779V9.36H108.779ZM105.779 33H106.779V6.52H105.779H104.779V33H105.779ZM105.779 6.52V7.52H116.939V6.52V5.52H105.779V6.52ZM116.939 6.52V7.52C118.378 7.52 119.752 7.79974 121.067 8.36002L121.459 7.44L121.851 6.51997C120.286 5.85358 118.646 5.52 116.939 5.52V6.52ZM121.459 7.44L121.088 8.36847C122.425 8.90349 123.618 9.69359 124.672 10.7471L125.379 10.04L126.086 9.33289C124.846 8.09307 123.426 7.14984 121.83 6.51152L121.459 7.44ZM125.379 10.04L124.672 10.7471C125.717 11.7924 126.553 13.0648 127.174 14.5792L128.099 14.2L129.024 13.8208C128.312 12.0818 127.334 10.5809 126.086 9.33289L125.379 10.04ZM128.099 14.2L127.174 14.5792C127.783 16.0656 128.099 17.7867 128.099 19.76H129.099H130.099C130.099 17.5733 129.749 15.5877 129.024 13.8208L128.099 14.2ZM129.099 19.76H128.099C128.099 21.7333 127.783 23.4544 127.174 24.9408L128.099 25.32L129.024 25.6992C129.749 23.9323 130.099 21.9467 130.099 19.76H129.099ZM128.099 25.32L127.174 24.9408C126.553 26.4552 125.717 27.7276 124.672 28.7729L125.379 29.48L126.086 30.1871C127.334 28.9391 128.312 27.4382 129.024 25.6992L128.099 25.32ZM125.379 29.48L124.672 28.7729C123.615 29.8294 122.417 30.6353 121.073 31.1974L121.459 32.12L121.845 33.0426C123.434 32.378 124.849 31.4239 126.086 30.1871L125.379 29.48ZM121.459 32.12L121.082 31.1939C119.763 31.7312 118.385 32 116.939 32V33V34C118.64 34 120.275 33.6822 121.836 33.0461L121.459 32.12ZM116.939 33V32H105.779V33V34H116.939V33ZM108.779 30.16V31.16H116.819V30.16V29.16H108.779V30.16ZM116.819 30.16V31.16C118.89 31.16 120.734 30.6319 122.308 29.5422L121.739 28.72L121.17 27.8978C119.971 28.7281 118.535 29.16 116.819 29.16V30.16ZM121.739 28.72L122.308 29.5422C123.844 28.4792 125.023 27.0748 125.842 25.3487L124.939 24.92L124.036 24.4913C123.361 25.9118 122.408 27.0408 121.17 27.8978L121.739 28.72ZM124.939 24.92L125.837 25.3611C126.682 23.6417 127.099 21.7695 127.099 19.76H126.099H125.099C125.099 21.4839 124.743 23.0516 124.042 24.4789L124.939 24.92ZM126.099 19.76H127.099C127.099 17.7262 126.683 15.8402 125.837 14.1189L124.939 14.56L124.042 15.0011C124.742 16.4264 125.099 18.0071 125.099 19.76H126.099ZM124.939 14.56L125.842 14.1313C125.022 12.4029 123.839 11.0083 122.297 9.97041L121.739 10.8L121.181 11.6296C122.412 12.4584 123.363 13.5705 124.036 14.9887L124.939 14.56ZM121.739 10.8L122.308 9.97781C120.734 8.8881 118.89 8.36 116.819 8.36V9.36V10.36C118.535 10.36 119.971 10.7919 121.17 11.6222L121.739 10.8ZM116.819 9.36V8.36H108.779V9.36V10.36H116.819V9.36ZM108.779 9.36H107.779V30.16H108.779H109.779V9.36H108.779ZM133.904 33H132.904V34H133.904V33ZM133.904 6.52V5.52H132.904V6.52H133.904ZM153.064 8.76L152.382 9.49108L152.388 9.49665L153.064 8.76ZM154.504 18.88L153.669 18.3304L153.664 18.3381L153.659 18.346L154.504 18.88ZM152.064 21.2L152.521 22.0896L152.53 22.0847L152.54 22.0797L152.064 21.2ZM149.104 22.32L148.868 21.3483L147.495 21.6823L148.266 22.866L149.104 22.32ZM156.064 33V34H157.909L156.902 32.454L156.064 33ZM152.504 33L151.658 33.533L151.952 34H152.504V33ZM146.104 22.84L146.95 22.307L146.656 21.84H146.104V22.84ZM136.904 22.84V21.84H135.904V22.84H136.904ZM136.904 33V34H137.904V33H136.904ZM136.904 20H135.904V21H136.904V20ZM148.984 19.56L148.699 18.6015L148.984 19.56ZM151.464 18L150.719 17.3325L150.718 17.334L151.464 18ZM150.784 10.84L150.132 11.5981L150.142 11.6068L150.784 10.84ZM136.904 9.36V8.36H135.904V9.36H136.904ZM133.904 33H134.904V6.52H133.904H132.904V33H133.904ZM133.904 6.52V7.52H146.584V6.52V5.52H133.904V6.52ZM146.584 6.52V7.52C149.115 7.52 151.009 8.20998 152.382 9.49105L153.064 8.76L153.746 8.02894C151.919 6.32335 149.493 5.52 146.584 5.52V6.52ZM153.064 8.76L152.388 9.49665C153.777 10.7719 154.504 12.5013 154.504 14.8H155.504H156.504C156.504 12.032 155.605 9.73472 153.74 8.02335L153.064 8.76ZM155.504 14.8H154.504C154.504 16.3877 154.193 17.5341 153.669 18.3304L154.504 18.88L155.339 19.4296C156.149 18.1993 156.504 16.6257 156.504 14.8H155.504ZM154.504 18.88L153.659 18.346C153.104 19.2245 152.414 19.8741 151.589 20.3203L152.064 21.2L152.54 22.0797C153.688 21.4592 154.624 20.5621 155.35 19.414L154.504 18.88ZM152.064 21.2L151.607 20.3104C150.684 20.7844 149.771 21.1286 148.868 21.3483L149.104 22.32L149.34 23.2917C150.41 23.0314 151.471 22.6289 152.521 22.0896L152.064 21.2ZM149.104 22.32L148.266 22.866L155.226 33.546L156.064 33L156.902 32.454L149.942 21.774L149.104 22.32ZM156.064 33V32H152.504V33V34H156.064V33ZM152.504 33L153.35 32.467L146.95 22.307L146.104 22.84L145.258 23.373L151.658 33.533L152.504 33ZM146.104 22.84V21.84H136.904V22.84V23.84H146.104V22.84ZM136.904 22.84H135.904V33H136.904H137.904V22.84H136.904ZM136.904 33V32H133.904V33V34H136.904V33ZM136.904 20V21H146.064V20V19H136.904V20ZM146.064 20V21C147.127 21 148.197 20.8374 149.269 20.5185L148.984 19.56L148.699 18.6015C147.798 18.8693 146.921 19 146.064 19V20ZM148.984 19.56L149.269 20.5185C150.428 20.1739 151.416 19.5551 152.21 18.666L151.464 18L150.718 17.334C150.179 17.9382 149.513 18.3594 148.699 18.6015L148.984 19.56ZM151.464 18L152.209 18.6675C153.112 17.66 153.504 16.3284 153.504 14.8H152.504H151.504C151.504 15.9916 151.203 16.7934 150.719 17.3325L151.464 18ZM152.504 14.8H153.504C153.504 12.8651 152.829 11.2481 151.426 10.0732L150.784 10.84L150.142 11.6068C151.032 12.3519 151.504 13.3749 151.504 14.8H152.504ZM150.784 10.84L151.436 10.082C150.066 8.90292 148.295 8.36 146.224 8.36V9.36V10.36C147.94 10.36 149.209 10.8037 150.132 11.598L150.784 10.84ZM146.224 9.36V8.36H136.904V9.36V10.36H146.224V9.36ZM136.904 9.36H135.904V20H136.904H137.904V9.36H136.904ZM160.662 33H159.662V34H160.662V33ZM160.662 6.52V5.52H159.662V6.52H160.662ZM163.662 6.52H164.662V5.52H163.662V6.52ZM163.662 33V34H164.662V33H163.662ZM160.662 33H161.662V6.52H160.662H159.662V33H160.662ZM160.662 6.52V7.52H163.662V6.52V5.52H160.662V6.52ZM163.662 6.52H162.662V33H163.662H164.662V6.52H163.662ZM163.662 33V32H160.662V33V34H163.662V33ZM174.434 31.52L173.896 32.3627L173.904 32.368L174.434 31.52ZM169.994 26.6L169.097 27.0426L169.102 27.0518L169.994 26.6ZM169.994 12.92L169.102 12.4681L169.097 12.4774L169.994 12.92ZM174.434 8.04L174.964 8.88804L174.972 8.8827L174.434 8.04ZM186.674 7.28L186.264 8.19201L186.276 8.19756L186.674 7.28ZM193.274 14.44V15.44H194.676L194.22 14.1145L193.274 14.44ZM190.114 14.44L189.189 14.8192L189.443 15.44H190.114V14.44ZM186.954 10.56L187.509 9.72795V9.72795L186.954 10.56ZM176.034 10.56L176.564 11.408L176.568 11.4055L176.034 10.56ZM172.634 14.36L171.734 13.9248L172.634 14.36ZM172.634 25.16L171.731 25.5894L171.734 25.5952L172.634 25.16ZM176.034 29L175.493 29.8412L175.502 29.8468L175.511 29.8522L176.034 29ZM186.954 28.96L187.509 29.792L186.954 28.96ZM190.114 25.08V24.08H189.443L189.189 24.7008L190.114 25.08ZM193.274 25.08L194.218 25.4104L194.684 24.08H193.274V25.08ZM190.754 29.36L191.493 30.0343L191.5 30.0263L190.754 29.36ZM186.674 32.28L187.072 33.1976L187.084 33.1919L186.674 32.28ZM181.274 33.32V32.32C178.79 32.32 176.7 31.7571 174.964 30.672L174.434 31.52L173.904 32.368C176.008 33.6829 178.478 34.32 181.274 34.32V33.32ZM174.434 31.52L174.972 30.6773C173.205 29.548 171.846 28.0436 170.886 26.1482L169.994 26.6L169.102 27.0518C170.222 29.263 171.823 31.0387 173.896 32.3627L174.434 31.52ZM169.994 26.6L170.891 26.1574C169.952 24.2544 169.474 22.128 169.474 19.76H168.474H167.474C167.474 22.4054 168.01 24.8389 169.097 27.0425L169.994 26.6ZM168.474 19.76H169.474C169.474 17.392 169.952 15.2656 170.891 13.3625L169.994 12.92L169.097 12.4774C168.01 14.6811 167.474 17.1146 167.474 19.76H168.474ZM169.994 12.92L170.886 13.3718C171.845 11.4782 173.201 9.98973 174.964 8.888L174.434 8.04L173.904 7.192C171.827 8.49026 170.223 10.2551 169.102 12.4682L169.994 12.92ZM174.434 8.04L174.972 8.8827C176.707 7.77422 178.794 7.2 181.274 7.2V6.2V5.2C178.474 5.2 176.001 5.85244 173.896 7.1973L174.434 8.04ZM181.274 6.2V7.2C183.152 7.2 184.81 7.53757 186.264 8.19192L186.674 7.28L187.084 6.36808C185.339 5.58242 183.396 5.2 181.274 5.2V6.2ZM186.674 7.28L186.276 8.19756C187.754 8.83762 188.995 9.71702 190.016 10.8343L190.754 10.16L191.493 9.48573C190.273 8.14964 188.795 7.10905 187.072 6.36244L186.674 7.28ZM190.754 10.16L190.016 10.8343C191.04 11.9564 191.811 13.2633 192.329 14.7655L193.274 14.44L194.22 14.1145C193.617 12.3634 192.708 10.8169 191.493 9.48573L190.754 10.16ZM193.274 14.44V13.44H190.114V14.44V15.44H193.274V14.44ZM190.114 14.44L191.039 14.0608C190.298 12.2527 189.117 10.8004 187.509 9.72795L186.954 10.56L186.399 11.392C187.671 12.2396 188.596 13.374 189.189 14.8192L190.114 14.44ZM186.954 10.56L187.509 9.72795C185.866 8.6328 183.846 8.12 181.514 8.12V9.12V10.12C183.555 10.12 185.162 10.5672 186.399 11.392L186.954 10.56ZM181.514 9.12V8.12C179.227 8.12 177.208 8.63605 175.5 9.71451L176.034 10.56L176.568 11.4055C177.9 10.5639 179.534 10.12 181.514 10.12V9.12ZM176.034 10.56L175.504 9.712C173.849 10.7462 172.588 12.1567 171.734 13.9248L172.634 14.36L173.534 14.7952C174.226 13.3633 175.232 12.2404 176.564 11.408L176.034 10.56ZM172.634 14.36L171.734 13.9248C170.887 15.6767 170.474 17.6283 170.474 19.76H171.474H172.474C172.474 17.8917 172.834 16.2433 173.534 14.7952L172.634 14.36ZM171.474 19.76H170.474C170.474 21.8675 170.888 23.8161 171.731 25.5894L172.634 25.16L173.537 24.7306C172.834 23.2505 172.474 21.5992 172.474 19.76H171.474ZM172.634 25.16L171.734 25.5952C172.587 27.3609 173.845 28.7814 175.493 29.8412L176.034 29L176.575 28.1588C175.237 27.2986 174.228 26.1591 173.534 24.7248L172.634 25.16ZM176.034 29L175.511 29.8522C177.217 30.8996 179.232 31.4 181.514 31.4V30.4V29.4C179.529 29.4 177.891 28.967 176.557 28.1478L176.034 29ZM181.514 30.4V31.4C183.846 31.4 185.866 30.8872 187.509 29.792L186.954 28.96L186.399 28.1279C185.162 28.9528 183.555 29.4 181.514 29.4V30.4ZM186.954 28.96L187.509 29.792C189.117 28.7196 190.298 27.2673 191.039 25.4592L190.114 25.08L189.189 24.7008C188.596 26.146 187.671 27.2804 186.399 28.128L186.954 28.96ZM190.114 25.08V26.08H193.274V25.08V24.08H190.114V25.08ZM193.274 25.08L192.33 24.7496C191.813 26.2268 191.04 27.5391 190.008 28.6937L190.754 29.36L191.5 30.0263C192.708 28.6742 193.615 27.1332 194.218 25.4104L193.274 25.08ZM190.754 29.36L190.016 28.6857C188.993 29.806 187.746 30.7009 186.264 31.3681L186.674 32.28L187.084 33.1919C188.802 32.4191 190.275 31.3673 191.493 30.0343L190.754 29.36ZM186.674 32.28L186.276 31.3624C184.819 31.994 183.157 32.32 181.274 32.32V33.32V34.32C183.391 34.32 185.329 33.9527 187.072 33.1976L186.674 32.28ZM197.771 33H196.771V34H197.771V33ZM197.771 6.52V5.52H196.771V6.52H197.771ZM200.771 6.52H201.771V5.52H200.771V6.52ZM200.771 20.32H199.771V22.6282L201.455 21.0495L200.771 20.32ZM215.491 6.52V5.52H215.096L214.807 5.79046L215.491 6.52ZM219.731 6.52L220.417 7.24744L222.249 5.52H219.731V6.52ZM208.451 17.16L207.765 16.4326L207.114 17.0464L207.652 17.7613L208.451 17.16ZM220.371 33V34H222.375L221.17 32.3987L220.371 33ZM216.611 33L215.812 33.6004L216.112 34H216.611V33ZM206.251 19.2L207.051 18.5996L206.382 17.709L205.569 18.4693L206.251 19.2ZM200.771 24.32L200.089 23.5893L199.771 23.8858V24.32H200.771ZM200.771 33V34H201.771V33H200.771ZM197.771 33H198.771V6.52H197.771H196.771V33H197.771ZM197.771 6.52V7.52H200.771V6.52V5.52H197.771V6.52ZM200.771 6.52H199.771V20.32H200.771H201.771V6.52H200.771ZM200.771 20.32L201.455 21.0495L216.175 7.24953L215.491 6.52L214.807 5.79046L200.087 19.5905L200.771 20.32ZM215.491 6.52V7.52H219.731V6.52V5.52H215.491V6.52ZM219.731 6.52L219.045 5.79256L207.765 16.4326L208.451 17.16L209.137 17.8874L220.417 7.24744L219.731 6.52ZM208.451 17.16L207.652 17.7613L219.572 33.6013L220.371 33L221.17 32.3987L209.25 16.5587L208.451 17.16ZM220.371 33V32H216.611V33V34H220.371V33ZM216.611 33L217.411 32.3996L207.051 18.5996L206.251 19.2L205.452 19.8004L215.812 33.6004L216.611 33ZM206.251 19.2L205.569 18.4693L200.089 23.5893L200.771 24.32L201.454 25.0507L206.934 19.9307L206.251 19.2ZM200.771 24.32H199.771V33H200.771H201.771V24.32H200.771ZM200.771 33V32H197.771V33V34H200.771V33ZM3.24 74H2.24V75H3.24V74ZM3.24 47.52V46.52H2.24V47.52H3.24ZM6.24 47.52H7.24V46.52H6.24V47.52ZM6.24 71.12H5.24V72.12H6.24V71.12ZM20.68 71.12H21.68V70.12H20.68V71.12ZM20.68 74V75H21.68V74H20.68ZM3.24 74H4.24V47.52H3.24H2.24V74H3.24ZM3.24 47.52V48.52H6.24V47.52V46.52H3.24V47.52ZM6.24 47.52H5.24V71.12H6.24H7.24V47.52H6.24ZM6.24 71.12V72.12H20.68V71.12V70.12H6.24V71.12ZM20.68 71.12H19.68V74H20.68H21.68V71.12H20.68ZM20.68 74V73H3.24V74V75H20.68V74ZM21.4481 74L20.5276 73.6093L19.9373 75H21.4481V74ZM32.6881 47.52V46.52H32.0262L31.7676 47.1293L32.6881 47.52ZM36.4481 47.52L37.3686 47.1293L37.11 46.52H36.4481V47.52ZM47.6881 74V75H49.199L48.6086 73.6093L47.6881 74ZM44.3681 74L43.4468 74.3887L43.7047 75H44.3681V74ZM41.1281 66.32L42.0495 65.9313L41.7916 65.32H41.1281V66.32ZM28.0081 66.32V65.32H27.3447L27.0868 65.9313L28.0081 66.32ZM24.7681 74V75H25.4316L25.6895 74.3887L24.7681 74ZM29.1681 63.56L28.2455 63.1744L27.6663 64.56H29.1681V63.56ZM39.9681 63.56V64.56H41.4699L40.8908 63.1744L39.9681 63.56ZM34.5681 50.64L35.4908 50.2544L34.5681 48.0468L33.6455 50.2544L34.5681 50.64ZM21.4481 74L22.3686 74.3907L33.6086 47.9107L32.6881 47.52L31.7676 47.1293L20.5276 73.6093L21.4481 74ZM32.6881 47.52V48.52H36.4481V47.52V46.52H32.6881V47.52ZM36.4481 47.52L35.5276 47.9107L46.7676 74.3907L47.6881 74L48.6086 73.6093L37.3686 47.1293L36.4481 47.52ZM47.6881 74V73H44.3681V74V75H47.6881V74ZM44.3681 74L45.2895 73.6113L42.0495 65.9313L41.1281 66.32L40.2068 66.7087L43.4468 74.3887L44.3681 74ZM41.1281 66.32V65.32H28.0081V66.32V67.32H41.1281V66.32ZM28.0081 66.32L27.0868 65.9313L23.8468 73.6113L24.7681 74L25.6895 74.3887L28.9295 66.7087L28.0081 66.32ZM24.7681 74V73H21.4481V74V75H24.7681V74ZM29.1681 63.56V64.56H39.9681V63.56V62.56H29.1681V63.56ZM39.9681 63.56L40.8908 63.1744L35.4908 50.2544L34.5681 50.64L33.6455 51.0256L39.0455 63.9456L39.9681 63.56ZM34.5681 50.64L33.6455 50.2544L28.2455 63.1744L29.1681 63.56L30.0908 63.9456L35.4908 51.0256L34.5681 50.64ZM51.0525 74H50.0525V75H51.0525V74ZM51.0525 47.52V46.52H50.0525V47.52H51.0525ZM54.5325 47.52L55.3307 46.9176L55.0306 46.52H54.5325V47.52ZM64.0125 60.08L63.2143 60.6824L64.0193 61.749L64.8156 60.6759L64.0125 60.08ZM73.3325 47.52V46.52H72.8293L72.5294 46.9241L73.3325 47.52ZM76.8125 47.52H77.8125V46.52H76.8125V47.52ZM76.8125 74V75H77.8125V74H76.8125ZM73.8125 74H72.8125V75H73.8125V74ZM73.8125 52.08H74.8125V49.1655L73.0231 51.4661L73.8125 52.08ZM64.0125 64.68L63.228 65.3001L64.0189 66.3006L64.8019 65.2939L64.0125 64.68ZM54.0525 52.08L54.837 51.4599L53.0525 49.2024V52.08H54.0525ZM54.0525 74V75H55.0525V74H54.0525ZM51.0525 74H52.0525V47.52H51.0525H50.0525V74H51.0525ZM51.0525 47.52V48.52H54.5325V47.52V46.52H51.0525V47.52ZM54.5325 47.52L53.7343 48.1224L63.2143 60.6824L64.0125 60.08L64.8107 59.4776L55.3307 46.9176L54.5325 47.52ZM64.0125 60.08L64.8156 60.6759L74.1356 48.1159L73.3325 47.52L72.5294 46.9241L63.2094 59.4841L64.0125 60.08ZM73.3325 47.52V48.52H76.8125V47.52V46.52H73.3325V47.52ZM76.8125 47.52H75.8125V74H76.8125H77.8125V47.52H76.8125ZM76.8125 74V73H73.8125V74V75H76.8125V74ZM73.8125 74H74.8125V52.08H73.8125H72.8125V74H73.8125ZM73.8125 52.08L73.0231 51.4661L63.2231 64.0661L64.0125 64.68L64.8019 65.2939L74.6019 52.6939L73.8125 52.08ZM64.0125 64.68L64.797 64.0599L54.837 51.4599L54.0525 52.08L53.268 52.7001L63.228 65.3001L64.0125 64.68ZM54.0525 52.08H53.0525V74H54.0525H55.0525V52.08H54.0525ZM54.0525 74V73H51.0525V74V75H54.0525V74ZM80.1591 74L79.2386 73.6093L78.6482 75H80.1591V74ZM91.3991 47.52V46.52H90.7372L90.4786 47.1293L91.3991 47.52ZM95.1591 47.52L96.0796 47.1293L95.821 46.52H95.1591V47.52ZM106.399 74V75H107.91L107.32 73.6093L106.399 74ZM103.079 74L102.158 74.3887L102.416 75H103.079V74ZM99.8391 66.32L100.76 65.9313L100.503 65.32H99.8391V66.32ZM86.7191 66.32V65.32H86.0556L85.7977 65.9313L86.7191 66.32ZM83.4791 74V75H84.1425L84.4004 74.3887L83.4791 74ZM87.8791 63.56L86.9564 63.1744L86.3773 64.56H87.8791V63.56ZM98.6791 63.56V64.56H100.181L99.6017 63.1744L98.6791 63.56ZM93.2791 50.64L94.2017 50.2544L93.2791 48.0468L92.3564 50.2544L93.2791 50.64ZM80.1591 74L81.0796 74.3907L92.3196 47.9107L91.3991 47.52L90.4786 47.1293L79.2386 73.6093L80.1591 74ZM91.3991 47.52V48.52H95.1591V47.52V46.52H91.3991V47.52ZM95.1591 47.52L94.2386 47.9107L105.479 74.3907L106.399 74L107.32 73.6093L96.0796 47.1293L95.1591 47.52ZM106.399 74V73H103.079V74V75H106.399V74ZM103.079 74L104 73.6113L100.76 65.9313L99.8391 66.32L98.9177 66.7087L102.158 74.3887L103.079 74ZM99.8391 66.32V65.32H86.7191V66.32V67.32H99.8391V66.32ZM86.7191 66.32L85.7977 65.9313L82.5577 73.6113L83.4791 74L84.4004 74.3887L87.6404 66.7087L86.7191 66.32ZM83.4791 74V73H80.1591V74V75H83.4791V74ZM87.8791 63.56V64.56H98.6791V63.56V62.56H87.8791V63.56ZM98.6791 63.56L99.6017 63.1744L94.2017 50.2544L93.2791 50.64L92.3564 51.0256L97.7564 63.9456L98.6791 63.56ZM93.2791 50.64L92.3564 50.2544L86.9564 63.1744L87.8791 63.56L88.8017 63.9456L94.2017 51.0256L93.2791 50.64ZM109.763 74H108.763V75H109.763V74ZM109.763 47.52V46.52H108.763V47.52H109.763ZM128.923 49.76L128.241 50.4911L128.247 50.4967L128.923 49.76ZM130.363 59.88L129.528 59.3304L129.523 59.3381L129.518 59.346L130.363 59.88ZM127.923 62.2L128.38 63.0896L128.39 63.0847L128.399 63.0797L127.923 62.2ZM124.963 63.32L124.727 62.3483L123.354 62.6823L124.126 63.866L124.963 63.32ZM131.923 74V75H133.769L132.761 73.454L131.923 74ZM128.363 74L127.517 74.533L127.811 75H128.363V74ZM121.963 63.84L122.81 63.307L122.515 62.84H121.963V63.84ZM112.763 63.84V62.84H111.763V63.84H112.763ZM112.763 74V75H113.763V74H112.763ZM112.763 61H111.763V62H112.763V61ZM124.843 60.56L124.558 59.6015L124.843 60.56ZM127.323 59L126.579 58.3325L126.577 58.334L127.323 59ZM126.643 51.84L125.991 52.5981L126.002 52.6068L126.643 51.84ZM112.763 50.36V49.36H111.763V50.36H112.763ZM109.763 74H110.763V47.52H109.763H108.763V74H109.763ZM109.763 47.52V48.52H122.443V47.52V46.52H109.763V47.52ZM122.443 47.52V48.52C124.975 48.52 126.869 49.21 128.241 50.4911L128.923 49.76L129.606 49.0289C127.778 47.3234 125.352 46.52 122.443 46.52V47.52ZM128.923 49.76L128.247 50.4967C129.636 51.7719 130.363 53.5013 130.363 55.8H131.363H132.363C132.363 53.032 131.464 50.7347 129.6 49.0233L128.923 49.76ZM131.363 55.8H130.363C130.363 57.3876 130.052 58.5341 129.528 59.3304L130.363 59.88L131.199 60.4296C132.008 59.1993 132.363 57.6257 132.363 55.8H131.363ZM130.363 59.88L129.518 59.346C128.963 60.2245 128.273 60.8741 127.448 61.3203L127.923 62.2L128.399 63.0797C129.547 62.4592 130.484 61.5621 131.209 60.414L130.363 59.88ZM127.923 62.2L127.467 61.3104C126.544 61.7844 125.631 62.1286 124.727 62.3483L124.963 63.32L125.2 64.2917C126.27 64.0314 127.33 63.6289 128.38 63.0896L127.923 62.2ZM124.963 63.32L124.126 63.866L131.086 74.546L131.923 74L132.761 73.454L125.801 62.774L124.963 63.32ZM131.923 74V73H128.363V74V75H131.923V74ZM128.363 74L129.21 73.467L122.81 63.307L121.963 63.84L121.117 64.373L127.517 74.533L128.363 74ZM121.963 63.84V62.84H112.763V63.84V64.84H121.963V63.84ZM112.763 63.84H111.763V74H112.763H113.763V63.84H112.763ZM112.763 74V73H109.763V74V75H112.763V74ZM112.763 61V62H121.923V61V60H112.763V61ZM121.923 61V62C122.987 62 124.056 61.8374 125.128 61.5185L124.843 60.56L124.558 59.6015C123.658 59.8693 122.78 60 121.923 60V61ZM124.843 60.56L125.128 61.5185C126.288 61.1739 127.276 60.5551 128.069 59.666L127.323 59L126.577 58.334C126.038 58.9382 125.373 59.3594 124.558 59.6015L124.843 60.56ZM127.323 59L128.068 59.6675C128.971 58.66 129.363 57.3284 129.363 55.8H128.363H127.363C127.363 56.9916 127.062 57.7934 126.579 58.3325L127.323 59ZM128.363 55.8H129.363C129.363 53.8651 128.689 52.2481 127.285 51.0732L126.643 51.84L126.002 52.6068C126.892 53.3519 127.363 54.3749 127.363 55.8H128.363ZM126.643 51.84L127.296 51.082C125.925 49.9029 124.154 49.36 122.083 49.36V50.36V51.36C123.8 51.36 125.068 51.8037 125.991 52.598L126.643 51.84ZM122.083 50.36V49.36H112.763V50.36V51.36H122.083V50.36ZM112.763 50.36H111.763V61H112.763H113.763V50.36H112.763Z" fill="#DB8CFD" mask="url(#path-2-outside-1_285_1057)"/>
</svg>
