<svg width="229" height="92" viewBox="0 0 229 92" fill="none" xmlns="http://www.w3.org/2000/svg">
<mask id="path-1-outside-1_285_1061" maskUnits="userSpaceOnUse" x="2" y="9" width="199" height="50" fill="black">
<rect fill="white" x="2" y="9" width="199" height="50"/>
<path d="M8.96 55.25L10.36 45.24H3.15V40.69H10.99L12.39 30.61H5.25V26.06H13.02L14.49 16.05H19.04L17.57 26.06H25.69L27.16 16.05H31.71L30.24 26.06H37.52V30.61H29.61L28.21 40.69H35.42V45.24H27.58L26.18 55.25H21.63L23.03 45.24H14.91L13.51 55.25H8.96ZM15.54 40.69H23.66L25.06 30.61H16.94L15.54 40.69ZM57.8238 57V15.63H41.6538V10.66H79.2438V15.63H63.0738V57H57.8238ZM104.521 57.56C101.021 57.56 97.8248 56.9533 94.9315 55.74C92.0382 54.5267 89.5415 52.8233 87.4415 50.63C85.3882 48.4367 83.8015 45.9167 82.6815 43.07C81.5615 40.1767 81.0015 37.0967 81.0015 33.83C81.0015 30.5167 81.5615 27.4367 82.6815 24.59C83.8015 21.7433 85.3882 19.2233 87.4415 17.03C89.5415 14.8367 92.0382 13.1333 94.9315 11.92C97.8248 10.7067 101.021 10.1 104.521 10.1C108.021 10.1 111.218 10.7067 114.111 11.92C117.005 13.1333 119.478 14.8367 121.531 17.03C123.631 19.2233 125.241 21.7433 126.361 24.59C127.481 27.4367 128.041 30.5167 128.041 33.83C128.041 37.0967 127.481 40.1767 126.361 43.07C125.241 45.9167 123.631 48.4367 121.531 50.63C119.478 52.8233 117.005 54.5267 114.111 55.74C111.218 56.9533 108.021 57.56 104.521 57.56ZM104.521 52.45C108.301 52.45 111.545 51.6333 114.251 50C117.005 48.32 119.105 46.08 120.551 43.28C122.045 40.4333 122.791 37.2833 122.791 33.83C122.791 30.33 122.045 27.18 120.551 24.38C119.105 21.58 117.005 19.3633 114.251 17.73C111.545 16.05 108.301 15.21 104.521 15.21C100.788 15.21 97.5448 16.05 94.7915 17.73C92.0382 19.3633 89.9148 21.58 88.4215 24.38C86.9748 27.18 86.2515 30.33 86.2515 33.83C86.2515 37.2833 86.9748 40.4333 88.4215 43.28C89.9148 46.08 92.0382 48.32 94.7915 50C97.5448 51.6333 100.788 52.45 104.521 52.45ZM136.441 57V10.66H157.301C162.248 10.66 166.145 12.0133 168.991 14.72C171.838 17.38 173.261 20.9967 173.261 25.57C173.261 30.1433 171.838 33.7833 168.991 36.49C166.145 39.15 162.248 40.48 157.301 40.48H141.691V57H136.441ZM141.691 35.58H156.951C160.591 35.58 163.345 34.6933 165.211 32.92C167.078 31.1467 168.011 28.6967 168.011 25.57C168.011 22.49 167.078 20.0633 165.211 18.29C163.345 16.5167 160.591 15.63 156.951 15.63H141.691V35.58ZM193.977 57V15.7H184.177V10.66H199.227V57H193.977Z"/>
</mask>
<path d="M8.96 55.25L10.36 45.24H3.15V40.69H10.99L12.39 30.61H5.25V26.06H13.02L14.49 16.05H19.04L17.57 26.06H25.69L27.16 16.05H31.71L30.24 26.06H37.52V30.61H29.61L28.21 40.69H35.42V45.24H27.58L26.18 55.25H21.63L23.03 45.24H14.91L13.51 55.25H8.96ZM15.54 40.69H23.66L25.06 30.61H16.94L15.54 40.69ZM57.8238 57V15.63H41.6538V10.66H79.2438V15.63H63.0738V57H57.8238ZM104.521 57.56C101.021 57.56 97.8248 56.9533 94.9315 55.74C92.0382 54.5267 89.5415 52.8233 87.4415 50.63C85.3882 48.4367 83.8015 45.9167 82.6815 43.07C81.5615 40.1767 81.0015 37.0967 81.0015 33.83C81.0015 30.5167 81.5615 27.4367 82.6815 24.59C83.8015 21.7433 85.3882 19.2233 87.4415 17.03C89.5415 14.8367 92.0382 13.1333 94.9315 11.92C97.8248 10.7067 101.021 10.1 104.521 10.1C108.021 10.1 111.218 10.7067 114.111 11.92C117.005 13.1333 119.478 14.8367 121.531 17.03C123.631 19.2233 125.241 21.7433 126.361 24.59C127.481 27.4367 128.041 30.5167 128.041 33.83C128.041 37.0967 127.481 40.1767 126.361 43.07C125.241 45.9167 123.631 48.4367 121.531 50.63C119.478 52.8233 117.005 54.5267 114.111 55.74C111.218 56.9533 108.021 57.56 104.521 57.56ZM104.521 52.45C108.301 52.45 111.545 51.6333 114.251 50C117.005 48.32 119.105 46.08 120.551 43.28C122.045 40.4333 122.791 37.2833 122.791 33.83C122.791 30.33 122.045 27.18 120.551 24.38C119.105 21.58 117.005 19.3633 114.251 17.73C111.545 16.05 108.301 15.21 104.521 15.21C100.788 15.21 97.5448 16.05 94.7915 17.73C92.0382 19.3633 89.9148 21.58 88.4215 24.38C86.9748 27.18 86.2515 30.33 86.2515 33.83C86.2515 37.2833 86.9748 40.4333 88.4215 43.28C89.9148 46.08 92.0382 48.32 94.7915 50C97.5448 51.6333 100.788 52.45 104.521 52.45ZM136.441 57V10.66H157.301C162.248 10.66 166.145 12.0133 168.991 14.72C171.838 17.38 173.261 20.9967 173.261 25.57C173.261 30.1433 171.838 33.7833 168.991 36.49C166.145 39.15 162.248 40.48 157.301 40.48H141.691V57H136.441ZM141.691 35.58H156.951C160.591 35.58 163.345 34.6933 165.211 32.92C167.078 31.1467 168.011 28.6967 168.011 25.57C168.011 22.49 167.078 20.0633 165.211 18.29C163.345 16.5167 160.591 15.63 156.951 15.63H141.691V35.58ZM193.977 57V15.7H184.177V10.66H199.227V57H193.977Z" fill="#FF8C09"/>
<path d="M8.96 55.25L7.96964 55.1115L7.81041 56.25H8.96V55.25ZM10.36 45.24L11.3504 45.3785L11.5096 44.24H10.36V45.24ZM3.15 45.24H2.15V46.24H3.15V45.24ZM3.15 40.69V39.69H2.15V40.69H3.15ZM10.99 40.69V41.69H11.8607L11.9805 40.8276L10.99 40.69ZM12.39 30.61L13.3805 30.7476L13.5385 29.61H12.39V30.61ZM5.25 30.61H4.25V31.61H5.25V30.61ZM5.25 26.06V25.06H4.25V26.06H5.25ZM13.02 26.06V27.06H13.8839L14.0094 26.2053L13.02 26.06ZM14.49 16.05V15.05H13.6261L13.5006 15.9047L14.49 16.05ZM19.04 16.05L20.0294 16.1953L20.1976 15.05H19.04V16.05ZM17.57 26.06L16.5806 25.9147L16.4124 27.06H17.57V26.06ZM25.69 26.06V27.06H26.5539L26.6794 26.2053L25.69 26.06ZM27.16 16.05V15.05H26.2961L26.1706 15.9047L27.16 16.05ZM31.71 16.05L32.6994 16.1953L32.8676 15.05H31.71V16.05ZM30.24 26.06L29.2506 25.9147L29.0824 27.06H30.24V26.06ZM37.52 26.06H38.52V25.06H37.52V26.06ZM37.52 30.61V31.61H38.52V30.61H37.52ZM29.61 30.61V29.61H28.7393L28.6195 30.4724L29.61 30.61ZM28.21 40.69L27.2195 40.5524L27.0615 41.69H28.21V40.69ZM35.42 40.69H36.42V39.69H35.42V40.69ZM35.42 45.24V46.24H36.42V45.24H35.42ZM27.58 45.24V44.24H26.7101L26.5896 45.1015L27.58 45.24ZM26.18 55.25V56.25H27.0499L27.1704 55.3885L26.18 55.25ZM21.63 55.25L20.6396 55.1115L20.4804 56.25H21.63V55.25ZM23.03 45.24L24.0204 45.3785L24.1796 44.24H23.03V45.24ZM14.91 45.24V44.24H14.0401L13.9196 45.1015L14.91 45.24ZM13.51 55.25V56.25H14.3799L14.5004 55.3885L13.51 55.25ZM15.54 40.69L14.5495 40.5524L14.3915 41.69H15.54V40.69ZM23.66 40.69V41.69H24.5307L24.6505 40.8276L23.66 40.69ZM25.06 30.61L26.0505 30.7476L26.2085 29.61H25.06V30.61ZM16.94 30.61V29.61H16.0693L15.9495 30.4724L16.94 30.61ZM8.96 55.25L9.95036 55.3885L11.3504 45.3785L10.36 45.24L9.36964 45.1015L7.96964 55.1115L8.96 55.25ZM10.36 45.24V44.24H3.15V45.24V46.24H10.36V45.24ZM3.15 45.24H4.15V40.69H3.15H2.15V45.24H3.15ZM3.15 40.69V41.69H10.99V40.69V39.69H3.15V40.69ZM10.99 40.69L11.9805 40.8276L13.3805 30.7476L12.39 30.61L11.3995 30.4724L9.99951 40.5524L10.99 40.69ZM12.39 30.61V29.61H5.25V30.61V31.61H12.39V30.61ZM5.25 30.61H6.25V26.06H5.25H4.25V30.61H5.25ZM5.25 26.06V27.06H13.02V26.06V25.06H5.25V26.06ZM13.02 26.06L14.0094 26.2053L15.4794 16.1953L14.49 16.05L13.5006 15.9047L12.0306 25.9147L13.02 26.06ZM14.49 16.05V17.05H19.04V16.05V15.05H14.49V16.05ZM19.04 16.05L18.0506 15.9047L16.5806 25.9147L17.57 26.06L18.5594 26.2053L20.0294 16.1953L19.04 16.05ZM17.57 26.06V27.06H25.69V26.06V25.06H17.57V26.06ZM25.69 26.06L26.6794 26.2053L28.1494 16.1953L27.16 16.05L26.1706 15.9047L24.7006 25.9147L25.69 26.06ZM27.16 16.05V17.05H31.71V16.05V15.05H27.16V16.05ZM31.71 16.05L30.7206 15.9047L29.2506 25.9147L30.24 26.06L31.2294 26.2053L32.6994 16.1953L31.71 16.05ZM30.24 26.06V27.06H37.52V26.06V25.06H30.24V26.06ZM37.52 26.06H36.52V30.61H37.52H38.52V26.06H37.52ZM37.52 30.61V29.61H29.61V30.61V31.61H37.52V30.61ZM29.61 30.61L28.6195 30.4724L27.2195 40.5524L28.21 40.69L29.2005 40.8276L30.6005 30.7476L29.61 30.61ZM28.21 40.69V41.69H35.42V40.69V39.69H28.21V40.69ZM35.42 40.69H34.42V45.24H35.42H36.42V40.69H35.42ZM35.42 45.24V44.24H27.58V45.24V46.24H35.42V45.24ZM27.58 45.24L26.5896 45.1015L25.1896 55.1115L26.18 55.25L27.1704 55.3885L28.5704 45.3785L27.58 45.24ZM26.18 55.25V54.25H21.63V55.25V56.25H26.18V55.25ZM21.63 55.25L22.6204 55.3885L24.0204 45.3785L23.03 45.24L22.0396 45.1015L20.6396 55.1115L21.63 55.25ZM23.03 45.24V44.24H14.91V45.24V46.24H23.03V45.24ZM14.91 45.24L13.9196 45.1015L12.5196 55.1115L13.51 55.25L14.5004 55.3885L15.9004 45.3785L14.91 45.24ZM13.51 55.25V54.25H8.96V55.25V56.25H13.51V55.25ZM15.54 40.69V41.69H23.66V40.69V39.69H15.54V40.69ZM23.66 40.69L24.6505 40.8276L26.0505 30.7476L25.06 30.61L24.0695 30.4724L22.6695 40.5524L23.66 40.69ZM25.06 30.61V29.61H16.94V30.61V31.61H25.06V30.61ZM16.94 30.61L15.9495 30.4724L14.5495 40.5524L15.54 40.69L16.5305 40.8276L17.9305 30.7476L16.94 30.61ZM57.8238 57H56.8238V58H57.8238V57ZM57.8238 15.63H58.8238V14.63H57.8238V15.63ZM41.6538 15.63H40.6538V16.63H41.6538V15.63ZM41.6538 10.66V9.66H40.6538V10.66H41.6538ZM79.2438 10.66H80.2438V9.66H79.2438V10.66ZM79.2438 15.63V16.63H80.2438V15.63H79.2438ZM63.0738 15.63V14.63H62.0738V15.63H63.0738ZM63.0738 57V58H64.0738V57H63.0738ZM57.8238 57H58.8238V15.63H57.8238H56.8238V57H57.8238ZM57.8238 15.63V14.63H41.6538V15.63V16.63H57.8238V15.63ZM41.6538 15.63H42.6538V10.66H41.6538H40.6538V15.63H41.6538ZM41.6538 10.66V11.66H79.2438V10.66V9.66H41.6538V10.66ZM79.2438 10.66H78.2438V15.63H79.2438H80.2438V10.66H79.2438ZM79.2438 15.63V14.63H63.0738V15.63V16.63H79.2438V15.63ZM63.0738 15.63H62.0738V57H63.0738H64.0738V15.63H63.0738ZM63.0738 57V56H57.8238V57V58H63.0738V57ZM94.9315 55.74L94.5448 56.6622L94.9315 55.74ZM87.4415 50.63L86.7114 51.3135L86.7192 51.3216L87.4415 50.63ZM82.6815 43.07L81.7489 43.431L81.7509 43.4361L82.6815 43.07ZM82.6815 24.59L81.7509 24.2239L82.6815 24.59ZM87.4415 17.03L86.7191 16.3384L86.7115 16.3466L87.4415 17.03ZM94.9315 11.92L94.5448 10.9978H94.5448L94.9315 11.92ZM114.111 11.92L114.498 10.9978L114.111 11.92ZM121.531 17.03L120.801 17.7135L120.809 17.7216L121.531 17.03ZM126.361 43.07L127.292 43.4361L127.294 43.431L126.361 43.07ZM121.531 50.63L120.809 49.9384L120.801 49.9466L121.531 50.63ZM114.111 55.74L114.498 56.6622L114.111 55.74ZM114.251 50L114.768 50.8562L114.772 50.8536L114.251 50ZM120.551 43.28L119.666 42.8154L119.663 42.821L120.551 43.28ZM120.551 24.38L119.663 24.8391L119.669 24.8506L120.551 24.38ZM114.251 17.73L113.724 18.5796L113.733 18.5849L113.741 18.5901L114.251 17.73ZM94.7915 17.73L95.3017 18.5901L95.3123 18.5836L94.7915 17.73ZM88.4215 24.38L87.5391 23.9094L87.5331 23.921L88.4215 24.38ZM88.4215 43.28L87.53 43.733L87.5345 43.7419L87.5391 43.7506L88.4215 43.28ZM94.7915 50L94.2706 50.8537L94.2813 50.8601L94.7915 50ZM104.521 57.56V56.56C101.139 56.56 98.0757 55.9742 95.3182 54.8178L94.9315 55.74L94.5448 56.6622C97.574 57.9325 100.904 58.56 104.521 58.56V57.56ZM94.9315 55.74L95.3182 54.8178C92.5471 53.6557 90.1658 52.0294 88.1638 49.9384L87.4415 50.63L86.7192 51.3216C88.9172 53.6173 91.5292 55.3976 94.5448 56.6622L94.9315 55.74ZM87.4415 50.63L88.1715 49.9466C86.206 47.8471 84.6867 45.4352 83.6121 42.7039L82.6815 43.07L81.7509 43.4361C82.9163 46.3981 84.5703 49.0262 86.7115 51.3134L87.4415 50.63ZM82.6815 43.07L83.6141 42.709C82.5409 39.9368 82.0015 36.9798 82.0015 33.83H81.0015H80.0015C80.0015 37.2135 80.582 40.4165 81.7489 43.431L82.6815 43.07ZM81.0015 33.83H82.0015C82.0015 30.6315 82.5416 27.6768 83.6121 24.9561L82.6815 24.59L81.7509 24.2239C80.5814 27.1965 80.0015 30.4018 80.0015 33.83H81.0015ZM82.6815 24.59L83.6121 24.9561C84.6867 22.2247 86.206 19.8129 88.1715 17.7134L87.4415 17.03L86.7115 16.3466C84.5703 18.6338 82.9163 21.2619 81.7509 24.2239L82.6815 24.59ZM87.4415 17.03L88.1638 17.7216C90.1658 15.6306 92.5471 14.0043 95.3182 12.8422L94.9315 11.92L94.5448 10.9978C91.5292 12.2624 88.9172 14.0427 86.7192 16.3384L87.4415 17.03ZM94.9315 11.92L95.3182 12.8422C98.0757 11.6858 101.139 11.1 104.521 11.1V10.1V9.1C100.904 9.1 97.574 9.72749 94.5448 10.9978L94.9315 11.92ZM104.521 10.1V11.1C107.904 11.1 110.967 11.6858 113.725 12.8422L114.111 11.92L114.498 10.9978C111.469 9.72749 108.139 9.1 104.521 9.1V10.1ZM114.111 11.92L113.725 12.8422C116.494 14.0035 118.849 15.6275 120.801 17.7134L121.531 17.03L122.262 16.3466C120.108 14.0458 117.516 12.2632 114.498 10.9978L114.111 11.92ZM121.531 17.03L120.809 17.7216C122.819 19.8203 124.358 22.2295 125.431 24.9561L126.361 24.59L127.292 24.2239C126.125 21.2571 124.444 18.6264 122.254 16.3384L121.531 17.03ZM126.361 24.59L125.431 24.9561C126.501 27.6768 127.041 30.6315 127.041 33.83H128.041H129.041C129.041 30.4018 128.462 27.1965 127.292 24.2239L126.361 24.59ZM128.041 33.83H127.041C127.041 36.9798 126.502 39.9368 125.429 42.709L126.361 43.07L127.294 43.431C128.461 40.4165 129.041 37.2135 129.041 33.83H128.041ZM126.361 43.07L125.431 42.7039C124.358 45.4305 122.819 47.8397 120.809 49.9384L121.531 50.63L122.254 51.3216C124.444 49.0336 126.125 46.4029 127.292 43.4361L126.361 43.07ZM121.531 50.63L120.801 49.9466C118.849 52.0325 116.494 53.6565 113.725 54.8178L114.111 55.74L114.498 56.6622C117.516 55.3968 120.108 53.6142 122.262 51.3134L121.531 50.63ZM114.111 55.74L113.725 54.8178C110.967 55.9742 107.904 56.56 104.521 56.56V57.56V58.56C108.139 58.56 111.469 57.9325 114.498 56.6622L114.111 55.74ZM104.521 52.45V53.45C108.448 53.45 111.877 52.6006 114.768 50.8562L114.251 50L113.735 49.1438C111.212 50.6661 108.155 51.45 104.521 51.45V52.45ZM114.251 50L114.772 50.8536C117.678 49.0806 119.907 46.7057 121.44 43.739L120.551 43.28L119.663 42.821C118.303 45.4543 116.331 47.5594 113.731 49.1464L114.251 50ZM120.551 43.28L121.437 43.7445C123.011 40.744 123.791 37.4328 123.791 33.83H122.791H121.791C121.791 37.1338 121.079 40.1226 119.666 42.8154L120.551 43.28ZM122.791 33.83H123.791C123.791 30.1831 123.012 26.8687 121.434 23.9094L120.551 24.38L119.669 24.8506C121.078 27.4913 121.791 30.4769 121.791 33.83H122.791ZM120.551 24.38L121.44 23.921C119.906 20.9517 117.673 18.5973 114.762 16.8699L114.251 17.73L113.741 18.5901C116.336 20.1294 118.304 22.2082 119.663 24.839L120.551 24.38ZM114.251 17.73L114.779 16.8804C111.886 15.0851 108.453 14.21 104.521 14.21V15.21V16.21C108.15 16.21 111.203 17.0149 113.724 18.5796L114.251 17.73ZM104.521 15.21V14.21C100.634 14.21 97.2042 15.0864 94.2706 16.8764L94.7915 17.73L95.3123 18.5836C97.8855 17.0136 100.942 16.21 104.521 16.21V15.21ZM94.7915 17.73L94.2813 16.8699C91.3721 18.5957 89.1194 20.9465 87.5391 23.9094L88.4215 24.38L89.3038 24.8506C90.7103 22.2135 92.7042 20.1309 95.3017 18.5901L94.7915 17.73ZM88.4215 24.38L87.5331 23.921C86.0053 26.878 85.2515 30.1882 85.2515 33.83H86.2515H87.2515C87.2515 30.4718 87.9444 27.482 89.3099 24.839L88.4215 24.38ZM86.2515 33.83H85.2515C85.2515 37.4277 86.0063 40.7348 87.53 43.733L88.4215 43.28L89.313 42.827C87.9433 40.1319 87.2515 37.139 87.2515 33.83H86.2515ZM88.4215 43.28L87.5391 43.7506C89.118 46.711 91.3674 49.0822 94.2706 50.8536L94.7915 50L95.3123 49.1464C92.7089 47.5578 90.7116 45.449 89.3038 42.8094L88.4215 43.28ZM94.7915 50L94.2813 50.8601C97.2131 52.5993 100.639 53.45 104.521 53.45V52.45V51.45C100.938 51.45 97.8765 50.6674 95.3017 49.1399L94.7915 50ZM136.441 57H135.441V58H136.441V57ZM136.441 10.66V9.66H135.441V10.66H136.441ZM168.991 14.72L168.302 15.4447L168.309 15.4507L168.991 14.72ZM168.991 36.49L169.674 37.2207L169.681 37.2147L168.991 36.49ZM141.691 40.48V39.48H140.691V40.48H141.691ZM141.691 57V58H142.691V57H141.691ZM141.691 35.58H140.691V36.58H141.691V35.58ZM165.211 32.92L165.9 33.645V33.645L165.211 32.92ZM165.211 18.29L164.523 19.015L165.211 18.29ZM141.691 15.63V14.63H140.691V15.63H141.691ZM136.441 57H137.441V10.66H136.441H135.441V57H136.441ZM136.441 10.66V11.66H157.301V10.66V9.66H136.441V10.66ZM157.301 10.66V11.66C162.061 11.66 165.687 12.9575 168.302 15.4447L168.991 14.72L169.681 13.9953C166.603 11.0692 162.435 9.66 157.301 9.66V10.66ZM168.991 14.72L168.309 15.4507C170.918 17.8885 172.261 21.2212 172.261 25.57H173.261H174.261C174.261 20.7721 172.759 16.8715 169.674 13.9893L168.991 14.72ZM173.261 25.57H172.261C172.261 29.9184 170.918 33.2787 168.302 35.7653L168.991 36.49L169.681 37.2147C172.759 34.288 174.261 30.3683 174.261 25.57H173.261ZM168.991 36.49L168.309 35.7593C165.693 38.2032 162.066 39.48 157.301 39.48V40.48V41.48C162.431 41.48 166.596 40.0968 169.674 37.2207L168.991 36.49ZM157.301 40.48V39.48H141.691V40.48V41.48H157.301V40.48ZM141.691 40.48H140.691V57H141.691H142.691V40.48H141.691ZM141.691 57V56H136.441V57V58H141.691V57ZM141.691 35.58V36.58H156.951V35.58V34.58H141.691V35.58ZM156.951 35.58V36.58C160.741 36.58 163.783 35.6566 165.9 33.645L165.211 32.92L164.523 32.195C162.907 33.73 160.442 34.58 156.951 34.58V35.58ZM165.211 32.92L165.9 33.645C168.007 31.6434 169.011 28.9076 169.011 25.57H168.011H167.011C167.011 28.4857 166.149 30.65 164.523 32.195L165.211 32.92ZM168.011 25.57H169.011C169.011 22.274 168.004 19.5637 165.9 17.565L165.211 18.29L164.523 19.015C166.152 20.5629 167.011 22.706 167.011 25.57H168.011ZM165.211 18.29L165.9 17.565C163.783 15.5534 160.741 14.63 156.951 14.63V15.63V16.63C160.442 16.63 162.907 17.48 164.523 19.015L165.211 18.29ZM156.951 15.63V14.63H141.691V15.63V16.63H156.951V15.63ZM141.691 15.63H140.691V35.58H141.691H142.691V15.63H141.691ZM193.977 57H192.977V58H193.977V57ZM193.977 15.7H194.977V14.7H193.977V15.7ZM184.177 15.7H183.177V16.7H184.177V15.7ZM184.177 10.66V9.66H183.177V10.66H184.177ZM199.227 10.66H200.227V9.66H199.227V10.66ZM199.227 57V58H200.227V57H199.227ZM193.977 57H194.977V15.7H193.977H192.977V57H193.977ZM193.977 15.7V14.7H184.177V15.7V16.7H193.977V15.7ZM184.177 15.7H185.177V10.66H184.177H183.177V15.7H184.177ZM184.177 10.66V11.66H199.227V10.66V9.66H184.177V10.66ZM199.227 10.66H198.227V57H199.227H200.227V10.66H199.227ZM199.227 57V56H193.977V57V58H199.227V57Z" fill="#FF8C09" mask="url(#path-1-outside-1_285_1061)"/>
<path d="M8.625 81V68.5H10.5V70.4C10.7833 69.9 11.2333 69.425 11.85 68.975C12.4667 68.525 13.2833 68.3 14.3 68.3C15.1333 68.3 15.9 68.525 16.6 68.975C17.3167 69.4083 17.875 70.025 18.275 70.825C18.4417 70.5417 18.7 70.2 19.05 69.8C19.4167 69.4 19.8917 69.05 20.475 68.75C21.0583 68.45 21.7583 68.3 22.575 68.3C23.375 68.3 24.125 68.5083 24.825 68.925C25.525 69.3417 26.0917 69.9417 26.525 70.725C26.975 71.4917 27.2 72.4 27.2 73.45V81H25.325V73.5C25.325 72.45 25.025 71.6083 24.425 70.975C23.8417 70.325 23.1083 70 22.225 70C21.3083 70 20.5167 70.3083 19.85 70.925C19.1833 71.5417 18.85 72.4083 18.85 73.525V81H16.975V73.5C16.975 72.45 16.675 71.6083 16.075 70.975C15.4917 70.325 14.7583 70 13.875 70C12.9583 70 12.1667 70.3083 11.5 70.925C10.8333 71.5417 10.5 72.4083 10.5 73.525V81H8.625ZM35.2041 81.2C34.3541 81.2 33.5458 81 32.7791 80.6C32.0124 80.1833 31.3874 79.575 30.9041 78.775C30.4374 77.9583 30.2041 76.9583 30.2041 75.775V68.5H32.0791V75.725C32.0791 76.8583 32.4041 77.775 33.0541 78.475C33.7208 79.1583 34.5624 79.5 35.5791 79.5C36.2791 79.5 36.9124 79.3417 37.4791 79.025C38.0458 78.6917 38.4958 78.2417 38.8291 77.675C39.1791 77.1083 39.3541 76.45 39.3541 75.7V68.5H41.2291V81H39.3541V79.05C38.9041 79.65 38.3541 80.1583 37.7041 80.575C37.0541 80.9917 36.2208 81.2 35.2041 81.2ZM34.4291 66.75L35.9541 64.125H38.6291L35.9541 66.75H34.4291ZM49.0393 81.2C47.8893 81.2 46.9143 81.0083 46.1143 80.625C45.3309 80.2417 44.7309 79.7417 44.3143 79.125C43.8976 78.4917 43.6643 77.8083 43.6143 77.075H45.5643C45.6143 77.4917 45.7559 77.9 45.9893 78.3C46.2393 78.6833 46.6143 79 47.1143 79.25C47.6143 79.4833 48.2643 79.6 49.0643 79.6C49.3143 79.6 49.6226 79.575 49.9893 79.525C50.3559 79.475 50.7059 79.3833 51.0393 79.25C51.3893 79.1167 51.6809 78.9167 51.9143 78.65C52.1476 78.3833 52.2643 78.0417 52.2643 77.625C52.2643 77.1083 52.0643 76.7083 51.6643 76.425C51.2643 76.1417 50.7476 75.925 50.1143 75.775C49.4809 75.6083 48.8059 75.45 48.0893 75.3C47.3893 75.15 46.7226 74.9583 46.0893 74.725C45.4559 74.475 44.9393 74.1333 44.5393 73.7C44.1393 73.25 43.9393 72.6417 43.9393 71.875C43.9393 70.7417 44.3476 69.8667 45.1643 69.25C45.9976 68.6167 47.2226 68.3 48.8393 68.3C49.9393 68.3 50.8309 68.475 51.5143 68.825C52.2143 69.1583 52.7393 69.5917 53.0893 70.125C53.4559 70.6583 53.6726 71.2333 53.7393 71.85H51.8393C51.7726 71.3167 51.5059 70.8583 51.0393 70.475C50.5893 70.0917 49.8393 69.9 48.7893 69.9C46.8059 69.9 45.8143 70.5 45.8143 71.7C45.8143 72.2 46.0143 72.5833 46.4143 72.85C46.8143 73.1167 47.3309 73.3333 47.9643 73.5C48.5976 73.65 49.2643 73.8 49.9643 73.95C50.6809 74.0833 51.3559 74.275 51.9893 74.525C52.6226 74.775 53.1393 75.1333 53.5393 75.6C53.9393 76.05 54.1393 76.6667 54.1393 77.45C54.1393 78.6667 53.6726 79.6 52.7393 80.25C51.8226 80.8833 50.5893 81.2 49.0393 81.2ZM56.4748 66.4V63.95H58.4998V66.4H56.4748ZM56.5498 81V68.5H58.4248V81H56.5498ZM67.0518 81.2C65.8018 81.2 64.7184 80.9167 63.8018 80.35C62.8851 79.7667 62.1684 78.9833 61.6518 78C61.1518 77.0167 60.9018 75.9333 60.9018 74.75C60.9018 73.55 61.1518 72.4667 61.6518 71.5C62.1684 70.5167 62.8851 69.7417 63.8018 69.175C64.7184 68.5917 65.8018 68.3 67.0518 68.3C68.5351 68.3 69.7934 68.6833 70.8268 69.45C71.8768 70.2167 72.5851 71.2083 72.9518 72.425H70.9268C70.6434 71.7083 70.1851 71.125 69.5518 70.675C68.9351 70.225 68.1851 70 67.3018 70C66.3851 70 65.5851 70.2167 64.9018 70.65C64.2184 71.0833 63.6934 71.6583 63.3268 72.375C62.9601 73.0917 62.7768 73.8833 62.7768 74.75C62.7768 75.6 62.9601 76.3917 63.3268 77.125C63.6934 77.8417 64.2184 78.4167 64.9018 78.85C65.5851 79.2833 66.3851 79.5 67.3018 79.5C68.1851 79.5 68.9351 79.275 69.5518 78.825C70.1851 78.375 70.6434 77.7917 70.9268 77.075H72.9518C72.5851 78.2917 71.8768 79.2833 70.8268 80.05C69.7934 80.8167 68.5351 81.2 67.0518 81.2ZM80.5504 81.2C79.3337 81.2 78.2671 80.9167 77.3504 80.35C76.4504 79.7667 75.7504 78.9833 75.2504 78C74.7504 77.0167 74.5004 75.9333 74.5004 74.75C74.5004 73.55 74.7504 72.4667 75.2504 71.5C75.7504 70.5167 76.4504 69.7417 77.3504 69.175C78.2671 68.5917 79.3337 68.3 80.5504 68.3C81.5837 68.3 82.4671 68.5 83.2004 68.9C83.9504 69.3 84.5587 69.8417 85.0254 70.525V68.5H86.9004V81H85.0254V79C84.5587 79.6667 83.9504 80.2 83.2004 80.6C82.4671 81 81.5837 81.2 80.5504 81.2ZM80.8004 79.5C81.7337 79.5 82.5171 79.2833 83.1504 78.85C83.8004 78.4167 84.2921 77.8417 84.6254 77.125C84.9587 76.3917 85.1254 75.6 85.1254 74.75C85.1254 73.8833 84.9587 73.0917 84.6254 72.375C84.2921 71.6583 83.8004 71.0833 83.1504 70.65C82.5171 70.2167 81.7337 70 80.8004 70C79.8837 70 79.0921 70.2167 78.4254 70.65C77.7587 71.0833 77.2504 71.6583 76.9004 72.375C76.5504 73.0917 76.3754 73.8833 76.3754 74.75C76.3754 75.6 76.5504 76.3917 76.9004 77.125C77.2504 77.8417 77.7587 78.4167 78.4254 78.85C79.0921 79.2833 79.8837 79.5 80.8004 79.5Z" fill="#D7BDE2"/>
</svg>
