<svg width="199" height="50" viewBox="0 0 199 50" fill="none" xmlns="http://www.w3.org/2000/svg">
<mask id="path-1-outside-1_83_241" maskUnits="userSpaceOnUse" x="0" y="0" width="199" height="50" fill="black">
<rect fill="white" width="199" height="50"/>
<path d="M6.96 46.25L8.36 36.24H1.15V31.69H8.99L10.39 21.61H3.25V17.06H11.02L12.49 7.05H17.04L15.57 17.06H23.69L25.16 7.05H29.71L28.24 17.06H35.52V21.61H27.61L26.21 31.69H33.42V36.24H25.58L24.18 46.25H19.63L21.03 36.24H12.91L11.51 46.25H6.96ZM13.54 31.69H21.66L23.06 21.61H14.94L13.54 31.69ZM55.8238 48V6.63H39.6538V1.66H77.2438V6.63H61.0738V48H55.8238ZM102.521 48.56C99.0215 48.56 95.8248 47.9533 92.9315 46.74C90.0382 45.5267 87.5415 43.8233 85.4415 41.63C83.3882 39.4367 81.8015 36.9167 80.6815 34.07C79.5615 31.1767 79.0015 28.0967 79.0015 24.83C79.0015 21.5167 79.5615 18.4367 80.6815 15.59C81.8015 12.7433 83.3882 10.2233 85.4415 8.03C87.5415 5.83666 90.0382 4.13333 92.9315 2.92C95.8248 1.70666 99.0215 1.1 102.521 1.1C106.021 1.1 109.218 1.70666 112.111 2.92C115.005 4.13333 117.478 5.83666 119.531 8.03C121.631 10.2233 123.241 12.7433 124.361 15.59C125.481 18.4367 126.041 21.5167 126.041 24.83C126.041 28.0967 125.481 31.1767 124.361 34.07C123.241 36.9167 121.631 39.4367 119.531 41.63C117.478 43.8233 115.005 45.5267 112.111 46.74C109.218 47.9533 106.021 48.56 102.521 48.56ZM102.521 43.45C106.301 43.45 109.545 42.6333 112.251 41C115.005 39.32 117.105 37.08 118.551 34.28C120.045 31.4333 120.791 28.2833 120.791 24.83C120.791 21.33 120.045 18.18 118.551 15.38C117.105 12.58 115.005 10.3633 112.251 8.73C109.545 7.05 106.301 6.21 102.521 6.21C98.7882 6.21 95.5448 7.05 92.7915 8.73C90.0382 10.3633 87.9148 12.58 86.4215 15.38C84.9748 18.18 84.2515 21.33 84.2515 24.83C84.2515 28.2833 84.9748 31.4333 86.4215 34.28C87.9148 37.08 90.0382 39.32 92.7915 41C95.5448 42.6333 98.7882 43.45 102.521 43.45ZM134.441 48V1.66H155.301C160.248 1.66 164.145 3.01333 166.991 5.72C169.838 8.38 171.261 11.9967 171.261 16.57C171.261 21.1433 169.838 24.7833 166.991 27.49C164.145 30.15 160.248 31.48 155.301 31.48H139.691V48H134.441ZM139.691 26.58H154.951C158.591 26.58 161.345 25.6933 163.211 23.92C165.078 22.1467 166.011 19.6967 166.011 16.57C166.011 13.49 165.078 11.0633 163.211 9.29C161.345 7.51666 158.591 6.63 154.951 6.63H139.691V26.58ZM191.977 48V6.7H182.177V1.66H197.227V48H191.977Z"/>
</mask>
<path d="M6.96 46.25L8.36 36.24H1.15V31.69H8.99L10.39 21.61H3.25V17.06H11.02L12.49 7.05H17.04L15.57 17.06H23.69L25.16 7.05H29.71L28.24 17.06H35.52V21.61H27.61L26.21 31.69H33.42V36.24H25.58L24.18 46.25H19.63L21.03 36.24H12.91L11.51 46.25H6.96ZM13.54 31.69H21.66L23.06 21.61H14.94L13.54 31.69ZM55.8238 48V6.63H39.6538V1.66H77.2438V6.63H61.0738V48H55.8238ZM102.521 48.56C99.0215 48.56 95.8248 47.9533 92.9315 46.74C90.0382 45.5267 87.5415 43.8233 85.4415 41.63C83.3882 39.4367 81.8015 36.9167 80.6815 34.07C79.5615 31.1767 79.0015 28.0967 79.0015 24.83C79.0015 21.5167 79.5615 18.4367 80.6815 15.59C81.8015 12.7433 83.3882 10.2233 85.4415 8.03C87.5415 5.83666 90.0382 4.13333 92.9315 2.92C95.8248 1.70666 99.0215 1.1 102.521 1.1C106.021 1.1 109.218 1.70666 112.111 2.92C115.005 4.13333 117.478 5.83666 119.531 8.03C121.631 10.2233 123.241 12.7433 124.361 15.59C125.481 18.4367 126.041 21.5167 126.041 24.83C126.041 28.0967 125.481 31.1767 124.361 34.07C123.241 36.9167 121.631 39.4367 119.531 41.63C117.478 43.8233 115.005 45.5267 112.111 46.74C109.218 47.9533 106.021 48.56 102.521 48.56ZM102.521 43.45C106.301 43.45 109.545 42.6333 112.251 41C115.005 39.32 117.105 37.08 118.551 34.28C120.045 31.4333 120.791 28.2833 120.791 24.83C120.791 21.33 120.045 18.18 118.551 15.38C117.105 12.58 115.005 10.3633 112.251 8.73C109.545 7.05 106.301 6.21 102.521 6.21C98.7882 6.21 95.5448 7.05 92.7915 8.73C90.0382 10.3633 87.9148 12.58 86.4215 15.38C84.9748 18.18 84.2515 21.33 84.2515 24.83C84.2515 28.2833 84.9748 31.4333 86.4215 34.28C87.9148 37.08 90.0382 39.32 92.7915 41C95.5448 42.6333 98.7882 43.45 102.521 43.45ZM134.441 48V1.66H155.301C160.248 1.66 164.145 3.01333 166.991 5.72C169.838 8.38 171.261 11.9967 171.261 16.57C171.261 21.1433 169.838 24.7833 166.991 27.49C164.145 30.15 160.248 31.48 155.301 31.48H139.691V48H134.441ZM139.691 26.58H154.951C158.591 26.58 161.345 25.6933 163.211 23.92C165.078 22.1467 166.011 19.6967 166.011 16.57C166.011 13.49 165.078 11.0633 163.211 9.29C161.345 7.51666 158.591 6.63 154.951 6.63H139.691V26.58ZM191.977 48V6.7H182.177V1.66H197.227V48H191.977Z" fill="#5EBD9A"/>
<path d="M6.96 46.25L5.96964 46.1115L5.81041 47.25H6.96V46.25ZM8.36 36.24L9.35036 36.3785L9.50959 35.24H8.36V36.24ZM1.15 36.24H0.15V37.24H1.15V36.24ZM1.15 31.69V30.69H0.15V31.69H1.15ZM8.99 31.69V32.69H9.86071L9.98049 31.8276L8.99 31.69ZM10.39 21.61L11.3805 21.7476L11.5385 20.61H10.39V21.61ZM3.25 21.61H2.25V22.61H3.25V21.61ZM3.25 17.06V16.06H2.25V17.06H3.25ZM11.02 17.06V18.06H11.8839L12.0094 17.2053L11.02 17.06ZM12.49 7.05V6.05H11.6261L11.5006 6.9047L12.49 7.05ZM17.04 7.05L18.0294 7.19529L18.1976 6.05H17.04V7.05ZM15.57 17.06L14.5806 16.9147L14.4124 18.06H15.57V17.06ZM23.69 17.06V18.06H24.5539L24.6794 17.2053L23.69 17.06ZM25.16 7.05V6.05H24.2961L24.1706 6.9047L25.16 7.05ZM29.71 7.05L30.6994 7.19529L30.8676 6.05H29.71V7.05ZM28.24 17.06L27.2506 16.9147L27.0824 18.06H28.24V17.06ZM35.52 17.06H36.52V16.06H35.52V17.06ZM35.52 21.61V22.61H36.52V21.61H35.52ZM27.61 21.61V20.61H26.7393L26.6195 21.4724L27.61 21.61ZM26.21 31.69L25.2195 31.5524L25.0615 32.69H26.21V31.69ZM33.42 31.69H34.42V30.69H33.42V31.69ZM33.42 36.24V37.24H34.42V36.24H33.42ZM25.58 36.24V35.24H24.7101L24.5896 36.1015L25.58 36.24ZM24.18 46.25V47.25H25.0499L25.1704 46.3885L24.18 46.25ZM19.63 46.25L18.6396 46.1115L18.4804 47.25H19.63V46.25ZM21.03 36.24L22.0204 36.3785L22.1796 35.24H21.03V36.24ZM12.91 36.24V35.24H12.0401L11.9196 36.1015L12.91 36.24ZM11.51 46.25V47.25H12.3799L12.5004 46.3885L11.51 46.25ZM13.54 31.69L12.5495 31.5524L12.3915 32.69H13.54V31.69ZM21.66 31.69V32.69H22.5307L22.6505 31.8276L21.66 31.69ZM23.06 21.61L24.0505 21.7476L24.2085 20.61H23.06V21.61ZM14.94 21.61V20.61H14.0693L13.9495 21.4724L14.94 21.61ZM6.96 46.25L7.95036 46.3885L9.35036 36.3785L8.36 36.24L7.36964 36.1015L5.96964 46.1115L6.96 46.25ZM8.36 36.24V35.24H1.15V36.24V37.24H8.36V36.24ZM1.15 36.24H2.15V31.69H1.15H0.15V36.24H1.15ZM1.15 31.69V32.69H8.99V31.69V30.69H1.15V31.69ZM8.99 31.69L9.98049 31.8276L11.3805 21.7476L10.39 21.61L9.39951 21.4724L7.99951 31.5524L8.99 31.69ZM10.39 21.61V20.61H3.25V21.61V22.61H10.39V21.61ZM3.25 21.61H4.25V17.06H3.25H2.25V21.61H3.25ZM3.25 17.06V18.06H11.02V17.06V16.06H3.25V17.06ZM11.02 17.06L12.0094 17.2053L13.4794 7.19529L12.49 7.05L11.5006 6.9047L10.0306 16.9147L11.02 17.06ZM12.49 7.05V8.05H17.04V7.05V6.05H12.49V7.05ZM17.04 7.05L16.0506 6.9047L14.5806 16.9147L15.57 17.06L16.5594 17.2053L18.0294 7.19529L17.04 7.05ZM15.57 17.06V18.06H23.69V17.06V16.06H15.57V17.06ZM23.69 17.06L24.6794 17.2053L26.1494 7.19529L25.16 7.05L24.1706 6.9047L22.7006 16.9147L23.69 17.06ZM25.16 7.05V8.05H29.71V7.05V6.05H25.16V7.05ZM29.71 7.05L28.7206 6.9047L27.2506 16.9147L28.24 17.06L29.2294 17.2053L30.6994 7.19529L29.71 7.05ZM28.24 17.06V18.06H35.52V17.06V16.06H28.24V17.06ZM35.52 17.06H34.52V21.61H35.52H36.52V17.06H35.52ZM35.52 21.61V20.61H27.61V21.61V22.61H35.52V21.61ZM27.61 21.61L26.6195 21.4724L25.2195 31.5524L26.21 31.69L27.2005 31.8276L28.6005 21.7476L27.61 21.61ZM26.21 31.69V32.69H33.42V31.69V30.69H26.21V31.69ZM33.42 31.69H32.42V36.24H33.42H34.42V31.69H33.42ZM33.42 36.24V35.24H25.58V36.24V37.24H33.42V36.24ZM25.58 36.24L24.5896 36.1015L23.1896 46.1115L24.18 46.25L25.1704 46.3885L26.5704 36.3785L25.58 36.24ZM24.18 46.25V45.25H19.63V46.25V47.25H24.18V46.25ZM19.63 46.25L20.6204 46.3885L22.0204 36.3785L21.03 36.24L20.0396 36.1015L18.6396 46.1115L19.63 46.25ZM21.03 36.24V35.24H12.91V36.24V37.24H21.03V36.24ZM12.91 36.24L11.9196 36.1015L10.5196 46.1115L11.51 46.25L12.5004 46.3885L13.9004 36.3785L12.91 36.24ZM11.51 46.25V45.25H6.96V46.25V47.25H11.51V46.25ZM13.54 31.69V32.69H21.66V31.69V30.69H13.54V31.69ZM21.66 31.69L22.6505 31.8276L24.0505 21.7476L23.06 21.61L22.0695 21.4724L20.6695 31.5524L21.66 31.69ZM23.06 21.61V20.61H14.94V21.61V22.61H23.06V21.61ZM14.94 21.61L13.9495 21.4724L12.5495 31.5524L13.54 31.69L14.5305 31.8276L15.9305 21.7476L14.94 21.61ZM55.8238 48H54.8238V49H55.8238V48ZM55.8238 6.63H56.8238V5.63H55.8238V6.63ZM39.6538 6.63H38.6538V7.63H39.6538V6.63ZM39.6538 1.66V0.659996H38.6538V1.66H39.6538ZM77.2438 1.66H78.2438V0.659996H77.2438V1.66ZM77.2438 6.63V7.63H78.2438V6.63H77.2438ZM61.0738 6.63V5.63H60.0738V6.63H61.0738ZM61.0738 48V49H62.0738V48H61.0738ZM55.8238 48H56.8238V6.63H55.8238H54.8238V48H55.8238ZM55.8238 6.63V5.63H39.6538V6.63V7.63H55.8238V6.63ZM39.6538 6.63H40.6538V1.66H39.6538H38.6538V6.63H39.6538ZM39.6538 1.66V2.66H77.2438V1.66V0.659996H39.6538V1.66ZM77.2438 1.66H76.2438V6.63H77.2438H78.2438V1.66H77.2438ZM77.2438 6.63V5.63H61.0738V6.63V7.63H77.2438V6.63ZM61.0738 6.63H60.0738V48H61.0738H62.0738V6.63H61.0738ZM61.0738 48V47H55.8238V48V49H61.0738V48ZM92.9315 46.74L92.5448 47.6622L92.9315 46.74ZM85.4415 41.63L84.7114 42.3135L84.7192 42.3216L85.4415 41.63ZM80.6815 34.07L79.7489 34.431L79.7509 34.4361L80.6815 34.07ZM80.6815 15.59L79.7509 15.2239L80.6815 15.59ZM85.4415 8.03L84.7191 7.33838L84.7115 7.34657L85.4415 8.03ZM92.9315 2.92L92.5448 1.9978H92.5448L92.9315 2.92ZM112.111 2.92L112.498 1.9978L112.111 2.92ZM119.531 8.03L118.801 8.71346L118.809 8.72157L119.531 8.03ZM124.361 34.07L125.292 34.4361L125.294 34.431L124.361 34.07ZM119.531 41.63L118.809 40.9384L118.801 40.9466L119.531 41.63ZM112.111 46.74L112.498 47.6622L112.111 46.74ZM112.251 41L112.768 41.8562L112.772 41.8536L112.251 41ZM118.551 34.28L117.666 33.8154L117.663 33.821L118.551 34.28ZM118.551 15.38L117.663 15.8391L117.669 15.8506L118.551 15.38ZM112.251 8.73L111.724 9.57964L111.733 9.58493L111.741 9.59005L112.251 8.73ZM92.7915 8.73L93.3017 9.59012L93.3123 9.58364L92.7915 8.73ZM86.4215 15.38L85.5391 14.9094L85.5331 14.921L86.4215 15.38ZM86.4215 34.28L85.53 34.733L85.5345 34.7419L85.5391 34.7506L86.4215 34.28ZM92.7915 41L92.2706 41.8537L92.2813 41.8601L92.7915 41ZM102.521 48.56V47.56C99.1389 47.56 96.0757 46.9742 93.3182 45.8178L92.9315 46.74L92.5448 47.6622C95.574 48.9325 98.904 49.56 102.521 49.56V48.56ZM92.9315 46.74L93.3182 45.8178C90.5471 44.6557 88.1658 43.0294 86.1638 40.9384L85.4415 41.63L84.7192 42.3216C86.9172 44.6173 89.5292 46.3976 92.5448 47.6622L92.9315 46.74ZM85.4415 41.63L86.1715 40.9466C84.206 38.8471 82.6867 36.4352 81.6121 33.7039L80.6815 34.07L79.7509 34.4361C80.9163 37.3981 82.5703 40.0262 84.7115 42.3134L85.4415 41.63ZM80.6815 34.07L81.6141 33.709C80.5409 30.9368 80.0015 27.9798 80.0015 24.83H79.0015H78.0015C78.0015 28.2135 78.582 31.4165 79.7489 34.431L80.6815 34.07ZM79.0015 24.83H80.0015C80.0015 21.6315 80.5416 18.6768 81.6121 15.9561L80.6815 15.59L79.7509 15.2239C78.5814 18.1965 78.0015 21.4018 78.0015 24.83H79.0015ZM80.6815 15.59L81.6121 15.9561C82.6867 13.2247 84.206 10.8129 86.1715 8.71342L85.4415 8.03L84.7115 7.34657C82.5703 9.63376 80.9163 12.2619 79.7509 15.2239L80.6815 15.59ZM85.4415 8.03L86.1638 8.72157C88.1658 6.63063 90.5471 5.00428 93.3182 3.84219L92.9315 2.92L92.5448 1.9978C89.5292 3.26238 86.9172 5.0427 84.7192 7.33843L85.4415 8.03ZM92.9315 2.92L93.3182 3.84219C96.0757 2.68584 99.1389 2.1 102.521 2.1V1.1V0.0999985C98.904 0.0999985 95.574 0.727492 92.5448 1.9978L92.9315 2.92ZM102.521 1.1V2.1C105.904 2.1 108.967 2.68584 111.725 3.84219L112.111 2.92L112.498 1.9978C109.469 0.727492 106.139 0.0999985 102.521 0.0999985V1.1ZM112.111 2.92L111.725 3.84219C114.494 5.00348 116.849 6.62754 118.801 8.71342L119.531 8.03L120.262 7.34657C118.108 5.04579 115.516 3.26318 112.498 1.9978L112.111 2.92ZM119.531 8.03L118.809 8.72157C120.819 10.8203 122.358 13.2295 123.431 15.9561L124.361 15.59L125.292 15.2239C124.125 12.2571 122.444 9.62638 120.254 7.33842L119.531 8.03ZM124.361 15.59L123.431 15.9561C124.501 18.6768 125.041 21.6315 125.041 24.83H126.041H127.041C127.041 21.4018 126.462 18.1965 125.292 15.2239L124.361 15.59ZM126.041 24.83H125.041C125.041 27.9798 124.502 30.9368 123.429 33.709L124.361 34.07L125.294 34.431C126.461 31.4165 127.041 28.2135 127.041 24.83H126.041ZM124.361 34.07L123.431 33.7039C122.358 36.4305 120.819 38.8397 118.809 40.9384L119.531 41.63L120.254 42.3216C122.444 40.0336 124.125 37.4029 125.292 34.4361L124.361 34.07ZM119.531 41.63L118.801 40.9466C116.849 43.0325 114.494 44.6565 111.725 45.8178L112.111 46.74L112.498 47.6622C115.516 46.3968 118.108 44.6142 120.262 42.3134L119.531 41.63ZM112.111 46.74L111.725 45.8178C108.967 46.9742 105.904 47.56 102.521 47.56V48.56V49.56C106.139 49.56 109.469 48.9325 112.498 47.6622L112.111 46.74ZM102.521 43.45V44.45C106.448 44.45 109.877 43.6006 112.768 41.8562L112.251 41L111.735 40.1438C109.212 41.6661 106.155 42.45 102.521 42.45V43.45ZM112.251 41L112.772 41.8536C115.678 40.0806 117.907 37.7057 119.44 34.739L118.551 34.28L117.663 33.821C116.303 36.4543 114.331 38.5594 111.731 40.1464L112.251 41ZM118.551 34.28L119.437 34.7445C121.011 31.744 121.791 28.4328 121.791 24.83H120.791H119.791C119.791 28.1338 119.079 31.1226 117.666 33.8154L118.551 34.28ZM120.791 24.83H121.791C121.791 21.1831 121.012 17.8687 119.434 14.9094L118.551 15.38L117.669 15.8506C119.078 18.4913 119.791 21.4769 119.791 24.83H120.791ZM118.551 15.38L119.44 14.921C117.906 11.9517 115.673 9.59728 112.762 7.86994L112.251 8.73L111.741 9.59005C114.336 11.1294 116.304 13.2082 117.663 15.839L118.551 15.38ZM112.251 8.73L112.779 7.88036C109.886 6.08505 106.453 5.21 102.521 5.21V6.21V7.21C106.15 7.21 109.203 8.01494 111.724 9.57964L112.251 8.73ZM102.521 6.21V5.21C98.6338 5.21 95.2042 6.08639 92.2706 7.87636L92.7915 8.73L93.3123 9.58364C95.8855 8.01361 98.9425 7.21 102.521 7.21V6.21ZM92.7915 8.73L92.2813 7.86994C89.3721 9.59574 87.1194 11.9465 85.5391 14.9094L86.4215 15.38L87.3038 15.8506C88.7103 13.2135 90.7042 11.1309 93.3017 9.59005L92.7915 8.73ZM86.4215 15.38L85.5331 14.921C84.0053 17.878 83.2515 21.1882 83.2515 24.83H84.2515H85.2515C85.2515 21.4718 85.9444 18.482 87.3099 15.839L86.4215 15.38ZM84.2515 24.83H83.2515C83.2515 28.4277 84.0063 31.7348 85.53 34.733L86.4215 34.28L87.313 33.827C85.9433 31.1319 85.2515 28.139 85.2515 24.83H84.2515ZM86.4215 34.28L85.5391 34.7506C87.118 37.711 89.3674 40.0822 92.2706 41.8536L92.7915 41L93.3123 40.1464C90.7089 38.5578 88.7116 36.449 87.3038 33.8094L86.4215 34.28ZM92.7915 41L92.2813 41.8601C95.2131 43.5993 98.6388 44.45 102.521 44.45V43.45V42.45C98.9375 42.45 95.8765 41.6674 93.3017 40.1399L92.7915 41ZM134.441 48H133.441V49H134.441V48ZM134.441 1.66V0.659996H133.441V1.66H134.441ZM166.991 5.72L166.302 6.44473L166.309 6.45065L166.991 5.72ZM166.991 27.49L167.674 28.2207L167.681 28.2147L166.991 27.49ZM139.691 31.48V30.48H138.691V31.48H139.691ZM139.691 48V49H140.691V48H139.691ZM139.691 26.58H138.691V27.58H139.691V26.58ZM163.211 23.92L163.9 24.645V24.645L163.211 23.92ZM163.211 9.29L162.523 10.015L163.211 9.29ZM139.691 6.63V5.63H138.691V6.63H139.691ZM134.441 48H135.441V1.66H134.441H133.441V48H134.441ZM134.441 1.66V2.66H155.301V1.66V0.659996H134.441V1.66ZM155.301 1.66V2.66C160.061 2.66 163.687 3.95749 166.302 6.4447L166.991 5.72L167.681 4.9953C164.603 2.06917 160.435 0.659996 155.301 0.659996V1.66ZM166.991 5.72L166.309 6.45065C168.918 8.88848 170.261 12.2212 170.261 16.57H171.261H172.261C172.261 11.7721 170.759 7.87151 167.674 4.98934L166.991 5.72ZM171.261 16.57H170.261C170.261 20.9184 168.918 24.2787 166.302 26.7653L166.991 27.49L167.681 28.2147C170.759 25.288 172.261 21.3683 172.261 16.57H171.261ZM166.991 27.49L166.309 26.7593C163.693 29.2032 160.066 30.48 155.301 30.48V31.48V32.48C160.431 32.48 164.596 31.0968 167.674 28.2207L166.991 27.49ZM155.301 31.48V30.48H139.691V31.48V32.48H155.301V31.48ZM139.691 31.48H138.691V48H139.691H140.691V31.48H139.691ZM139.691 48V47H134.441V48V49H139.691V48ZM139.691 26.58V27.58H154.951V26.58V25.58H139.691V26.58ZM154.951 26.58V27.58C158.741 27.58 161.783 26.6566 163.9 24.645L163.211 23.92L162.523 23.195C160.907 24.73 158.442 25.58 154.951 25.58V26.58ZM163.211 23.92L163.9 24.645C166.007 22.6434 167.011 19.9076 167.011 16.57H166.011H165.011C165.011 19.4857 164.149 21.65 162.523 23.195L163.211 23.92ZM166.011 16.57H167.011C167.011 13.274 166.004 10.5637 163.9 8.565L163.211 9.29L162.523 10.015C164.152 11.5629 165.011 13.706 165.011 16.57H166.011ZM163.211 9.29L163.9 8.565C161.783 6.55337 158.741 5.63 154.951 5.63V6.63V7.63C158.442 7.63 160.907 8.47996 162.523 10.015L163.211 9.29ZM154.951 6.63V5.63H139.691V6.63V7.63H154.951V6.63ZM139.691 6.63H138.691V26.58H139.691H140.691V6.63H139.691ZM191.977 48H190.977V49H191.977V48ZM191.977 6.7H192.977V5.7H191.977V6.7ZM182.177 6.7H181.177V7.7H182.177V6.7ZM182.177 1.66V0.659996H181.177V1.66H182.177ZM197.227 1.66H198.227V0.659996H197.227V1.66ZM197.227 48V49H198.227V48H197.227ZM191.977 48H192.977V6.7H191.977H190.977V48H191.977ZM191.977 6.7V5.7H182.177V6.7V7.7H191.977V6.7ZM182.177 6.7H183.177V1.66H182.177H181.177V6.7H182.177ZM182.177 1.66V2.66H197.227V1.66V0.659996H182.177V1.66ZM197.227 1.66H196.227V48H197.227H198.227V1.66H197.227ZM197.227 48V47H191.977V48V49H197.227V48Z" fill="#5EBD9A" mask="url(#path-1-outside-1_83_241)"/>
</svg>
